STARTFONT 2.1
FONT -FontForge-Hack-Bold-R-Normal--16-150-75-75-P-95-ISO10646-1
SIZE 15 75 75
FONTBOUNDINGBOX 23 22 -12 -6
COMMENT "Generated by fontforge, http://fontforge.sourceforge.net"
COMMENT "Copyright (c) 2018 Source Foundry Authors / Copyright (c) 2003 by Bitstream, Inc. All Rights Reserved."
STARTPROPERTIES 41
FOUNDRY "FontForge"
FAMILY_NAME "Hack"
WEIGHT_NAME "Bold"
SLANT "R"
SETWIDTH_NAME "Normal"
ADD_STYLE_NAME ""
PIXEL_SIZE 16
POINT_SIZE 150
RESOLUTION_X 75
RESOLUTION_Y 75
SPACING "P"
AVERAGE_WIDTH 95
CHARSET_REGISTRY "ISO10646"
CHARSET_ENCODING "1"
FONTNAME_REGISTRY ""
CHARSET_COLLECTIONS "ASCII ISOLatin1Encoding ISO8859-2 ISO8859-5 ISO8859-7 ISO8859-9 ISO8859-4 ISO10646-1"
FONT_NAME "Hack-Bold"
FACE_NAME "Hack Bold"
COPYRIGHT "Copyright (c) 2018 Source Foundry Authors / Copyright (c) 2003 by Bitstream, Inc. All Rights Reserved."
FONT_VERSION "3.003;[3114f1256]-release; ttfautohint (v1.7) -l 6 -r 50 -G 200 -x 10 -H 260 -D latn -f latn -m "Hack-Bold-TA.txt" -w G -W -t -X """
FONT_ASCENT 12
FONT_DESCENT 4
UNDERLINE_POSITION -2
UNDERLINE_THICKNESS 1
X_HEIGHT 8
CAP_HEIGHT 11
DEFAULT_CHAR 1
RAW_ASCENT 759
RAW_DESCENT 240
NORM_SPACE 10
RELATIVE_WEIGHT 70
RELATIVE_SETWIDTH 50
SUPERSCRIPT_X 0
SUPERSCRIPT_Y 5
SUPERSCRIPT_SIZE 9
SUBSCRIPT_X 0
SUBSCRIPT_Y 1
SUBSCRIPT_SIZE 9
FIGURE_WIDTH 10
AVG_LOWERCASE_WIDTH 100
AVG_UPPERCASE_WIDTH 100
ENDPROPERTIES
CHARS 1655
STARTCHAR uni0000.dup1
ENCODING 0
SWIDTH 0 0
DWIDTH 0 0
BBX 1 1 0 0
BITMAP
00
ENDCHAR
STARTCHAR uni000D
ENCODING 13
SWIDTH 602 0
DWIDTH 10 0
BBX 1 1 0 0
BITMAP
00
ENDCHAR
STARTCHAR uni0020
ENCODING 32
SWIDTH 602 0
DWIDTH 10 0
BBX 1 1 0 0
BITMAP
00
ENDCHAR
STARTCHAR uni0021
ENCODING 33
SWIDTH 602 0
DWIDTH 10 0
BBX 3 12 3 0
BITMAP
60
60
60
60
60
60
60
40
00
60
E0
60
ENDCHAR
STARTCHAR uni0022
ENCODING 34
SWIDTH 602 0
DWIDTH 10 0
BBX 6 4 2 8
BITMAP
CC
CC
CC
CC
ENDCHAR
STARTCHAR uni0023
ENCODING 35
SWIDTH 602 0
DWIDTH 10 0
BBX 10 12 0 0
BITMAP
0D80
1900
1B00
7FC0
7FC0
3300
3200
FF80
FF80
2600
6400
6C00
ENDCHAR
STARTCHAR uni0024
ENCODING 36
SWIDTH 602 0
DWIDTH 10 0
BBX 8 14 1 -2
BITMAP
18
18
7E
D2
D0
F8
7E
1E
17
96
FE
3C
18
18
ENDCHAR
STARTCHAR uni0025
ENCODING 37
SWIDTH 602 0
DWIDTH 10 0
BBX 10 12 0 0
BITMAP
3000
7800
C800
C800
7880
7300
1C00
7380
8780
04C0
0780
0380
ENDCHAR
STARTCHAR uni0026
ENCODING 38
SWIDTH 602 0
DWIDTH 10 0
BBX 10 12 0 0
BITMAP
1E00
3E00
3000
3000
3800
3800
6C80
CE80
C780
E380
7F80
3DC0
ENDCHAR
STARTCHAR uni0027
ENCODING 39
SWIDTH 602 0
DWIDTH 10 0
BBX 2 4 4 8
BITMAP
C0
C0
C0
C0
ENDCHAR
STARTCHAR uni0028
ENCODING 40
SWIDTH 602 0
DWIDTH 10 0
BBX 4 14 2 -2
BITMAP
30
30
60
60
60
C0
C0
C0
E0
60
60
60
30
30
ENDCHAR
STARTCHAR uni0029
ENCODING 41
SWIDTH 602 0
DWIDTH 10 0
BBX 4 14 3 -2
BITMAP
C0
60
60
30
30
30
30
30
30
30
30
60
60
C0
ENDCHAR
STARTCHAR uni002A
ENCODING 42
SWIDTH 602 0
DWIDTH 10 0
BBX 8 8 1 3
BITMAP
10
10
99
FF
38
3C
64
46
ENDCHAR
STARTCHAR uni002B
ENCODING 43
SWIDTH 602 0
DWIDTH 10 0
BBX 8 9 1 1
BITMAP
18
18
18
18
FF
FF
18
18
18
ENDCHAR
STARTCHAR uni002C
ENCODING 44
SWIDTH 602 0
DWIDTH 10 0
BBX 3 6 3 -3
BITMAP
60
E0
60
20
60
C0
ENDCHAR
STARTCHAR uni002D
ENCODING 45
SWIDTH 602 0
DWIDTH 10 0
BBX 6 2 2 4
BITMAP
FC
FC
ENDCHAR
STARTCHAR uni002E
ENCODING 46
SWIDTH 602 0
DWIDTH 10 0
BBX 3 3 3 0
BITMAP
60
E0
60
ENDCHAR
STARTCHAR uni002F
ENCODING 47
SWIDTH 602 0
DWIDTH 10 0
BBX 8 13 1 -1
BITMAP
03
06
06
0C
0C
18
18
30
30
20
60
40
C0
ENDCHAR
STARTCHAR uni0030
ENCODING 48
SWIDTH 602 0
DWIDTH 10 0
BBX 8 12 1 0
BITMAP
3C
7E
E6
C6
D7
D7
D7
D7
C6
E6
7E
3C
ENDCHAR
STARTCHAR uni0031
ENCODING 49
SWIDTH 602 0
DWIDTH 10 0
BBX 8 12 1 0
BITMAP
18
38
78
D8
58
18
18
18
18
18
FF
FF
ENDCHAR
STARTCHAR uni0032
ENCODING 50
SWIDTH 602 0
DWIDTH 10 0
BBX 7 12 1 0
BITMAP
7C
FE
86
06
06
0E
1C
38
70
E0
FE
FE
ENDCHAR
STARTCHAR uni0033
ENCODING 51
SWIDTH 602 0
DWIDTH 10 0
BBX 8 12 1 0
BITMAP
FC
FE
86
06
06
3C
3E
06
07
87
FE
FC
ENDCHAR
STARTCHAR uni0034
ENCODING 52
SWIDTH 602 0
DWIDTH 10 0
BBX 8 12 1 0
BITMAP
0E
1E
1E
3E
6E
4E
CE
FF
FF
0E
0E
0E
ENDCHAR
STARTCHAR uni0035
ENCODING 53
SWIDTH 602 0
DWIDTH 10 0
BBX 8 12 1 0
BITMAP
7E
7E
40
40
78
7E
86
07
07
86
FE
FC
ENDCHAR
STARTCHAR uni0036
ENCODING 54
SWIDTH 602 0
DWIDTH 10 0
BBX 8 12 1 0
BITMAP
3E
7E
61
C0
DC
FE
E7
E3
E3
E7
7E
3C
ENDCHAR
STARTCHAR uni0037
ENCODING 55
SWIDTH 602 0
DWIDTH 10 0
BBX 7 12 1 0
BITMAP
FE
FE
06
0E
0C
0C
1C
18
38
30
30
70
ENDCHAR
STARTCHAR uni0038
ENCODING 56
SWIDTH 602 0
DWIDTH 10 0
BBX 8 12 1 0
BITMAP
3C
7E
E6
C6
66
7C
7E
C6
C3
C7
FE
3C
ENDCHAR
STARTCHAR uni0039
ENCODING 57
SWIDTH 602 0
DWIDTH 10 0
BBX 8 12 1 0
BITMAP
3C
7E
C6
C6
C7
C7
FF
3F
06
86
7C
78
ENDCHAR
STARTCHAR uni003A
ENCODING 58
SWIDTH 602 0
DWIDTH 10 0
BBX 3 9 3 0
BITMAP
60
E0
60
00
00
00
60
E0
60
ENDCHAR
STARTCHAR uni003B
ENCODING 59
SWIDTH 602 0
DWIDTH 10 0
BBX 3 13 3 -4
BITMAP
60
E0
60
00
00
00
60
E0
60
20
60
C0
80
ENDCHAR
STARTCHAR uni003C
ENCODING 60
SWIDTH 602 0
DWIDTH 10 0
BBX 8 8 1 1
BITMAP
03
0F
7C
E0
E0
7C
0F
03
ENDCHAR
STARTCHAR uni003D
ENCODING 61
SWIDTH 602 0
DWIDTH 10 0
BBX 8 6 1 2
BITMAP
FF
FF
00
00
FF
FF
ENDCHAR
STARTCHAR uni003E
ENCODING 62
SWIDTH 602 0
DWIDTH 10 0
BBX 8 8 1 1
BITMAP
C0
F0
3E
07
0F
3C
F0
80
ENDCHAR
STARTCHAR uni003F
ENCODING 63
SWIDTH 602 0
DWIDTH 10 0
BBX 6 12 2 0
BITMAP
78
FC
8C
0C
08
30
30
20
00
20
70
30
ENDCHAR
STARTCHAR uni0040
ENCODING 64
SWIDTH 602 0
DWIDTH 10 0
BBX 9 14 0 -2
BITMAP
1E00
3F00
7180
6180
CE80
DF80
D980
D880
D980
CF80
6E80
7000
3F80
0F00
ENDCHAR
STARTCHAR uni0041
ENCODING 65
SWIDTH 602 0
DWIDTH 10 0
BBX 9 12 0 0
BITMAP
1C00
1E00
1E00
3E00
3600
3300
3300
7F00
7F00
6380
6180
E180
ENDCHAR
STARTCHAR uni0042
ENCODING 66
SWIDTH 602 0
DWIDTH 10 0
BBX 8 12 1 0
BITMAP
FC
FE
C7
C7
C6
FE
FE
C7
C3
C3
FF
FE
ENDCHAR
STARTCHAR uni0043
ENCODING 67
SWIDTH 602 0
DWIDTH 10 0
BBX 7 12 1 0
BITMAP
1E
7E
62
E0
E0
E0
E0
E0
E0
62
7E
1E
ENDCHAR
STARTCHAR uni0044
ENCODING 68
SWIDTH 602 0
DWIDTH 10 0
BBX 8 12 1 0
BITMAP
F8
FE
C6
C7
C7
C3
C3
C7
C7
C6
FE
F8
ENDCHAR
STARTCHAR uni0045
ENCODING 69
SWIDTH 602 0
DWIDTH 10 0
BBX 8 12 1 0
BITMAP
FF
FF
E0
E0
E0
FE
FE
E0
E0
E0
FF
FF
ENDCHAR
STARTCHAR uni0046
ENCODING 70
SWIDTH 602 0
DWIDTH 10 0
BBX 8 12 1 0
BITMAP
FF
FF
E0
E0
E0
FE
FE
E0
E0
E0
E0
E0
ENDCHAR
STARTCHAR uni0047
ENCODING 71
SWIDTH 602 0
DWIDTH 10 0
BBX 8 12 1 0
BITMAP
3E
7E
61
E0
C0
CF
CF
C3
E3
63
7F
3E
ENDCHAR
STARTCHAR uni0048
ENCODING 72
SWIDTH 602 0
DWIDTH 10 0
BBX 8 12 1 0
BITMAP
C7
C7
C7
C7
C7
FF
FF
C7
C7
C7
C7
C7
ENDCHAR
STARTCHAR uni0049
ENCODING 73
SWIDTH 602 0
DWIDTH 10 0
BBX 7 12 1 0
BITMAP
FE
FE
18
18
18
18
18
18
18
18
FE
FE
ENDCHAR
STARTCHAR uni004A
ENCODING 74
SWIDTH 602 0
DWIDTH 10 0
BBX 7 12 1 0
BITMAP
3E
3E
06
06
06
06
06
06
06
8E
FC
F8
ENDCHAR
STARTCHAR uni004B
ENCODING 75
SWIDTH 602 0
DWIDTH 10 0
BBX 9 12 1 0
BITMAP
C700
C600
CE00
DC00
F800
F800
FC00
EC00
CE00
C600
C700
C380
ENDCHAR
STARTCHAR uni004C
ENCODING 76
SWIDTH 602 0
DWIDTH 10 0
BBX 7 12 2 0
BITMAP
C0
C0
C0
C0
C0
C0
C0
C0
C0
C0
FE
FE
ENDCHAR
STARTCHAR uni004D
ENCODING 77
SWIDTH 602 0
DWIDTH 10 0
BBX 8 12 1 0
BITMAP
E7
E7
E7
EF
FB
FB
DB
DB
C3
C3
C3
C3
ENDCHAR
STARTCHAR uni004E
ENCODING 78
SWIDTH 602 0
DWIDTH 10 0
BBX 8 12 1 0
BITMAP
E3
E3
E3
F3
F3
D3
DB
CB
CF
CF
C7
C7
ENDCHAR
STARTCHAR uni004F
ENCODING 79
SWIDTH 602 0
DWIDTH 10 0
BBX 8 12 1 0
BITMAP
3C
7E
E6
C7
C7
C3
C3
C7
C7
E6
7E
3C
ENDCHAR
STARTCHAR uni0050
ENCODING 80
SWIDTH 602 0
DWIDTH 10 0
BBX 8 12 1 0
BITMAP
FC
FE
E7
E3
E3
E7
FE
FC
E0
E0
E0
E0
ENDCHAR
STARTCHAR uni0051
ENCODING 81
SWIDTH 602 0
DWIDTH 10 0
BBX 9 14 1 -2
BITMAP
3C00
7E00
E600
C700
C700
C300
C300
C700
C700
E600
7E00
3C00
0600
0780
ENDCHAR
STARTCHAR uni0052
ENCODING 82
SWIDTH 602 0
DWIDTH 10 0
BBX 9 12 1 0
BITMAP
FC00
FE00
C700
C700
C600
FE00
FC00
CE00
C600
C600
C700
C380
ENDCHAR
STARTCHAR uni0053
ENCODING 83
SWIDTH 602 0
DWIDTH 10 0
BBX 8 12 1 0
BITMAP
3E
7E
C2
C0
F0
7C
3E
07
07
87
FE
7C
ENDCHAR
STARTCHAR uni0054
ENCODING 84
SWIDTH 602 0
DWIDTH 10 0
BBX 8 12 1 0
BITMAP
FF
FF
18
18
18
18
18
18
18
18
18
18
ENDCHAR
STARTCHAR uni0055
ENCODING 85
SWIDTH 602 0
DWIDTH 10 0
BBX 8 12 1 0
BITMAP
C7
C7
C7
C7
C7
C7
C7
C7
C7
E7
FE
3C
ENDCHAR
STARTCHAR uni0056
ENCODING 86
SWIDTH 602 0
DWIDTH 10 0
BBX 9 12 0 0
BITMAP
E180
6180
6380
6300
7300
3300
3300
3600
3600
1E00
1E00
1E00
ENDCHAR
STARTCHAR uni0057
ENCODING 87
SWIDTH 602 0
DWIDTH 10 0
BBX 10 12 0 0
BITMAP
C0C0
C180
C180
CD80
4D80
7D80
7D80
7780
7780
7380
7300
7300
ENDCHAR
STARTCHAR uni0058
ENCODING 88
SWIDTH 602 0
DWIDTH 10 0
BBX 9 12 0 0
BITMAP
E180
7300
3300
3E00
1E00
1C00
1C00
1E00
3E00
3300
6380
E180
ENDCHAR
STARTCHAR uni0059
ENCODING 89
SWIDTH 602 0
DWIDTH 10 0
BBX 10 12 0 0
BITMAP
E1C0
6380
7300
3700
3E00
1E00
1C00
0C00
0C00
0C00
0C00
0C00
ENDCHAR
STARTCHAR uni005A
ENCODING 90
SWIDTH 602 0
DWIDTH 10 0
BBX 8 12 1 0
BITMAP
FF
FF
06
0E
1C
18
38
70
60
E0
FF
FF
ENDCHAR
STARTCHAR uni005B
ENCODING 91
SWIDTH 602 0
DWIDTH 10 0
BBX 6 15 2 -2
BITMAP
FC
FC
C0
C0
C0
C0
C0
C0
C0
C0
C0
C0
C0
FC
FC
ENDCHAR
STARTCHAR uni005C
ENCODING 92
SWIDTH 602 0
DWIDTH 10 0
BBX 8 13 1 -1
BITMAP
C0
40
60
20
30
30
18
18
0C
0C
06
06
03
ENDCHAR
STARTCHAR uni005D
ENCODING 93
SWIDTH 602 0
DWIDTH 10 0
BBX 5 15 2 -2
BITMAP
F8
F8
18
18
18
18
18
18
18
18
18
18
18
F8
F8
ENDCHAR
STARTCHAR uni005E
ENCODING 94
SWIDTH 602 0
DWIDTH 10 0
BBX 9 5 0 7
BITMAP
0C00
1E00
3E00
3300
E180
ENDCHAR
STARTCHAR uni005F
ENCODING 95
SWIDTH 602 0
DWIDTH 10 0
BBX 8 2 1 -3
BITMAP
FF
FF
ENDCHAR
STARTCHAR uni0060
ENCODING 96
SWIDTH 602 0
DWIDTH 10 0
BBX 4 3 2 10
BITMAP
C0
60
30
ENDCHAR
STARTCHAR uni0061
ENCODING 97
SWIDTH 602 0
DWIDTH 10 0
BBX 8 9 1 0
BITMAP
7C
7E
87
7F
FF
C7
C7
FF
7B
ENDCHAR
STARTCHAR uni0062
ENCODING 98
SWIDTH 602 0
DWIDTH 10 0
BBX 8 12 1 0
BITMAP
C0
C0
C0
DC
FE
E7
E3
C3
E3
E7
FE
DC
ENDCHAR
STARTCHAR uni0063
ENCODING 99
SWIDTH 602 0
DWIDTH 10 0
BBX 7 9 1 0
BITMAP
3E
7E
E2
E0
C0
E0
E2
7E
3E
ENDCHAR
STARTCHAR uni0064
ENCODING 100
SWIDTH 602 0
DWIDTH 10 0
BBX 7 12 1 0
BITMAP
06
06
06
76
FE
C6
C6
C6
C6
C6
FE
76
ENDCHAR
STARTCHAR uni0065
ENCODING 101
SWIDTH 602 0
DWIDTH 10 0
BBX 8 9 1 0
BITMAP
3C
7E
C7
FF
FF
C0
C1
FF
3E
ENDCHAR
STARTCHAR uni0066
ENCODING 102
SWIDTH 602 0
DWIDTH 10 0
BBX 7 12 1 0
BITMAP
1E
3E
38
FE
FE
38
38
38
38
38
38
38
ENDCHAR
STARTCHAR uni0067
ENCODING 103
SWIDTH 602 0
DWIDTH 10 0
BBX 8 12 1 -3
BITMAP
7F
FF
E7
C7
C7
C7
E7
FF
7F
06
7E
7C
ENDCHAR
STARTCHAR uni0068
ENCODING 104
SWIDTH 602 0
DWIDTH 10 0
BBX 7 12 1 0
BITMAP
E0
E0
E0
FC
FE
E6
E6
E6
E6
E6
E6
E6
ENDCHAR
STARTCHAR uni0069
ENCODING 105
SWIDTH 602 0
DWIDTH 10 0
BBX 8 12 1 0
BITMAP
38
38
38
F8
F8
38
38
38
38
38
1F
1F
ENDCHAR
STARTCHAR uni006A
ENCODING 106
SWIDTH 602 0
DWIDTH 10 0
BBX 6 15 1 -3
BITMAP
0C
0C
0C
7C
7C
0C
0C
0C
0C
0C
0C
0C
1C
FC
F8
ENDCHAR
STARTCHAR uni006B
ENCODING 107
SWIDTH 602 0
DWIDTH 10 0
BBX 8 12 1 0
BITMAP
E0
E0
E0
E7
EE
FC
F8
FC
EC
EE
E6
E3
ENDCHAR
STARTCHAR uni006C
ENCODING 108
SWIDTH 602 0
DWIDTH 10 0
BBX 8 12 1 0
BITMAP
F0
F0
30
30
30
30
30
30
30
38
3F
1F
ENDCHAR
STARTCHAR uni006D
ENCODING 109
SWIDTH 602 0
DWIDTH 10 0
BBX 8 9 1 0
BITMAP
B6
FF
DB
DB
DB
DB
DB
DB
DB
ENDCHAR
STARTCHAR uni006E
ENCODING 110
SWIDTH 602 0
DWIDTH 10 0
BBX 7 9 1 0
BITMAP
DC
FE
E6
E6
E6
E6
E6
E6
E6
ENDCHAR
STARTCHAR uni006F
ENCODING 111
SWIDTH 602 0
DWIDTH 10 0
BBX 8 9 1 0
BITMAP
3C
7E
E7
C7
C3
C7
E7
7E
3C
ENDCHAR
STARTCHAR uni0070
ENCODING 112
SWIDTH 602 0
DWIDTH 10 0
BBX 8 12 1 -3
BITMAP
DC
FE
E7
E3
C3
E3
E7
FE
DC
C0
C0
C0
ENDCHAR
STARTCHAR uni0071
ENCODING 113
SWIDTH 602 0
DWIDTH 10 0
BBX 7 12 1 -3
BITMAP
76
FE
C6
C6
C6
C6
C6
FE
76
06
06
06
ENDCHAR
STARTCHAR uni0072
ENCODING 114
SWIDTH 602 0
DWIDTH 10 0
BBX 7 9 2 0
BITMAP
DE
FE
E2
C0
C0
C0
C0
C0
C0
ENDCHAR
STARTCHAR uni0073
ENCODING 115
SWIDTH 602 0
DWIDTH 10 0
BBX 7 9 1 0
BITMAP
3E
7E
E2
70
7C
06
86
FE
7C
ENDCHAR
STARTCHAR uni0074
ENCODING 116
SWIDTH 602 0
DWIDTH 10 0
BBX 7 12 1 0
BITMAP
30
30
30
FE
FE
30
30
30
30
30
3E
1E
ENDCHAR
STARTCHAR uni0075
ENCODING 117
SWIDTH 602 0
DWIDTH 10 0
BBX 7 9 1 0
BITMAP
E6
E6
E6
E6
E6
E6
E6
7E
76
ENDCHAR
STARTCHAR uni0076
ENCODING 118
SWIDTH 602 0
DWIDTH 10 0
BBX 8 9 1 0
BITMAP
C3
C7
E6
66
6E
6C
3C
3C
38
ENDCHAR
STARTCHAR uni0077
ENCODING 119
SWIDTH 602 0
DWIDTH 10 0
BBX 10 9 0 0
BITMAP
C0C0
C080
CD80
4D80
7D80
7D80
7700
7300
3300
ENDCHAR
STARTCHAR uni0078
ENCODING 120
SWIDTH 602 0
DWIDTH 10 0
BBX 9 9 0 0
BITMAP
7380
3700
3E00
1E00
0C00
1E00
3E00
7300
E380
ENDCHAR
STARTCHAR uni0079
ENCODING 121
SWIDTH 602 0
DWIDTH 10 0
BBX 8 12 1 -3
BITMAP
C3
C7
66
66
7E
3C
3C
38
18
38
F0
E0
ENDCHAR
STARTCHAR uni007A
ENCODING 122
SWIDTH 602 0
DWIDTH 10 0
BBX 7 9 1 0
BITMAP
FE
FE
0E
1C
18
30
60
FE
FE
ENDCHAR
STARTCHAR uni007B
ENCODING 123
SWIDTH 602 0
DWIDTH 10 0
BBX 7 15 1 -3
BITMAP
1E
1E
38
38
38
38
30
F0
F0
30
38
38
38
1E
1E
ENDCHAR
STARTCHAR uni007C
ENCODING 124
SWIDTH 602 0
DWIDTH 10 0
BBX 2 16 4 -4
BITMAP
C0
C0
C0
C0
C0
C0
C0
C0
C0
C0
C0
C0
C0
C0
C0
C0
ENDCHAR
STARTCHAR uni007D
ENCODING 125
SWIDTH 602 0
DWIDTH 10 0
BBX 7 15 2 -3
BITMAP
E0
F0
30
30
30
30
38
1E
1E
30
30
30
30
F0
F0
ENDCHAR
STARTCHAR uni007E
ENCODING 126
SWIDTH 602 0
DWIDTH 10 0
BBX 8 4 1 3
BITMAP
73
FB
DF
8E
ENDCHAR
STARTCHAR uni00A0
ENCODING 160
SWIDTH 602 0
DWIDTH 10 0
BBX 1 1 0 0
BITMAP
00
ENDCHAR
STARTCHAR uni00A1
ENCODING 161
SWIDTH 602 0
DWIDTH 10 0
BBX 3 12 3 0
BITMAP
60
E0
60
00
40
60
60
60
60
60
60
60
ENDCHAR
STARTCHAR uni00A2
ENCODING 162
SWIDTH 602 0
DWIDTH 10 0
BBX 7 14 1 -3
BITMAP
08
08
3E
7E
6A
C8
C8
C8
E8
6A
3E
1C
08
08
ENDCHAR
STARTCHAR uni00A3
ENCODING 163
SWIDTH 602 0
DWIDTH 10 0
BBX 8 12 1 0
BITMAP
1F
3F
30
30
30
FE
FE
30
30
30
FF
FF
ENDCHAR
STARTCHAR uni00A4
ENCODING 164
SWIDTH 602 0
DWIDTH 10 0
BBX 8 8 1 1
BITMAP
42
FB
7E
26
66
7E
FF
42
ENDCHAR
STARTCHAR uni00A5
ENCODING 165
SWIDTH 602 0
DWIDTH 10 0
BBX 10 12 0 0
BITMAP
E1C0
6380
7300
3300
3700
FF80
1E00
FF80
FF80
0C00
0C00
0C00
ENDCHAR
STARTCHAR uni00A6
ENCODING 166
SWIDTH 602 0
DWIDTH 10 0
BBX 2 14 4 -3
BITMAP
C0
C0
C0
C0
C0
C0
00
00
C0
C0
C0
C0
C0
C0
ENDCHAR
STARTCHAR uni00A7
ENCODING 167
SWIDTH 602 0
DWIDTH 10 0
BBX 7 14 1 -2
BITMAP
3C
7C
60
60
38
7E
C6
66
7E
1C
0E
06
7E
7C
ENDCHAR
STARTCHAR uni00A8
ENCODING 168
SWIDTH 602 0
DWIDTH 10 0
BBX 5 2 2 11
BITMAP
D8
D8
ENDCHAR
STARTCHAR uni00A9
ENCODING 169
SWIDTH 602 0
DWIDTH 10 0
BBX 10 10 0 1
BITMAP
1E00
6100
4080
9E80
B040
B040
B080
5E80
6100
1E00
ENDCHAR
STARTCHAR uni00AA
ENCODING 170
SWIDTH 602 0
DWIDTH 10 0
BBX 6 8 2 4
BITMAP
F8
88
7C
CC
CC
FC
00
FC
ENDCHAR
STARTCHAR uni00AB
ENCODING 171
SWIDTH 602 0
DWIDTH 10 0
BBX 8 7 0 1
BITMAP
11
33
6E
CC
66
33
11
ENDCHAR
STARTCHAR uni00AC
ENCODING 172
SWIDTH 602 0
DWIDTH 10 0
BBX 8 4 1 3
BITMAP
FF
FF
03
03
ENDCHAR
STARTCHAR uni00AD
ENCODING 173
SWIDTH 602 0
DWIDTH 10 0
BBX 5 2 2 3
BITMAP
F8
F8
ENDCHAR
STARTCHAR uni00AE
ENCODING 174
SWIDTH 602 0
DWIDTH 10 0
BBX 10 10 0 1
BITMAP
1E00
6100
4080
9C80
9640
9C40
9680
5280
6100
1E00
ENDCHAR
STARTCHAR uni00AF
ENCODING 175
SWIDTH 602 0
DWIDTH 10 0
BBX 5 2 2 11
BITMAP
F8
F8
ENDCHAR
STARTCHAR uni00B0
ENCODING 176
SWIDTH 602 0
DWIDTH 10 0
BBX 5 6 2 7
BITMAP
30
78
C8
C8
78
70
ENDCHAR
STARTCHAR uni00B1
ENCODING 177
SWIDTH 602 0
DWIDTH 10 0
BBX 8 10 1 0
BITMAP
18
18
18
FF
FF
18
18
00
FF
FF
ENDCHAR
STARTCHAR uni00B2
ENCODING 178
SWIDTH 602 0
DWIDTH 10 0
BBX 5 6 2 9
BITMAP
F8
88
18
30
40
F8
ENDCHAR
STARTCHAR uni00B3
ENCODING 179
SWIDTH 602 0
DWIDTH 10 0
BBX 6 6 2 9
BITMAP
F8
08
30
08
0C
F8
ENDCHAR
STARTCHAR uni00B4
ENCODING 180
SWIDTH 602 0
DWIDTH 10 0
BBX 4 3 4 10
BITMAP
30
60
C0
ENDCHAR
STARTCHAR uni00B5
ENCODING 181
SWIDTH 602 0
DWIDTH 10 0
BBX 8 12 1 -3
BITMAP
C6
C6
C6
C6
C6
C6
E6
FF
DB
C0
C0
C0
ENDCHAR
STARTCHAR uni00B6
ENCODING 182
SWIDTH 602 0
DWIDTH 10 0
BBX 7 13 1 -1
BITMAP
7E
F2
F2
F2
F2
F2
32
12
12
12
12
12
12
ENDCHAR
STARTCHAR uni00B7
ENCODING 183
SWIDTH 602 0
DWIDTH 10 0
BBX 2 3 4 5
BITMAP
C0
C0
C0
ENDCHAR
STARTCHAR uni00B8
ENCODING 184
SWIDTH 602 0
DWIDTH 10 0
BBX 3 3 3 -3
BITMAP
60
20
E0
ENDCHAR
STARTCHAR uni00B9
ENCODING 185
SWIDTH 602 0
DWIDTH 10 0
BBX 6 6 2 9
BITMAP
F0
30
30
30
30
FC
ENDCHAR
STARTCHAR uni00BA
ENCODING 186
SWIDTH 602 0
DWIDTH 10 0
BBX 6 8 2 4
BITMAP
78
C8
CC
CC
CC
78
00
FC
ENDCHAR
STARTCHAR uni00BB
ENCODING 187
SWIDTH 602 0
DWIDTH 10 0
BBX 7 7 2 1
BITMAP
88
CC
66
36
6C
C8
90
ENDCHAR
STARTCHAR uni00BC
ENCODING 188
SWIDTH 602 0
DWIDTH 10 0
BBX 9 15 0 -3
BITMAP
F000
3000
3000
3000
3000
FC00
0780
7800
8300
0700
0F00
0B00
1F80
0300
0300
ENDCHAR
STARTCHAR uni00BD
ENCODING 189
SWIDTH 602 0
DWIDTH 10 0
BBX 9 15 0 -2
BITMAP
F000
B000
3000
3000
3000
FC00
0380
1E00
F000
8F00
1180
0180
0300
0C00
0F80
ENDCHAR
STARTCHAR uni00BE
ENCODING 190
SWIDTH 602 0
DWIDTH 10 0
BBX 9 16 0 -3
BITMAP
7800
0C00
0800
3000
0C00
0C00
F880
0780
7800
8300
0700
0F00
0B00
1F80
0300
0300
ENDCHAR
STARTCHAR uni00BF
ENCODING 191
SWIDTH 602 0
DWIDTH 10 0
BBX 7 12 1 0
BITMAP
18
18
18
18
18
18
30
60
E0
E2
7E
3C
ENDCHAR
STARTCHAR uni00C0
ENCODING 192
SWIDTH 602 0
DWIDTH 10 0
BBX 9 15 0 0
BITMAP
3800
0C00
0000
1C00
1E00
1E00
3E00
3600
3300
3300
7F00
7F00
6380
6180
E180
ENDCHAR
STARTCHAR uni00C1
ENCODING 193
SWIDTH 602 0
DWIDTH 10 0
BBX 9 15 0 0
BITMAP
0600
0C00
0000
1C00
1E00
1E00
3E00
3600
3300
3300
7F00
7F00
6380
6180
E180
ENDCHAR
STARTCHAR uni00C2
ENCODING 194
SWIDTH 602 0
DWIDTH 10 0
BBX 9 15 0 0
BITMAP
1C00
3200
0100
1C00
1E00
1E00
3E00
3600
3300
3300
7F00
7F00
6380
6180
E180
ENDCHAR
STARTCHAR uni00C3
ENCODING 195
SWIDTH 602 0
DWIDTH 10 0
BBX 9 15 0 0
BITMAP
1B00
2600
0000
1C00
1E00
1E00
3E00
3600
3300
3300
7F00
7F00
6380
6180
E180
ENDCHAR
STARTCHAR uni00C4
ENCODING 196
SWIDTH 602 0
DWIDTH 10 0
BBX 9 15 0 0
BITMAP
3600
3600
0000
1C00
1E00
1E00
3E00
3600
3300
3300
7F00
7F00
6380
6180
E180
ENDCHAR
STARTCHAR uni00C5
ENCODING 197
SWIDTH 602 0
DWIDTH 10 0
BBX 9 15 0 0
BITMAP
1C00
1200
1200
1C00
1E00
1E00
1E00
3600
3300
3300
7F00
7F00
6380
6180
E180
ENDCHAR
STARTCHAR uni00C6
ENCODING 198
SWIDTH 602 0
DWIDTH 10 0
BBX 9 12 0 0
BITMAP
1F80
3F80
3600
3600
3600
2780
6780
7E00
7E00
4600
C780
C780
ENDCHAR
STARTCHAR uni00C7
ENCODING 199
SWIDTH 602 0
DWIDTH 10 0
BBX 7 15 1 -3
BITMAP
1E
7E
62
E0
E0
E0
E0
E0
E0
72
7E
3E
04
04
1C
ENDCHAR
STARTCHAR uni00C8
ENCODING 200
SWIDTH 602 0
DWIDTH 10 0
BBX 8 15 1 0
BITMAP
70
10
08
FF
FF
E0
E0
E0
FE
FE
E0
E0
E0
FF
FF
ENDCHAR
STARTCHAR uni00C9
ENCODING 201
SWIDTH 602 0
DWIDTH 10 0
BBX 8 15 1 0
BITMAP
0E
0C
10
FF
FF
E0
E0
E0
FE
FE
E0
E0
E0
FF
FF
ENDCHAR
STARTCHAR uni00CA
ENCODING 202
SWIDTH 602 0
DWIDTH 10 0
BBX 8 15 1 0
BITMAP
3C
66
00
FF
FF
E0
E0
E0
FE
FE
E0
E0
E0
FF
FF
ENDCHAR
STARTCHAR uni00CB
ENCODING 203
SWIDTH 602 0
DWIDTH 10 0
BBX 8 15 1 0
BITMAP
26
26
00
FF
FF
E0
E0
E0
FE
FE
E0
E0
E0
FF
FF
ENDCHAR
STARTCHAR uni00CC
ENCODING 204
SWIDTH 602 0
DWIDTH 10 0
BBX 7 15 1 0
BITMAP
70
18
00
FE
FE
18
18
18
18
18
18
18
18
FE
FE
ENDCHAR
STARTCHAR uni00CD
ENCODING 205
SWIDTH 602 0
DWIDTH 10 0
BBX 7 15 1 0
BITMAP
0C
18
00
FE
FE
18
18
18
18
18
18
18
18
FE
FE
ENDCHAR
STARTCHAR uni00CE
ENCODING 206
SWIDTH 602 0
DWIDTH 10 0
BBX 7 15 1 0
BITMAP
38
64
02
FE
FE
18
18
18
18
18
18
18
18
FE
FE
ENDCHAR
STARTCHAR uni00CF
ENCODING 207
SWIDTH 602 0
DWIDTH 10 0
BBX 7 15 1 0
BITMAP
6C
6C
00
FE
FE
18
18
18
18
18
18
18
18
FE
FE
ENDCHAR
STARTCHAR uni00D0
ENCODING 208
SWIDTH 602 0
DWIDTH 10 0
BBX 9 12 0 0
BITMAP
7C00
7F00
6300
6380
6380
F980
F980
6380
6380
6300
7F00
7C00
ENDCHAR
STARTCHAR uni00D1
ENCODING 209
SWIDTH 602 0
DWIDTH 10 0
BBX 8 15 1 0
BITMAP
36
4C
00
E3
E3
E3
F3
F3
D3
DB
CB
CF
CF
C7
C7
ENDCHAR
STARTCHAR uni00D2
ENCODING 210
SWIDTH 602 0
DWIDTH 10 0
BBX 8 15 1 0
BITMAP
70
10
08
3C
7E
E6
C7
C7
C3
C3
C7
C7
E6
7E
3C
ENDCHAR
STARTCHAR uni00D3
ENCODING 211
SWIDTH 602 0
DWIDTH 10 0
BBX 8 15 1 0
BITMAP
0C
18
00
3C
7E
E6
C7
C7
C3
C3
C7
C7
E6
7E
3C
ENDCHAR
STARTCHAR uni00D4
ENCODING 212
SWIDTH 602 0
DWIDTH 10 0
BBX 8 15 1 0
BITMAP
38
6C
02
3C
7E
E6
C7
C7
C3
C3
C7
C7
E6
7E
3C
ENDCHAR
STARTCHAR uni00D5
ENCODING 213
SWIDTH 602 0
DWIDTH 10 0
BBX 8 15 1 0
BITMAP
36
4C
00
3C
7E
E6
C7
C7
C3
C3
C7
C7
E6
7E
3C
ENDCHAR
STARTCHAR uni00D6
ENCODING 214
SWIDTH 602 0
DWIDTH 10 0
BBX 8 15 1 0
BITMAP
6C
6C
00
3C
7E
E6
C7
C7
C3
C3
C7
C7
E6
7E
3C
ENDCHAR
STARTCHAR uni00D7
ENCODING 215
SWIDTH 602 0
DWIDTH 10 0
BBX 8 8 1 1
BITMAP
42
E7
7E
3C
3C
7E
E7
42
ENDCHAR
STARTCHAR uni00D8
ENCODING 216
SWIDTH 602 0
DWIDTH 10 0
BBX 10 12 0 0
BITMAP
1EC0
3F80
7300
6780
6780
6D80
7980
7B80
7380
7300
7F00
DE00
ENDCHAR
STARTCHAR uni00D9
ENCODING 217
SWIDTH 602 0
DWIDTH 10 0
BBX 8 15 1 0
BITMAP
70
18
00
C7
C7
C7
C7
C7
C7
C7
C7
C7
E7
FE
3C
ENDCHAR
STARTCHAR uni00DA
ENCODING 218
SWIDTH 602 0
DWIDTH 10 0
BBX 8 15 1 0
BITMAP
0C
18
00
C7
C7
C7
C7
C7
C7
C7
C7
C7
E7
FE
3C
ENDCHAR
STARTCHAR uni00DB
ENCODING 219
SWIDTH 602 0
DWIDTH 10 0
BBX 8 15 1 0
BITMAP
38
64
02
C7
C7
C7
C7
C7
C7
C7
C7
C7
E7
FE
3C
ENDCHAR
STARTCHAR uni00DC
ENCODING 220
SWIDTH 602 0
DWIDTH 10 0
BBX 8 15 1 0
BITMAP
6C
6C
00
C7
C7
C7
C7
C7
C7
C7
C7
C7
E7
FE
3C
ENDCHAR
STARTCHAR uni00DD
ENCODING 221
SWIDTH 602 0
DWIDTH 10 0
BBX 10 15 0 0
BITMAP
0600
0C00
0000
E1C0
6380
7300
3700
3E00
1E00
1C00
0C00
0C00
0C00
0C00
0C00
ENDCHAR
STARTCHAR uni00DE
ENCODING 222
SWIDTH 602 0
DWIDTH 10 0
BBX 8 12 1 0
BITMAP
E0
E0
FC
FE
E7
E3
E7
FF
FC
E0
E0
E0
ENDCHAR
STARTCHAR uni00DF
ENCODING 223
SWIDTH 602 0
DWIDTH 10 0
BBX 8 12 1 0
BITMAP
7C
FE
C6
CE
D8
D8
DC
CE
C3
C3
DF
DE
ENDCHAR
STARTCHAR uni00E0
ENCODING 224
SWIDTH 602 0
DWIDTH 10 0
BBX 8 14 1 0
BITMAP
60
30
30
18
00
7C
7E
87
7F
FF
C7
C7
FF
7B
ENDCHAR
STARTCHAR uni00E1
ENCODING 225
SWIDTH 602 0
DWIDTH 10 0
BBX 8 14 1 0
BITMAP
06
0C
18
10
00
7C
7E
87
7F
FF
C7
C7
FF
7B
ENDCHAR
STARTCHAR uni00E2
ENCODING 226
SWIDTH 602 0
DWIDTH 10 0
BBX 8 14 1 0
BITMAP
18
38
24
46
00
7C
7E
87
7F
FF
C7
C7
FF
7B
ENDCHAR
STARTCHAR uni00E3
ENCODING 227
SWIDTH 602 0
DWIDTH 10 0
BBX 8 12 1 0
BITMAP
7E
00
00
7C
7E
87
7F
FF
C7
C7
FF
7B
ENDCHAR
STARTCHAR uni00E4
ENCODING 228
SWIDTH 602 0
DWIDTH 10 0
BBX 8 12 1 0
BITMAP
6C
6C
00
7C
7E
87
7F
FF
C7
C7
FF
7B
ENDCHAR
STARTCHAR uni00E5
ENCODING 229
SWIDTH 602 0
DWIDTH 10 0
BBX 8 14 1 0
BITMAP
38
24
24
38
00
7C
7E
87
7F
FF
C7
C7
FF
7B
ENDCHAR
STARTCHAR uni00E6
ENCODING 230
SWIDTH 602 0
DWIDTH 10 0
BBX 9 9 0 0
BITMAP
7700
7F80
0D80
7F80
FF80
CC00
CC80
FF80
7380
ENDCHAR
STARTCHAR uni00E7
ENCODING 231
SWIDTH 602 0
DWIDTH 10 0
BBX 7 12 1 -3
BITMAP
3E
7E
62
E0
E0
E0
62
7E
3E
0C
04
3C
ENDCHAR
STARTCHAR uni00E8
ENCODING 232
SWIDTH 602 0
DWIDTH 10 0
BBX 8 14 1 0
BITMAP
60
30
18
08
00
3C
7E
C7
FF
FF
C0
E1
7F
3E
ENDCHAR
STARTCHAR uni00E9
ENCODING 233
SWIDTH 602 0
DWIDTH 10 0
BBX 8 14 1 0
BITMAP
06
0C
08
10
00
3C
7E
C7
FF
FF
C0
C1
7F
3E
ENDCHAR
STARTCHAR uni00EA
ENCODING 234
SWIDTH 602 0
DWIDTH 10 0
BBX 8 14 1 0
BITMAP
18
3C
24
62
00
3C
7E
C7
FF
FF
C0
C1
7F
3E
ENDCHAR
STARTCHAR uni00EB
ENCODING 235
SWIDTH 602 0
DWIDTH 10 0
BBX 8 12 1 0
BITMAP
26
26
00
3C
7E
C7
FF
FF
C0
C1
7F
3E
ENDCHAR
STARTCHAR uni00EC
ENCODING 236
SWIDTH 602 0
DWIDTH 10 0
BBX 8 14 1 0
BITMAP
C0
60
30
18
00
F8
F8
38
38
38
38
38
1F
1F
ENDCHAR
STARTCHAR uni00ED
ENCODING 237
SWIDTH 602 0
DWIDTH 10 0
BBX 8 13 1 0
BITMAP
0E
18
30
00
F8
F8
38
38
38
38
38
1F
1F
ENDCHAR
STARTCHAR uni00EE
ENCODING 238
SWIDTH 602 0
DWIDTH 10 0
BBX 8 13 1 0
BITMAP
38
6C
C4
00
F8
F8
38
38
38
38
38
1F
1F
ENDCHAR
STARTCHAR uni00EF
ENCODING 239
SWIDTH 602 0
DWIDTH 10 0
BBX 8 12 1 0
BITMAP
6C
6C
00
F8
F8
38
38
38
38
38
1F
1F
ENDCHAR
STARTCHAR uni00F0
ENCODING 240
SWIDTH 602 0
DWIDTH 10 0
BBX 8 12 1 0
BITMAP
76
38
CC
3E
7E
E7
C3
C3
C7
E6
7E
3C
ENDCHAR
STARTCHAR uni00F1
ENCODING 241
SWIDTH 602 0
DWIDTH 10 0
BBX 7 12 1 0
BITMAP
7E
00
00
DC
FE
E6
E6
E6
E6
E6
E6
E6
ENDCHAR
STARTCHAR uni00F2
ENCODING 242
SWIDTH 602 0
DWIDTH 10 0
BBX 8 12 1 0
BITMAP
60
18
00
3C
7E
E7
C7
C3
C7
E7
7E
3C
ENDCHAR
STARTCHAR uni00F3
ENCODING 243
SWIDTH 602 0
DWIDTH 10 0
BBX 8 12 1 0
BITMAP
0E
18
00
3C
7E
E7
C7
C3
C7
E7
7E
3C
ENDCHAR
STARTCHAR uni00F4
ENCODING 244
SWIDTH 602 0
DWIDTH 10 0
BBX 8 12 1 0
BITMAP
38
66
00
3C
7E
E7
C7
C3
C7
E7
7E
3C
ENDCHAR
STARTCHAR uni00F5
ENCODING 245
SWIDTH 602 0
DWIDTH 10 0
BBX 8 12 1 0
BITMAP
7E
00
00
3C
7E
E7
C7
C3
C7
E7
7E
3C
ENDCHAR
STARTCHAR uni00F6
ENCODING 246
SWIDTH 602 0
DWIDTH 10 0
BBX 8 12 1 0
BITMAP
6C
6C
00
3C
7E
E7
C7
C3
C7
E7
7E
3C
ENDCHAR
STARTCHAR uni00F7
ENCODING 247
SWIDTH 602 0
DWIDTH 10 0
BBX 8 9 1 1
BITMAP
18
18
00
00
FF
FF
00
18
18
ENDCHAR
STARTCHAR uni00F8
ENCODING 248
SWIDTH 602 0
DWIDTH 10 0
BBX 9 11 0 -1
BITMAP
0080
1F80
3F00
7380
6780
6D80
7B80
7380
7F00
DE00
4000
ENDCHAR
STARTCHAR uni00F9
ENCODING 249
SWIDTH 602 0
DWIDTH 10 0
BBX 7 13 1 0
BITMAP
60
30
18
00
E6
E6
E6
E6
E6
E6
E6
7E
76
ENDCHAR
STARTCHAR uni00FA
ENCODING 250
SWIDTH 602 0
DWIDTH 10 0
BBX 7 13 1 0
BITMAP
06
0C
18
00
E6
E6
E6
E6
E6
E6
E6
7E
76
ENDCHAR
STARTCHAR uni00FB
ENCODING 251
SWIDTH 602 0
DWIDTH 10 0
BBX 7 13 1 0
BITMAP
18
3C
66
00
E6
E6
E6
E6
E6
E6
E6
7E
76
ENDCHAR
STARTCHAR uni00FC
ENCODING 252
SWIDTH 602 0
DWIDTH 10 0
BBX 7 12 1 0
BITMAP
6C
6C
00
E6
E6
E6
E6
E6
E6
E6
7E
76
ENDCHAR
STARTCHAR uni00FD
ENCODING 253
SWIDTH 602 0
DWIDTH 10 0
BBX 8 16 1 -3
BITMAP
06
0C
18
00
C3
C7
66
66
7E
3C
3C
38
18
38
F0
F0
ENDCHAR
STARTCHAR uni00FE
ENCODING 254
SWIDTH 602 0
DWIDTH 10 0
BBX 8 15 1 -3
BITMAP
C0
C0
C0
DC
FE
E7
E3
C3
E3
E7
FE
DC
C0
C0
C0
ENDCHAR
STARTCHAR uni00FF
ENCODING 255
SWIDTH 602 0
DWIDTH 10 0
BBX 8 15 1 -3
BITMAP
64
64
00
C3
C7
66
66
7E
3C
3C
38
18
38
F0
F0
ENDCHAR
STARTCHAR uni0100
ENCODING 256
SWIDTH 602 0
DWIDTH 10 0
BBX 9 15 0 0
BITMAP
3E00
3E00
0000
1C00
1E00
1E00
3E00
3600
3300
3300
7F00
7F00
6380
6180
E180
ENDCHAR
STARTCHAR uni0101
ENCODING 257
SWIDTH 602 0
DWIDTH 10 0
BBX 8 12 1 0
BITMAP
7C
7C
00
7C
7E
87
7F
FF
C7
C7
FF
7B
ENDCHAR
STARTCHAR uni0102
ENCODING 258
SWIDTH 602 0
DWIDTH 10 0
BBX 9 15 0 0
BITMAP
3200
1E00
0000
1C00
1E00
1E00
3E00
3600
3300
3300
7F00
7F00
6380
6180
E180
ENDCHAR
STARTCHAR uni0103
ENCODING 259
SWIDTH 602 0
DWIDTH 10 0
BBX 8 12 1 0
BITMAP
7C
00
00
7C
7E
87
7F
FF
C7
C7
FF
7B
ENDCHAR
STARTCHAR uni0104
ENCODING 260
SWIDTH 602 0
DWIDTH 10 0
BBX 10 15 0 -3
BITMAP
1C00
1E00
1E00
3E00
3600
3300
3300
7F00
7F00
6380
6180
E180
0100
0300
01C0
ENDCHAR
STARTCHAR uni0105
ENCODING 261
SWIDTH 602 0
DWIDTH 10 0
BBX 8 12 1 -3
BITMAP
7C
7E
87
7F
FF
C7
C7
FF
7B
06
04
07
ENDCHAR
STARTCHAR uni0106
ENCODING 262
SWIDTH 602 0
DWIDTH 10 0
BBX 7 15 1 0
BITMAP
06
0C
00
1E
7E
62
E0
E0
E0
E0
E0
E0
62
7E
1E
ENDCHAR
STARTCHAR uni0107
ENCODING 263
SWIDTH 602 0
DWIDTH 10 0
BBX 8 14 1 0
BITMAP
03
06
0C
18
00
3E
7E
61
E0
E0
E0
61
7E
3E
ENDCHAR
STARTCHAR uni0108
ENCODING 264
SWIDTH 602 0
DWIDTH 10 0
BBX 7 15 1 0
BITMAP
1C
36
40
1E
7E
62
E0
E0
E0
E0
E0
E0
62
7E
1E
ENDCHAR
STARTCHAR uni0109
ENCODING 265
SWIDTH 602 0
DWIDTH 10 0
BBX 7 12 1 0
BITMAP
1C
66
00
3E
7E
E2
E0
C0
E0
E2
7E
3E
ENDCHAR
STARTCHAR uni010A
ENCODING 266
SWIDTH 602 0
DWIDTH 10 0
BBX 7 15 1 0
BITMAP
1C
1C
00
1E
7E
62
E0
E0
E0
E0
E0
E0
62
7E
1E
ENDCHAR
STARTCHAR uni010B
ENCODING 267
SWIDTH 602 0
DWIDTH 10 0
BBX 7 12 1 0
BITMAP
18
18
00
3E
7E
62
E0
E0
E0
62
7E
3E
ENDCHAR
STARTCHAR uni010C
ENCODING 268
SWIDTH 602 0
DWIDTH 10 0
BBX 8 15 1 0
BITMAP
33
1E
00
1E
7E
61
E0
E0
E0
E0
E0
E0
72
7E
1E
ENDCHAR
STARTCHAR uni010D
ENCODING 269
SWIDTH 602 0
DWIDTH 10 0
BBX 8 14 1 0
BITMAP
23
36
1C
0C
00
3E
7E
61
E0
E0
E0
61
7E
3E
ENDCHAR
STARTCHAR uni010E
ENCODING 270
SWIDTH 602 0
DWIDTH 10 0
BBX 8 15 1 0
BITMAP
66
38
00
F8
FE
C6
C7
C7
C3
C3
C7
C7
CE
FE
F8
ENDCHAR
STARTCHAR uni010F
ENCODING 271
SWIDTH 602 0
DWIDTH 10 0
BBX 10 12 1 0
BITMAP
06C0
06C0
0680
7600
FE00
C600
C600
C600
C600
C600
FE00
7600
ENDCHAR
STARTCHAR uni0110
ENCODING 272
SWIDTH 602 0
DWIDTH 10 0
BBX 9 12 0 0
BITMAP
7C00
7F00
6300
6380
6380
F980
F980
6380
6380
6300
7F00
7C00
ENDCHAR
STARTCHAR uni0111
ENCODING 273
SWIDTH 602 0
DWIDTH 10 0
BBX 9 12 1 0
BITMAP
1F80
1F80
0600
7600
FE00
C600
C600
C600
C600
C600
FE00
7600
ENDCHAR
STARTCHAR uni0112
ENCODING 274
SWIDTH 602 0
DWIDTH 10 0
BBX 8 15 1 0
BITMAP
3E
3E
00
FF
FF
E0
E0
E0
FE
FE
E0
E0
E0
FF
FF
ENDCHAR
STARTCHAR uni0113
ENCODING 275
SWIDTH 602 0
DWIDTH 10 0
BBX 8 12 1 0
BITMAP
3E
3E
00
3C
7E
C7
FF
FF
C0
C1
FF
3E
ENDCHAR
STARTCHAR uni0114
ENCODING 276
SWIDTH 602 0
DWIDTH 10 0
BBX 8 15 1 0
BITMAP
22
3C
00
FF
FF
E0
E0
E0
FE
FE
E0
E0
E0
FF
FF
ENDCHAR
STARTCHAR uni0115
ENCODING 277
SWIDTH 602 0
DWIDTH 10 0
BBX 8 12 1 0
BITMAP
7C
00
00
3C
7E
C7
FF
FF
C0
C1
7F
3E
ENDCHAR
STARTCHAR uni0116
ENCODING 278
SWIDTH 602 0
DWIDTH 10 0
BBX 8 15 1 0
BITMAP
18
18
00
FF
FF
E0
E0
E0
FE
FE
E0
E0
E0
FF
FF
ENDCHAR
STARTCHAR uni0117
ENCODING 279
SWIDTH 602 0
DWIDTH 10 0
BBX 8 12 1 0
BITMAP
18
18
00
3C
7E
C7
FF
FF
C0
C1
FF
3E
ENDCHAR
STARTCHAR uni0118
ENCODING 280
SWIDTH 602 0
DWIDTH 10 0
BBX 8 15 1 -3
BITMAP
FF
FF
E0
E0
E0
FE
FE
E0
E0
E0
FF
FF
04
0C
07
ENDCHAR
STARTCHAR uni0119
ENCODING 281
SWIDTH 602 0
DWIDTH 10 0
BBX 8 12 1 -3
BITMAP
3C
7E
C7
FF
FF
C0
C1
FF
3E
04
0C
07
ENDCHAR
STARTCHAR uni011A
ENCODING 282
SWIDTH 602 0
DWIDTH 10 0
BBX 8 15 1 0
BITMAP
66
3C
00
FF
FF
E0
E0
E0
FE
FE
E0
E0
E0
FF
FF
ENDCHAR
STARTCHAR uni011B
ENCODING 283
SWIDTH 602 0
DWIDTH 10 0
BBX 8 14 1 0
BITMAP
46
24
38
18
00
3C
7E
C7
FF
FF
C0
C1
FF
3E
ENDCHAR
STARTCHAR uni011C
ENCODING 284
SWIDTH 602 0
DWIDTH 10 0
BBX 8 15 1 0
BITMAP
1C
36
40
3E
7E
61
E0
C0
CF
CF
C3
E3
63
7F
3E
ENDCHAR
STARTCHAR uni011D
ENCODING 285
SWIDTH 602 0
DWIDTH 10 0
BBX 8 17 1 -3
BITMAP
18
3C
24
62
00
7F
FF
E7
C7
C7
C7
E7
FF
7F
06
7E
7C
ENDCHAR
STARTCHAR uni011E
ENCODING 286
SWIDTH 602 0
DWIDTH 10 0
BBX 8 15 1 0
BITMAP
22
3C
00
3E
7E
61
E0
C0
CF
CF
C3
E3
63
7F
3E
ENDCHAR
STARTCHAR uni011F
ENCODING 287
SWIDTH 602 0
DWIDTH 10 0
BBX 8 15 1 -3
BITMAP
7C
00
00
7F
FF
E7
C7
C7
C7
E7
FF
7F
06
7E
7C
ENDCHAR
STARTCHAR uni0120
ENCODING 288
SWIDTH 602 0
DWIDTH 10 0
BBX 8 15 1 0
BITMAP
18
18
00
3E
7E
61
E0
C0
CF
CF
C3
E3
63
7F
3E
ENDCHAR
STARTCHAR uni0121
ENCODING 289
SWIDTH 602 0
DWIDTH 10 0
BBX 8 15 1 -3
BITMAP
18
18
00
7F
FF
E7
C7
C7
C7
E7
FF
7F
06
7E
7C
ENDCHAR
STARTCHAR uni0122
ENCODING 290
SWIDTH 602 0
DWIDTH 10 0
BBX 8 16 1 -4
BITMAP
3E
7E
61
E0
C0
C0
CF
CF
E3
63
7F
3E
00
00
0C
18
ENDCHAR
STARTCHAR uni0123
ENCODING 291
SWIDTH 602 0
DWIDTH 10 0
BBX 8 15 1 -3
BITMAP
08
18
00
7F
FF
E7
C7
C7
C7
E7
FF
7F
06
7E
7C
ENDCHAR
STARTCHAR uni0124
ENCODING 292
SWIDTH 602 0
DWIDTH 10 0
BBX 8 15 1 0
BITMAP
38
64
02
C7
C7
C7
C7
C7
FF
FF
C7
C7
C7
C7
C7
ENDCHAR
STARTCHAR uni0125
ENCODING 293
SWIDTH 602 0
DWIDTH 10 0
BBX 8 15 1 0
BITMAP
1C
36
01
E0
E0
E0
FC
FE
E6
E6
E6
E6
E6
E6
E6
ENDCHAR
STARTCHAR uni0126
ENCODING 294
SWIDTH 602 0
DWIDTH 10 0
BBX 10 12 0 0
BITMAP
6380
6380
FFC0
FFC0
6380
7F80
7F80
6380
6380
6380
6380
6380
ENDCHAR
STARTCHAR uni0127
ENCODING 295
SWIDTH 602 0
DWIDTH 10 0
BBX 8 12 0 0
BITMAP
FC
FC
70
7E
7F
73
73
73
73
73
73
73
ENDCHAR
STARTCHAR uni0128
ENCODING 296
SWIDTH 602 0
DWIDTH 10 0
BBX 7 15 1 0
BITMAP
36
4C
00
FE
FE
18
18
18
18
18
18
18
18
FE
FE
ENDCHAR
STARTCHAR uni0129
ENCODING 297
SWIDTH 602 0
DWIDTH 10 0
BBX 8 12 1 0
BITMAP
74
5C
00
F8
F8
38
38
38
38
38
1F
1F
ENDCHAR
STARTCHAR uni012A
ENCODING 298
SWIDTH 602 0
DWIDTH 10 0
BBX 7 15 1 0
BITMAP
7C
7C
00
FE
FE
18
18
18
18
18
18
18
18
FE
FE
ENDCHAR
STARTCHAR uni012B
ENCODING 299
SWIDTH 602 0
DWIDTH 10 0
BBX 8 12 1 0
BITMAP
7C
7C
00
F8
F8
38
38
38
38
38
1F
1F
ENDCHAR
STARTCHAR uni012C
ENCODING 300
SWIDTH 602 0
DWIDTH 10 0
BBX 7 15 1 0
BITMAP
64
3C
00
FE
FE
18
18
18
18
18
18
18
18
FE
FE
ENDCHAR
STARTCHAR uni012D
ENCODING 301
SWIDTH 602 0
DWIDTH 10 0
BBX 8 12 1 0
BITMAP
7C
00
00
F8
F8
38
38
38
38
38
1F
1F
ENDCHAR
STARTCHAR uni012E
ENCODING 302
SWIDTH 602 0
DWIDTH 10 0
BBX 7 15 1 -3
BITMAP
FE
FE
18
18
18
18
18
18
18
18
FE
FE
18
10
1C
ENDCHAR
STARTCHAR uni012F
ENCODING 303
SWIDTH 602 0
DWIDTH 10 0
BBX 8 16 1 -3
BITMAP
38
38
38
00
F8
F8
38
38
38
38
38
1F
1F
04
0C
07
ENDCHAR
STARTCHAR uni0130
ENCODING 304
SWIDTH 602 0
DWIDTH 10 0
BBX 7 15 1 0
BITMAP
18
18
00
FE
FE
18
18
18
18
18
18
18
18
FE
FE
ENDCHAR
STARTCHAR uni0131
ENCODING 305
SWIDTH 602 0
DWIDTH 10 0
BBX 8 9 1 0
BITMAP
F8
F8
38
38
38
38
38
1F
1F
ENDCHAR
STARTCHAR uni0132
ENCODING 306
SWIDTH 602 0
DWIDTH 10 0
BBX 8 12 1 0
BITMAP
C7
C7
C7
C7
C7
C7
C7
07
06
06
FC
F8
ENDCHAR
STARTCHAR uni0133
ENCODING 307
SWIDTH 602 0
DWIDTH 10 0
BBX 8 15 1 -3
BITMAP
C7
C7
C7
C7
C7
C7
C7
C7
C7
C7
C7
C7
07
3E
3C
ENDCHAR
STARTCHAR uni0134
ENCODING 308
SWIDTH 602 0
DWIDTH 10 0
BBX 9 15 1 0
BITMAP
0E00
1B00
0080
3E00
3E00
0600
0600
0600
0600
0600
0600
0600
8E00
FC00
F800
ENDCHAR
STARTCHAR uni0135
ENCODING 309
SWIDTH 602 0
DWIDTH 10 0
BBX 8 17 1 -3
BITMAP
0C
1C
36
23
00
7C
7C
0C
0C
0C
0C
0C
0C
0C
1C
FC
F8
ENDCHAR
STARTCHAR uni0136
ENCODING 310
SWIDTH 602 0
DWIDTH 10 0
BBX 9 16 1 -4
BITMAP
C700
C600
CE00
DC00
F800
F800
FC00
EC00
CE00
C600
C700
C380
0000
0000
1C00
1800
ENDCHAR
STARTCHAR uni0137
ENCODING 311
SWIDTH 602 0
DWIDTH 10 0
BBX 8 16 1 -4
BITMAP
E0
E0
E0
E7
EE
FC
F8
FC
EC
EE
E6
E3
00
00
1C
18
ENDCHAR
STARTCHAR uni0138
ENCODING 312
SWIDTH 602 0
DWIDTH 10 0
BBX 8 9 1 0
BITMAP
E7
EE
FC
F8
FC
EC
EE
E6
E3
ENDCHAR
STARTCHAR uni0139
ENCODING 313
SWIDTH 602 0
DWIDTH 10 0
BBX 7 15 2 0
BITMAP
18
30
00
C0
C0
C0
C0
C0
C0
C0
C0
C0
C0
FE
FE
ENDCHAR
STARTCHAR uni013A
ENCODING 314
SWIDTH 602 0
DWIDTH 10 0
BBX 8 15 1 0
BITMAP
0C
18
00
F0
F0
30
30
30
30
30
30
30
30
3F
1F
ENDCHAR
STARTCHAR uni013B
ENCODING 315
SWIDTH 602 0
DWIDTH 10 0
BBX 7 16 2 -4
BITMAP
C0
C0
C0
C0
C0
C0
C0
C0
C0
C0
FE
FE
00
00
38
30
ENDCHAR
STARTCHAR uni013C
ENCODING 316
SWIDTH 602 0
DWIDTH 10 0
BBX 8 16 1 -4
BITMAP
F0
F0
30
30
30
30
30
30
30
38
3F
1F
00
00
18
30
ENDCHAR
STARTCHAR uni013D
ENCODING 317
SWIDTH 602 0
DWIDTH 10 0
BBX 7 12 2 0
BITMAP
C6
CC
CC
C0
C0
C0
C0
C0
C0
C0
FE
FE
ENDCHAR
STARTCHAR uni013E
ENCODING 318
SWIDTH 602 0
DWIDTH 10 0
BBX 8 12 1 0
BITMAP
F3
F3
36
30
30
30
30
30
30
38
3F
1F
ENDCHAR
STARTCHAR uni013F
ENCODING 319
SWIDTH 602 0
DWIDTH 10 0
BBX 7 12 2 0
BITMAP
C0
C0
C0
C0
C0
DC
DC
C0
C0
C0
FE
FE
ENDCHAR
STARTCHAR uni0140
ENCODING 320
SWIDTH 602 0
DWIDTH 10 0
BBX 8 12 0 0
BITMAP
F8
F8
18
18
18
1B
1B
18
18
18
1F
0F
ENDCHAR
STARTCHAR uni0141
ENCODING 321
SWIDTH 602 0
DWIDTH 10 0
BBX 9 12 0 0
BITMAP
3000
3000
3000
3600
3C00
3800
7000
F000
B000
3000
3F80
3F80
ENDCHAR
STARTCHAR uni0142
ENCODING 322
SWIDTH 602 0
DWIDTH 10 0
BBX 9 12 0 0
BITMAP
7800
7800
1900
1B80
1E00
1C00
3800
F800
5800
1C00
0F80
0F80
ENDCHAR
STARTCHAR uni0143
ENCODING 323
SWIDTH 602 0
DWIDTH 10 0
BBX 8 15 1 0
BITMAP
0E
18
00
E3
E3
E3
F3
F3
D3
DB
CB
CF
CF
C7
C7
ENDCHAR
STARTCHAR uni0144
ENCODING 324
SWIDTH 602 0
DWIDTH 10 0
BBX 7 13 1 0
BITMAP
0E
08
10
00
DC
FE
E6
E6
E6
E6
E6
E6
E6
ENDCHAR
STARTCHAR uni0145
ENCODING 325
SWIDTH 602 0
DWIDTH 10 0
BBX 8 16 1 -4
BITMAP
E3
E3
E3
F3
F3
D3
DB
CB
CF
CF
C7
C7
00
00
18
30
ENDCHAR
STARTCHAR uni0146
ENCODING 326
SWIDTH 602 0
DWIDTH 10 0
BBX 7 13 1 -4
BITMAP
DC
FE
E6
E6
E6
E6
E6
E6
E6
00
00
18
30
ENDCHAR
STARTCHAR uni0147
ENCODING 327
SWIDTH 602 0
DWIDTH 10 0
BBX 8 15 1 0
BITMAP
66
3C
00
E3
E3
E3
F3
F3
D3
DB
CB
CF
CF
C7
C7
ENDCHAR
STARTCHAR uni0148
ENCODING 328
SWIDTH 602 0
DWIDTH 10 0
BBX 7 13 1 0
BITMAP
66
3C
18
00
DC
FE
E6
E6
E6
E6
E6
E6
E6
ENDCHAR
STARTCHAR uni0149
ENCODING 329
SWIDTH 602 0
DWIDTH 10 0
BBX 10 12 0 0
BITMAP
E000
E000
E000
DB80
DF80
19C0
19C0
19C0
19C0
19C0
19C0
19C0
ENDCHAR
STARTCHAR uni014A
ENCODING 330
SWIDTH 602 0
DWIDTH 10 0
BBX 8 15 1 -3
BITMAP
DC
FE
E7
C7
C7
C7
C7
C7
C7
C7
C7
C7
07
0E
0E
ENDCHAR
STARTCHAR uni014B
ENCODING 331
SWIDTH 602 0
DWIDTH 10 0
BBX 7 12 1 -3
BITMAP
DC
FE
E6
E6
E6
E6
E6
E6
E6
06
1E
1C
ENDCHAR
STARTCHAR uni014C
ENCODING 332
SWIDTH 602 0
DWIDTH 10 0
BBX 8 15 1 0
BITMAP
7C
7C
00
3C
7E
E6
C7
C7
C3
C3
C7
C7
E6
7E
3C
ENDCHAR
STARTCHAR uni014D
ENCODING 333
SWIDTH 602 0
DWIDTH 10 0
BBX 8 12 1 0
BITMAP
7C
7C
00
3C
7E
E7
C7
C3
C7
E7
7E
3C
ENDCHAR
STARTCHAR uni014E
ENCODING 334
SWIDTH 602 0
DWIDTH 10 0
BBX 8 15 1 0
BITMAP
64
3C
00
3C
7E
E6
C7
C7
C3
C3
C7
C7
E6
7E
3C
ENDCHAR
STARTCHAR uni014F
ENCODING 335
SWIDTH 602 0
DWIDTH 10 0
BBX 8 12 1 0
BITMAP
7C
00
00
3C
7E
E7
C7
C3
C7
E7
7E
3C
ENDCHAR
STARTCHAR uni0150
ENCODING 336
SWIDTH 602 0
DWIDTH 10 0
BBX 8 15 1 0
BITMAP
3F
6C
00
3C
7E
E6
C7
C7
C3
C3
C7
C7
E6
7E
3C
ENDCHAR
STARTCHAR uni0151
ENCODING 337
SWIDTH 602 0
DWIDTH 10 0
BBX 8 13 1 0
BITMAP
1E
34
6C
00
3C
7E
E7
C7
C3
C7
E7
7E
3C
ENDCHAR
STARTCHAR uni0152
ENCODING 338
SWIDTH 602 0
DWIDTH 10 0
BBX 9 12 1 0
BITMAP
7F00
FF00
CC00
CC00
CC00
CF00
CF00
CC00
CC00
CC00
FF80
7F80
ENDCHAR
STARTCHAR uni0153
ENCODING 339
SWIDTH 602 0
DWIDTH 10 0
BBX 9 9 0 0
BITMAP
7F80
7F80
CC80
CF80
CF80
CC00
CC80
7F80
7380
ENDCHAR
STARTCHAR uni0154
ENCODING 340
SWIDTH 602 0
DWIDTH 10 0
BBX 9 15 1 0
BITMAP
0C00
1800
0000
FC00
FE00
C700
C700
C600
FE00
FC00
CE00
C600
C600
C700
C380
ENDCHAR
STARTCHAR uni0155
ENCODING 341
SWIDTH 602 0
DWIDTH 10 0
BBX 7 13 2 0
BITMAP
0E
0C
18
00
DE
FE
E2
E0
E0
E0
E0
E0
E0
ENDCHAR
STARTCHAR uni0156
ENCODING 342
SWIDTH 602 0
DWIDTH 10 0
BBX 9 16 1 -4
BITMAP
FC00
FE00
C600
C700
C700
C600
FE00
FC00
CE00
C600
C700
C380
0000
0000
1C00
1800
ENDCHAR
STARTCHAR uni0157
ENCODING 343
SWIDTH 602 0
DWIDTH 10 0
BBX 7 13 2 -4
BITMAP
DE
FE
E2
E0
E0
E0
E0
E0
E0
00
00
60
C0
ENDCHAR
STARTCHAR uni0158
ENCODING 344
SWIDTH 602 0
DWIDTH 10 0
BBX 9 15 1 0
BITMAP
6600
3800
0000
FC00
FE00
C700
C700
C600
FE00
FC00
CE00
C600
C600
C700
C380
ENDCHAR
STARTCHAR uni0159
ENCODING 345
SWIDTH 602 0
DWIDTH 10 0
BBX 7 13 2 0
BITMAP
66
38
18
00
DE
FE
E2
E0
E0
E0
E0
E0
E0
ENDCHAR
STARTCHAR uni015A
ENCODING 346
SWIDTH 602 0
DWIDTH 10 0
BBX 8 15 1 0
BITMAP
0E
18
00
3E
7E
C2
C0
F0
7C
3E
07
07
87
FE
7C
ENDCHAR
STARTCHAR uni015B
ENCODING 347
SWIDTH 602 0
DWIDTH 10 0
BBX 7 14 1 0
BITMAP
06
0C
18
10
00
3E
7E
E2
70
7C
06
86
FE
7C
ENDCHAR
STARTCHAR uni015C
ENCODING 348
SWIDTH 602 0
DWIDTH 10 0
BBX 8 15 1 0
BITMAP
38
6C
02
3E
7E
C2
C0
F0
7C
3E
07
07
87
FE
7C
ENDCHAR
STARTCHAR uni015D
ENCODING 349
SWIDTH 602 0
DWIDTH 10 0
BBX 7 12 1 0
BITMAP
38
66
00
3E
7E
E2
70
7E
06
86
FE
7C
ENDCHAR
STARTCHAR uni015E
ENCODING 350
SWIDTH 602 0
DWIDTH 10 0
BBX 8 15 1 -3
BITMAP
3E
7E
C2
C0
F0
7C
3E
07
07
87
FE
7C
08
08
38
ENDCHAR
STARTCHAR uni015F
ENCODING 351
SWIDTH 602 0
DWIDTH 10 0
BBX 7 12 1 -3
BITMAP
3E
7E
E2
70
7C
06
86
FE
7C
08
08
38
ENDCHAR
STARTCHAR uni0160
ENCODING 352
SWIDTH 602 0
DWIDTH 10 0
BBX 8 15 1 0
BITMAP
66
3C
00
3E
7E
C2
C0
F0
7C
3E
07
07
87
FE
7C
ENDCHAR
STARTCHAR uni0161
ENCODING 353
SWIDTH 602 0
DWIDTH 10 0
BBX 7 14 1 0
BITMAP
46
24
38
18
00
3E
7E
E2
F0
7C
0E
06
FE
7C
ENDCHAR
STARTCHAR uni0162
ENCODING 354
SWIDTH 602 0
DWIDTH 10 0
BBX 8 15 1 -3
BITMAP
FF
FF
18
18
18
18
18
18
18
18
18
18
08
08
38
ENDCHAR
STARTCHAR uni0163
ENCODING 355
SWIDTH 602 0
DWIDTH 10 0
BBX 7 15 1 -3
BITMAP
30
30
30
FE
FE
30
30
30
30
30
3E
1E
04
02
1C
ENDCHAR
STARTCHAR uni0164
ENCODING 356
SWIDTH 602 0
DWIDTH 10 0
BBX 8 15 1 0
BITMAP
66
38
00
FF
FF
18
18
18
18
18
18
18
18
18
18
ENDCHAR
STARTCHAR uni0165
ENCODING 357
SWIDTH 602 0
DWIDTH 10 0
BBX 8 13 1 0
BITMAP
03
13
32
30
FE
FE
30
30
30
30
30
3E
1E
ENDCHAR
STARTCHAR uni0166
ENCODING 358
SWIDTH 602 0
DWIDTH 10 0
BBX 8 12 1 0
BITMAP
FF
FF
18
18
18
18
7E
7E
18
18
18
18
ENDCHAR
STARTCHAR uni0167
ENCODING 359
SWIDTH 602 0
DWIDTH 10 0
BBX 7 12 1 0
BITMAP
30
30
30
FE
FE
30
7C
7C
30
30
3E
1E
ENDCHAR
STARTCHAR uni0168
ENCODING 360
SWIDTH 602 0
DWIDTH 10 0
BBX 8 15 1 0
BITMAP
36
4C
00
C7
C7
C7
C7
C7
C7
C7
C7
C7
E7
FE
3C
ENDCHAR
STARTCHAR uni0169
ENCODING 361
SWIDTH 602 0
DWIDTH 10 0
BBX 7 12 1 0
BITMAP
36
4C
00
E6
E6
E6
E6
E6
E6
E6
7E
76
ENDCHAR
STARTCHAR uni016A
ENCODING 362
SWIDTH 602 0
DWIDTH 10 0
BBX 8 15 1 0
BITMAP
7C
7C
00
C7
C7
C7
C7
C7
C7
C7
C7
C7
E7
FE
3C
ENDCHAR
STARTCHAR uni016B
ENCODING 363
SWIDTH 602 0
DWIDTH 10 0
BBX 7 12 1 0
BITMAP
7C
7C
00
E6
E6
E6
E6
E6
E6
E6
7E
76
ENDCHAR
STARTCHAR uni016C
ENCODING 364
SWIDTH 602 0
DWIDTH 10 0
BBX 8 15 1 0
BITMAP
64
3C
00
C7
C7
C7
C7
C7
C7
C7
C7
C7
C7
FE
3C
ENDCHAR
STARTCHAR uni016D
ENCODING 365
SWIDTH 602 0
DWIDTH 10 0
BBX 7 12 1 0
BITMAP
7C
00
00
E6
E6
E6
E6
E6
E6
E6
7E
76
ENDCHAR
STARTCHAR uni016E
ENCODING 366
SWIDTH 602 0
DWIDTH 10 0
BBX 8 15 1 0
BITMAP
38
24
24
FF
DF
C7
C7
C7
C7
C7
C7
C7
E7
FE
3C
ENDCHAR
STARTCHAR uni016F
ENCODING 367
SWIDTH 602 0
DWIDTH 10 0
BBX 7 14 1 0
BITMAP
38
24
24
38
00
E6
E6
E6
E6
E6
E6
E6
7E
76
ENDCHAR
STARTCHAR uni0170
ENCODING 368
SWIDTH 602 0
DWIDTH 10 0
BBX 8 15 1 0
BITMAP
3F
6C
00
C7
C7
C7
C7
C7
C7
C7
C7
C7
E7
FE
3C
ENDCHAR
STARTCHAR uni0171
ENCODING 369
SWIDTH 602 0
DWIDTH 10 0
BBX 7 13 1 0
BITMAP
1E
34
6C
00
E6
E6
E6
E6
E6
E6
E6
7E
76
ENDCHAR
STARTCHAR uni0172
ENCODING 370
SWIDTH 602 0
DWIDTH 10 0
BBX 8 15 1 -3
BITMAP
C7
C7
C7
C7
C7
C7
C7
C7
C7
E7
FE
7C
10
30
1C
ENDCHAR
STARTCHAR uni0173
ENCODING 371
SWIDTH 602 0
DWIDTH 10 0
BBX 9 12 1 -3
BITMAP
E600
E600
E600
E600
E600
E600
E600
7E00
7600
0200
0600
0380
ENDCHAR
STARTCHAR uni0174
ENCODING 372
SWIDTH 602 0
DWIDTH 10 0
BBX 10 15 0 0
BITMAP
1C00
3200
0100
C0C0
C180
C180
CD80
4D80
7D80
7D80
7780
7780
7380
7300
7300
ENDCHAR
STARTCHAR uni0175
ENCODING 373
SWIDTH 602 0
DWIDTH 10 0
BBX 10 13 0 0
BITMAP
0C00
1E00
3300
0000
C0C0
C080
CD80
4D80
7D80
7D80
7700
7300
3300
ENDCHAR
STARTCHAR uni0176
ENCODING 374
SWIDTH 602 0
DWIDTH 10 0
BBX 10 15 0 0
BITMAP
1C00
3200
0100
E1C0
6380
7300
3700
3E00
1E00
1C00
0C00
0C00
0C00
0C00
0C00
ENDCHAR
STARTCHAR uni0177
ENCODING 375
SWIDTH 602 0
DWIDTH 10 0
BBX 8 16 1 -3
BITMAP
18
2C
46
00
C3
C7
66
66
7E
3C
3C
38
18
38
F0
E0
ENDCHAR
STARTCHAR uni0178
ENCODING 376
SWIDTH 602 0
DWIDTH 10 0
BBX 10 15 0 0
BITMAP
3600
3600
0000
E1C0
6380
7300
3700
3E00
1E00
1C00
0C00
0C00
0C00
0C00
0C00
ENDCHAR
STARTCHAR uni0179
ENCODING 377
SWIDTH 602 0
DWIDTH 10 0
BBX 8 15 1 0
BITMAP
0E
18
00
FF
FF
06
0E
1C
1C
38
30
70
E0
FF
FF
ENDCHAR
STARTCHAR uni017A
ENCODING 378
SWIDTH 602 0
DWIDTH 10 0
BBX 7 13 1 0
BITMAP
0E
0C
18
00
FE
FE
0E
1C
18
30
70
FE
FE
ENDCHAR
STARTCHAR uni017B
ENCODING 379
SWIDTH 602 0
DWIDTH 10 0
BBX 8 15 1 0
BITMAP
18
18
00
FF
FF
06
0E
1C
1C
38
30
70
E0
FF
FF
ENDCHAR
STARTCHAR uni017C
ENCODING 380
SWIDTH 602 0
DWIDTH 10 0
BBX 7 12 1 0
BITMAP
18
18
00
FE
FE
0E
1C
18
30
60
FE
FE
ENDCHAR
STARTCHAR uni017D
ENCODING 381
SWIDTH 602 0
DWIDTH 10 0
BBX 8 15 1 0
BITMAP
66
3C
00
FF
FF
06
0E
1C
1C
38
30
70
E0
FF
FF
ENDCHAR
STARTCHAR uni017E
ENCODING 382
SWIDTH 602 0
DWIDTH 10 0
BBX 7 13 1 0
BITMAP
66
3C
18
00
FE
FE
0E
1C
18
30
60
FE
FE
ENDCHAR
STARTCHAR uni017F
ENCODING 383
SWIDTH 602 0
DWIDTH 10 0
BBX 8 14 1 -2
BITMAP
1F
1F
18
F8
F8
18
18
18
18
18
18
18
18
18
ENDCHAR
STARTCHAR uni0192
ENCODING 402
SWIDTH 602 0
DWIDTH 10 0
BBX 9 15 0 -3
BITMAP
0780
0780
0C00
0C00
0C00
3F00
3F00
0C00
1800
1800
1800
1800
1800
F800
F000
ENDCHAR
STARTCHAR uni01A0
ENCODING 416
SWIDTH 602 0
DWIDTH 10 0
BBX 10 12 0 0
BITMAP
3CC0
7EC0
6780
E300
C300
C300
C300
C300
E300
6700
7E00
3C00
ENDCHAR
STARTCHAR uni01A1
ENCODING 417
SWIDTH 602 0
DWIDTH 10 0
BBX 10 9 0 0
BITMAP
3C80
7EC0
E780
C300
C300
C300
E700
7E00
3C00
ENDCHAR
STARTCHAR uni01A4
ENCODING 420
SWIDTH 602 0
DWIDTH 10 0
BBX 10 12 0 0
BITMAP
7F00
FF80
B180
B1C0
31C0
3180
3F80
3E00
3000
3000
3000
3000
ENDCHAR
STARTCHAR uni01AF
ENCODING 431
SWIDTH 602 0
DWIDTH 10 0
BBX 10 12 0 0
BITMAP
C3C0
C3C0
C380
C300
C300
C300
C300
C300
C300
E700
7E00
3C00
ENDCHAR
STARTCHAR uni01B0
ENCODING 432
SWIDTH 602 0
DWIDTH 10 0
BBX 10 9 0 0
BITMAP
C680
C6C0
C780
C600
C600
C600
C600
FE00
7600
ENDCHAR
STARTCHAR uni01E6
ENCODING 486
SWIDTH 602 0
DWIDTH 10 0
BBX 8 15 1 0
BITMAP
33
1C
00
3E
7E
61
E0
C0
CF
CF
C3
E3
63
7F
3E
ENDCHAR
STARTCHAR uni01E7
ENCODING 487
SWIDTH 602 0
DWIDTH 10 0
BBX 8 17 1 -3
BITMAP
46
6C
38
18
00
7F
FF
E7
C7
C7
C7
E7
FF
7F
06
7E
7C
ENDCHAR
STARTCHAR uni01FE
ENCODING 510
SWIDTH 602 0
DWIDTH 10 0
BBX 10 15 0 0
BITMAP
0600
0C00
0000
1EC0
3F80
7300
6780
6780
6D80
7980
7B80
7380
7300
7F00
DE00
ENDCHAR
STARTCHAR uni01FF
ENCODING 511
SWIDTH 602 0
DWIDTH 10 0
BBX 9 15 0 -1
BITMAP
0300
0600
0C00
0800
0080
1F80
3F00
7380
6780
6D80
7980
7380
7F00
DE00
4000
ENDCHAR
STARTCHAR uni0218
ENCODING 536
SWIDTH 602 0
DWIDTH 10 0
BBX 8 16 1 -4
BITMAP
3E
7E
C2
C0
F0
7C
3E
07
07
87
FE
7C
00
00
38
30
ENDCHAR
STARTCHAR uni0219
ENCODING 537
SWIDTH 602 0
DWIDTH 10 0
BBX 7 13 1 -4
BITMAP
3E
7E
E2
70
7C
06
86
FE
7C
00
00
38
30
ENDCHAR
STARTCHAR uni021A
ENCODING 538
SWIDTH 602 0
DWIDTH 10 0
BBX 8 15 1 -3
BITMAP
FF
FF
18
18
18
18
18
18
18
18
18
18
08
08
38
ENDCHAR
STARTCHAR uni021B
ENCODING 539
SWIDTH 602 0
DWIDTH 10 0
BBX 7 15 1 -3
BITMAP
30
30
30
FE
FE
30
30
30
30
30
3E
1E
04
02
1C
ENDCHAR
STARTCHAR uni02B9
ENCODING 697
SWIDTH 602 0
DWIDTH 10 0
BBX 2 4 4 9
BITMAP
C0
C0
C0
80
ENDCHAR
STARTCHAR uni02BB
ENCODING 699
SWIDTH 602 0
DWIDTH 10 0
BBX 4 5 3 7
BITMAP
30
60
60
E0
E0
ENDCHAR
STARTCHAR uni02BC
ENCODING 700
SWIDTH 602 0
DWIDTH 10 0
BBX 4 5 3 7
BITMAP
70
70
60
60
C0
ENDCHAR
STARTCHAR uni02BD
ENCODING 701
SWIDTH 602 0
DWIDTH 10 0
BBX 2 4 4 10
BITMAP
C0
C0
80
C0
ENDCHAR
STARTCHAR uni02BE
ENCODING 702
SWIDTH 602 0
DWIDTH 10 0
BBX 2 4 4 8
BITMAP
80
40
40
80
ENDCHAR
STARTCHAR uni02BF
ENCODING 703
SWIDTH 602 0
DWIDTH 10 0
BBX 2 4 4 8
BITMAP
C0
80
80
C0
ENDCHAR
STARTCHAR uni02C0
ENCODING 704
SWIDTH 602 0
DWIDTH 10 0
BBX 4 7 3 5
BITMAP
E0
B0
30
30
E0
C0
C0
ENDCHAR
STARTCHAR uni02C1
ENCODING 705
SWIDTH 602 0
DWIDTH 10 0
BBX 4 7 3 5
BITMAP
70
D0
80
C0
E0
20
20
ENDCHAR
STARTCHAR uni02C6
ENCODING 710
SWIDTH 602 0
DWIDTH 10 0
BBX 6 3 2 10
BITMAP
30
78
CC
ENDCHAR
STARTCHAR uni02C7
ENCODING 711
SWIDTH 602 0
DWIDTH 10 0
BBX 6 3 2 10
BITMAP
CC
78
30
ENDCHAR
STARTCHAR uni02C8
ENCODING 712
SWIDTH 602 0
DWIDTH 10 0
BBX 2 4 4 8
BITMAP
C0
C0
C0
C0
ENDCHAR
STARTCHAR uni02C9
ENCODING 713
SWIDTH 602 0
DWIDTH 10 0
BBX 5 2 2 11
BITMAP
F8
F8
ENDCHAR
STARTCHAR uni02CC
ENCODING 716
SWIDTH 602 0
DWIDTH 10 0
BBX 2 4 4 -1
BITMAP
C0
C0
C0
C0
ENDCHAR
STARTCHAR uni02CD
ENCODING 717
SWIDTH 602 0
DWIDTH 10 0
BBX 5 2 2 -3
BITMAP
F8
F8
ENDCHAR
STARTCHAR uni02CE
ENCODING 718
SWIDTH 602 0
DWIDTH 10 0
BBX 5 3 2 -5
BITMAP
E0
30
18
ENDCHAR
STARTCHAR uni02CF
ENCODING 719
SWIDTH 602 0
DWIDTH 10 0
BBX 4 3 3 -5
BITMAP
30
60
C0
ENDCHAR
STARTCHAR uni02D0
ENCODING 720
SWIDTH 602 0
DWIDTH 10 0
BBX 3 9 3 0
BITMAP
E0
60
40
00
00
00
40
60
E0
ENDCHAR
STARTCHAR uni02D1
ENCODING 721
SWIDTH 602 0
DWIDTH 10 0
BBX 3 3 3 6
BITMAP
E0
60
40
ENDCHAR
STARTCHAR uni02D8
ENCODING 728
SWIDTH 602 0
DWIDTH 10 0
BBX 5 3 2 10
BITMAP
88
C8
78
ENDCHAR
STARTCHAR uni02D9
ENCODING 729
SWIDTH 602 0
DWIDTH 10 0
BBX 2 2 4 11
BITMAP
C0
C0
ENDCHAR
STARTCHAR uni02DA
ENCODING 730
SWIDTH 602 0
DWIDTH 10 0
BBX 4 4 3 10
BITMAP
E0
90
90
E0
ENDCHAR
STARTCHAR uni02DB
ENCODING 731
SWIDTH 602 0
DWIDTH 10 0
BBX 4 3 3 -3
BITMAP
40
C0
70
ENDCHAR
STARTCHAR uni02DC
ENCODING 732
SWIDTH 602 0
DWIDTH 10 0
BBX 6 2 2 10
BITMAP
6C
98
ENDCHAR
STARTCHAR uni02DD
ENCODING 733
SWIDTH 602 0
DWIDTH 10 0
BBX 6 3 2 10
BITMAP
3C
68
D8
ENDCHAR
STARTCHAR uni0300
ENCODING 768
SWIDTH 0 0
DWIDTH 0 0
BBX 4 3 -8 10
BITMAP
C0
60
30
ENDCHAR
STARTCHAR uni0301
ENCODING 769
SWIDTH 0 0
DWIDTH 0 0
BBX 4 3 -6 10
BITMAP
30
60
C0
ENDCHAR
STARTCHAR uni0302
ENCODING 770
SWIDTH 0 0
DWIDTH 0 0
BBX 6 3 -8 10
BITMAP
30
78
CC
ENDCHAR
STARTCHAR uni0303
ENCODING 771
SWIDTH 0 0
DWIDTH 0 0
BBX 6 2 -8 10
BITMAP
64
DC
ENDCHAR
STARTCHAR uni0304
ENCODING 772
SWIDTH 0 0
DWIDTH 0 0
BBX 5 2 -7 11
BITMAP
F8
F8
ENDCHAR
STARTCHAR uni0305
ENCODING 773
SWIDTH 0 0
DWIDTH 0 0
BBX 10 2 -10 11
BITMAP
FFC0
FFC0
ENDCHAR
STARTCHAR uni0306
ENCODING 774
SWIDTH 0 0
DWIDTH 0 0
BBX 5 3 -7 10
BITMAP
88
98
F0
ENDCHAR
STARTCHAR uni0307
ENCODING 775
SWIDTH 0 0
DWIDTH 0 0
BBX 2 2 -6 11
BITMAP
C0
C0
ENDCHAR
STARTCHAR uni0308
ENCODING 776
SWIDTH 0 0
DWIDTH 0 0
BBX 5 2 -7 11
BITMAP
D8
D8
ENDCHAR
STARTCHAR uni0309
ENCODING 777
SWIDTH 0 0
DWIDTH 0 0
BBX 4 3 -7 11
BITMAP
F0
10
20
ENDCHAR
STARTCHAR uni030A
ENCODING 778
SWIDTH 0 0
DWIDTH 0 0
BBX 4 4 -7 10
BITMAP
70
90
90
70
ENDCHAR
STARTCHAR uni030B
ENCODING 779
SWIDTH 0 0
DWIDTH 0 0
BBX 6 3 -7 10
BITMAP
6C
D8
B0
ENDCHAR
STARTCHAR uni030C
ENCODING 780
SWIDTH 0 0
DWIDTH 0 0
BBX 6 3 -8 10
BITMAP
CC
78
30
ENDCHAR
STARTCHAR uni030D
ENCODING 781
SWIDTH 0 0
DWIDTH 0 0
BBX 2 3 -6 10
BITMAP
C0
C0
C0
ENDCHAR
STARTCHAR uni030E
ENCODING 782
SWIDTH 0 0
DWIDTH 0 0
BBX 6 3 -8 10
BITMAP
C4
C4
C4
ENDCHAR
STARTCHAR uni030F
ENCODING 783
SWIDTH 0 0
DWIDTH 0 0
BBX 7 3 -9 10
BITMAP
F8
2C
36
ENDCHAR
STARTCHAR uni0310
ENCODING 784
SWIDTH 0 0
DWIDTH 0 0
BBX 5 4 -7 10
BITMAP
60
60
98
F0
ENDCHAR
STARTCHAR uni0311
ENCODING 785
SWIDTH 0 0
DWIDTH 0 0
BBX 5 2 -7 10
BITMAP
F0
98
ENDCHAR
STARTCHAR uni0312
ENCODING 786
SWIDTH 0 0
DWIDTH 0 0
BBX 3 2 -6 7
BITMAP
60
C0
ENDCHAR
STARTCHAR uni0313
ENCODING 787
SWIDTH 0 0
DWIDTH 0 0
BBX 2 4 -6 10
BITMAP
C0
C0
40
C0
ENDCHAR
STARTCHAR uni0314
ENCODING 788
SWIDTH 0 0
DWIDTH 0 0
BBX 2 4 -6 10
BITMAP
C0
C0
80
40
ENDCHAR
STARTCHAR uni0315
ENCODING 789
SWIDTH 0 0
DWIDTH 0 0
BBX 3 3 -6 10
BITMAP
60
C0
C0
ENDCHAR
STARTCHAR uni0316
ENCODING 790
SWIDTH 0 0
DWIDTH 0 0
BBX 4 3 -7 -5
BITMAP
E0
60
30
ENDCHAR
STARTCHAR uni0317
ENCODING 791
SWIDTH 0 0
DWIDTH 0 0
BBX 4 3 -7 -5
BITMAP
30
60
C0
ENDCHAR
STARTCHAR uni0318
ENCODING 792
SWIDTH 0 0
DWIDTH 0 0
BBX 3 4 -7 -6
BITMAP
20
E0
E0
20
ENDCHAR
STARTCHAR uni0319
ENCODING 793
SWIDTH 0 0
DWIDTH 0 0
BBX 3 4 -6 -6
BITMAP
C0
E0
E0
C0
ENDCHAR
STARTCHAR uni031A
ENCODING 794
SWIDTH 0 0
DWIDTH 0 0
BBX 4 5 -7 10
BITMAP
F0
F0
10
10
10
ENDCHAR
STARTCHAR uni031B
ENCODING 795
SWIDTH 0 0
DWIDTH 0 0
BBX 3 3 -6 6
BITMAP
60
E0
E0
ENDCHAR
STARTCHAR uni031C
ENCODING 796
SWIDTH 0 0
DWIDTH 0 0
BBX 2 3 -6 -4
BITMAP
40
80
40
ENDCHAR
STARTCHAR uni031D
ENCODING 797
SWIDTH 0 0
DWIDTH 0 0
BBX 4 3 -7 -5
BITMAP
60
F0
F0
ENDCHAR
STARTCHAR uni031E
ENCODING 798
SWIDTH 0 0
DWIDTH 0 0
BBX 4 3 -7 -6
BITMAP
F0
F0
60
ENDCHAR
STARTCHAR uni031F
ENCODING 799
SWIDTH 0 0
DWIDTH 0 0
BBX 4 4 -7 -6
BITMAP
20
F0
F0
20
ENDCHAR
STARTCHAR uni0320
ENCODING 800
SWIDTH 0 0
DWIDTH 0 0
BBX 4 2 -7 -3
BITMAP
F0
F0
ENDCHAR
STARTCHAR uni0321
ENCODING 801
SWIDTH 0 0
DWIDTH 0 0
BBX 4 5 -5 -3
BITMAP
70
70
70
E0
E0
ENDCHAR
STARTCHAR uni0322
ENCODING 802
SWIDTH 0 0
DWIDTH 0 0
BBX 4 5 -8 -3
BITMAP
C0
C0
C0
F0
70
ENDCHAR
STARTCHAR uni0323
ENCODING 803
SWIDTH 0 0
DWIDTH 0 0
BBX 2 2 -6 -4
BITMAP
C0
C0
ENDCHAR
STARTCHAR uni0324
ENCODING 804
SWIDTH 0 0
DWIDTH 0 0
BBX 5 2 -7 -4
BITMAP
D8
D8
ENDCHAR
STARTCHAR uni0325
ENCODING 805
SWIDTH 0 0
DWIDTH 0 0
BBX 4 3 -7 -4
BITMAP
60
D0
60
ENDCHAR
STARTCHAR uni0326
ENCODING 806
SWIDTH 0 0
DWIDTH 0 0
BBX 3 2 -7 -4
BITMAP
60
C0
ENDCHAR
STARTCHAR uni0327
ENCODING 807
SWIDTH 0 0
DWIDTH 0 0
BBX 4 3 -7 -3
BITMAP
20
30
F0
ENDCHAR
STARTCHAR uni0328
ENCODING 808
SWIDTH 0 0
DWIDTH 0 0
BBX 4 3 -7 -3
BITMAP
40
C0
70
ENDCHAR
STARTCHAR uni0329
ENCODING 809
SWIDTH 0 0
DWIDTH 0 0
BBX 2 3 -6 -5
BITMAP
C0
C0
C0
ENDCHAR
STARTCHAR uni032A
ENCODING 810
SWIDTH 0 0
DWIDTH 0 0
BBX 5 3 -7 -4
BITMAP
F8
F8
98
ENDCHAR
STARTCHAR uni032B
ENCODING 811
SWIDTH 0 0
DWIDTH 0 0
BBX 6 2 -8 -4
BITMAP
94
FC
ENDCHAR
STARTCHAR uni032C
ENCODING 812
SWIDTH 0 0
DWIDTH 0 0
BBX 6 3 -8 -4
BITMAP
CC
78
30
ENDCHAR
STARTCHAR uni032D
ENCODING 813
SWIDTH 0 0
DWIDTH 0 0
BBX 6 3 -8 -4
BITMAP
30
78
CC
ENDCHAR
STARTCHAR uni032E
ENCODING 814
SWIDTH 0 0
DWIDTH 0 0
BBX 5 3 -7 -4
BITMAP
88
98
F0
ENDCHAR
STARTCHAR uni032F
ENCODING 815
SWIDTH 0 0
DWIDTH 0 0
BBX 5 2 -7 -4
BITMAP
F0
88
ENDCHAR
STARTCHAR uni0330
ENCODING 816
SWIDTH 0 0
DWIDTH 0 0
BBX 6 2 -8 -4
BITMAP
64
DC
ENDCHAR
STARTCHAR uni0331
ENCODING 817
SWIDTH 0 0
DWIDTH 0 0
BBX 5 2 -7 -3
BITMAP
F8
F8
ENDCHAR
STARTCHAR uni0332
ENCODING 818
SWIDTH 0 0
DWIDTH 0 0
BBX 10 2 -10 -4
BITMAP
FFC0
FFC0
ENDCHAR
STARTCHAR uni0333
ENCODING 819
SWIDTH 0 0
DWIDTH 0 0
BBX 10 4 -10 -4
BITMAP
FFC0
FFC0
FFC0
FFC0
ENDCHAR
STARTCHAR uni0334
ENCODING 820
SWIDTH 0 0
DWIDTH 0 0
BBX 8 3 -9 4
BITMAP
71
FF
8F
ENDCHAR
STARTCHAR uni0335
ENCODING 821
SWIDTH 0 0
DWIDTH 0 0
BBX 6 2 -8 3
BITMAP
FC
FC
ENDCHAR
STARTCHAR uni0336
ENCODING 822
SWIDTH 0 0
DWIDTH 0 0
BBX 10 2 -10 3
BITMAP
FFC0
FFC0
ENDCHAR
STARTCHAR uni0337
ENCODING 823
SWIDTH 0 0
DWIDTH 0 0
BBX 9 11 -9 -1
BITMAP
0100
0180
0300
0600
0C00
1800
3000
3000
6000
C000
8000
ENDCHAR
STARTCHAR uni0338
ENCODING 824
SWIDTH 0 0
DWIDTH 0 0
BBX 10 13 -10 -1
BITMAP
00C0
0180
0180
0300
0600
0600
0C00
1800
1000
3000
6000
C000
4000
ENDCHAR
STARTCHAR uni0339
ENCODING 825
SWIDTH 0 0
DWIDTH 0 0
BBX 2 3 -6 -4
BITMAP
C0
40
C0
ENDCHAR
STARTCHAR uni033A
ENCODING 826
SWIDTH 0 0
DWIDTH 0 0
BBX 5 3 -7 -4
BITMAP
98
F8
F8
ENDCHAR
STARTCHAR uni033B
ENCODING 827
SWIDTH 0 0
DWIDTH 0 0
BBX 4 5 -7 -6
BITMAP
F0
F0
90
F0
F0
ENDCHAR
STARTCHAR uni033C
ENCODING 828
SWIDTH 0 0
DWIDTH 0 0
BBX 6 2 -8 -4
BITMAP
7C
B4
ENDCHAR
STARTCHAR uni033D
ENCODING 829
SWIDTH 0 0
DWIDTH 0 0
BBX 4 4 -7 9
BITMAP
F0
60
F0
50
ENDCHAR
STARTCHAR uni033E
ENCODING 830
SWIDTH 0 0
DWIDTH 0 0
BBX 2 4 -6 10
BITMAP
C0
80
40
C0
ENDCHAR
STARTCHAR uni033F
ENCODING 831
SWIDTH 0 0
DWIDTH 0 0
BBX 10 2 -10 8
BITMAP
FFC0
FFC0
ENDCHAR
STARTCHAR uni0358
ENCODING 856
SWIDTH 0 0
DWIDTH 0 0
BBX 2 2 -2 11
BITMAP
C0
C0
ENDCHAR
STARTCHAR uni0361
ENCODING 865
SWIDTH 0 0
DWIDTH 0 0
BBX 14 2 -12 12
BITMAP
3FF0
C00C
ENDCHAR
STARTCHAR uni0384
ENCODING 900
SWIDTH 602 0
DWIDTH 10 0
BBX 4 3 4 10
BITMAP
30
60
C0
ENDCHAR
STARTCHAR uni0385
ENCODING 901
SWIDTH 602 0
DWIDTH 10 0
BBX 7 5 1 10
BITMAP
06
0C
18
D6
C6
ENDCHAR
STARTCHAR uni0386
ENCODING 902
SWIDTH 602 0
DWIDTH 10 0
BBX 10 13 -1 0
BITMAP
3800
6E00
CF00
0F00
1F00
1B00
1980
1980
3F80
3F80
31C0
30C0
70C0
ENDCHAR
STARTCHAR uni0388
ENCODING 904
SWIDTH 602 0
DWIDTH 10 0
BBX 12 13 -3 0
BITMAP
3800
6FF0
CFF0
0E00
0E00
0E00
0FE0
0FE0
0E00
0E00
0E00
0FF0
0FF0
ENDCHAR
STARTCHAR uni0389
ENCODING 905
SWIDTH 602 0
DWIDTH 10 0
BBX 12 13 -3 0
BITMAP
3000
6C70
CC70
0C70
0C70
0C70
0FF0
0FF0
0C70
0C70
0C70
0C70
0C70
ENDCHAR
STARTCHAR uni038A
ENCODING 906
SWIDTH 602 0
DWIDTH 10 0
BBX 11 13 -3 0
BITMAP
3800
6FE0
CFE0
0180
0180
0180
0180
0180
0180
0180
0180
0FE0
0FE0
ENDCHAR
STARTCHAR uni038C
ENCODING 908
SWIDTH 602 0
DWIDTH 10 0
BBX 10 13 -1 0
BITMAP
7000
6F00
DF80
3980
31C0
31C0
30C0
30C0
31C0
31C0
3980
1F80
0F00
ENDCHAR
STARTCHAR uni038E
ENCODING 910
SWIDTH 602 0
DWIDTH 10 0
BBX 14 13 -4 0
BITMAP
3000
6E18
CF3C
0378
01E8
01C0
01C0
00C0
00C0
00C0
00C0
00C0
00C0
ENDCHAR
STARTCHAR uni038F
ENCODING 911
SWIDTH 602 0
DWIDTH 10 0
BBX 10 13 -1 0
BITMAP
3000
6F00
9F80
3980
31C0
31C0
31C0
31C0
31C0
3980
1980
3BC0
3BC0
ENDCHAR
STARTCHAR uni0390
ENCODING 912
SWIDTH 602 0
DWIDTH 10 0
BBX 7 15 1 0
BITMAP
06
0C
18
C6
C6
00
78
78
18
18
18
18
18
1E
0E
ENDCHAR
STARTCHAR uni0391
ENCODING 913
SWIDTH 602 0
DWIDTH 10 0
BBX 9 12 0 0
BITMAP
1C00
1E00
1E00
3E00
3600
3300
3300
7F00
7F00
6380
6180
E180
ENDCHAR
STARTCHAR uni0392
ENCODING 914
SWIDTH 602 0
DWIDTH 10 0
BBX 8 12 1 0
BITMAP
FC
FE
C7
C7
C6
FE
FE
C7
C3
C3
FF
FE
ENDCHAR
STARTCHAR uni0393
ENCODING 915
SWIDTH 602 0
DWIDTH 10 0
BBX 8 12 1 0
BITMAP
FF
FF
E0
E0
E0
E0
E0
E0
E0
E0
E0
E0
ENDCHAR
STARTCHAR uni0394
ENCODING 916
SWIDTH 602 0
DWIDTH 10 0
BBX 9 12 0 0
BITMAP
1C00
1E00
1E00
3E00
3600
3300
3300
7300
6300
6380
7F80
FF80
ENDCHAR
STARTCHAR uni0395
ENCODING 917
SWIDTH 602 0
DWIDTH 10 0
BBX 8 12 1 0
BITMAP
FF
FF
E0
E0
E0
FE
FE
E0
E0
E0
FF
FF
ENDCHAR
STARTCHAR uni0396
ENCODING 918
SWIDTH 602 0
DWIDTH 10 0
BBX 8 12 1 0
BITMAP
FF
FF
06
0E
1C
1C
38
30
70
E0
FF
FF
ENDCHAR
STARTCHAR uni0397
ENCODING 919
SWIDTH 602 0
DWIDTH 10 0
BBX 8 12 1 0
BITMAP
C7
C7
C7
C7
C7
FF
FF
C7
C7
C7
C7
C7
ENDCHAR
STARTCHAR uni0398
ENCODING 920
SWIDTH 602 0
DWIDTH 10 0
BBX 10 11 0 0
BITMAP
1E00
7F00
6180
E180
DD80
DDC0
C1C0
E180
6180
7F80
3E00
ENDCHAR
STARTCHAR uni0399
ENCODING 921
SWIDTH 602 0
DWIDTH 10 0
BBX 7 12 1 0
BITMAP
FE
FE
18
18
18
18
18
18
18
18
FE
FE
ENDCHAR
STARTCHAR uni039A
ENCODING 922
SWIDTH 602 0
DWIDTH 10 0
BBX 9 12 1 0
BITMAP
C700
C600
CE00
DC00
F800
F800
FC00
EC00
CE00
C600
C700
C380
ENDCHAR
STARTCHAR uni039B
ENCODING 923
SWIDTH 602 0
DWIDTH 10 0
BBX 9 12 0 0
BITMAP
1C00
1E00
1E00
3E00
3600
3300
3300
7300
6300
6380
6180
E180
ENDCHAR
STARTCHAR uni039C
ENCODING 924
SWIDTH 602 0
DWIDTH 10 0
BBX 8 12 1 0
BITMAP
E7
E7
E7
EF
FB
FB
DB
DB
C3
C3
C3
C3
ENDCHAR
STARTCHAR uni039D
ENCODING 925
SWIDTH 602 0
DWIDTH 10 0
BBX 8 12 1 0
BITMAP
E3
E3
E3
F3
F3
D3
DB
CB
CF
CF
C7
C7
ENDCHAR
STARTCHAR uni039E
ENCODING 926
SWIDTH 602 0
DWIDTH 10 0
BBX 8 12 1 0
BITMAP
FF
FF
00
00
00
3C
3C
00
00
00
FF
FF
ENDCHAR
STARTCHAR uni039F
ENCODING 927
SWIDTH 602 0
DWIDTH 10 0
BBX 8 12 1 0
BITMAP
3C
7E
E6
C7
C7
C3
C3
C7
C7
E6
7E
3C
ENDCHAR
STARTCHAR uni03A0
ENCODING 928
SWIDTH 602 0
DWIDTH 10 0
BBX 8 12 1 0
BITMAP
FF
FF
C7
C7
C7
C7
C7
C7
C7
C7
C7
C7
ENDCHAR
STARTCHAR uni03A1
ENCODING 929
SWIDTH 602 0
DWIDTH 10 0
BBX 8 12 1 0
BITMAP
FC
FE
E7
E3
E3
E7
FE
FC
E0
E0
E0
E0
ENDCHAR
STARTCHAR uni03A3
ENCODING 931
SWIDTH 602 0
DWIDTH 10 0
BBX 8 12 1 0
BITMAP
FF
FF
E0
70
30
18
1C
30
70
E0
FF
FF
ENDCHAR
STARTCHAR uni03A4
ENCODING 932
SWIDTH 602 0
DWIDTH 10 0
BBX 8 12 1 0
BITMAP
FF
FF
18
18
18
18
18
18
18
18
18
18
ENDCHAR
STARTCHAR uni03A5
ENCODING 933
SWIDTH 602 0
DWIDTH 10 0
BBX 9 12 0 0
BITMAP
E180
F380
3780
1E80
1C00
1C00
0C00
0C00
0C00
0C00
0C00
0C00
ENDCHAR
STARTCHAR uni03A6
ENCODING 934
SWIDTH 602 0
DWIDTH 10 0
BBX 8 12 1 0
BITMAP
3C
3C
18
7E
DF
DB
DB
DF
7E
38
3C
3C
ENDCHAR
STARTCHAR uni03A7
ENCODING 935
SWIDTH 602 0
DWIDTH 10 0
BBX 9 12 0 0
BITMAP
E180
7300
3300
3E00
1E00
1C00
1C00
1E00
3E00
3300
6380
E180
ENDCHAR
STARTCHAR uni03A8
ENCODING 936
SWIDTH 602 0
DWIDTH 10 0
BBX 8 12 1 0
BITMAP
DB
DB
DB
DB
DB
DF
FE
7E
3C
18
3C
3C
ENDCHAR
STARTCHAR uni03A9
ENCODING 937
SWIDTH 602 0
DWIDTH 10 0
BBX 8 12 1 0
BITMAP
3C
7E
E6
C7
C7
C7
C7
C7
E6
6E
EF
EF
ENDCHAR
STARTCHAR uni03AA
ENCODING 938
SWIDTH 602 0
DWIDTH 10 0
BBX 7 15 1 0
BITMAP
6C
6C
00
FE
FE
18
18
18
18
18
18
18
18
FE
FE
ENDCHAR
STARTCHAR uni03AB
ENCODING 939
SWIDTH 602 0
DWIDTH 10 0
BBX 9 15 0 0
BITMAP
3600
3600
0000
E180
F380
3780
1E80
1C00
1C00
0C00
0C00
0C00
0C00
0C00
0C00
ENDCHAR
STARTCHAR uni03AC
ENCODING 940
SWIDTH 602 0
DWIDTH 10 0
BBX 9 13 0 0
BITMAP
0300
0600
0C00
0000
3D80
7F80
6700
E700
E700
E700
6700
7F80
3D80
ENDCHAR
STARTCHAR uni03AD
ENCODING 941
SWIDTH 602 0
DWIDTH 10 0
BBX 7 13 1 0
BITMAP
0E
08
10
00
3E
7E
E0
78
78
E0
C0
FE
7E
ENDCHAR
STARTCHAR uni03AE
ENCODING 942
SWIDTH 602 0
DWIDTH 10 0
BBX 7 17 1 -3
BITMAP
06
0C
18
10
00
DC
FE
E6
E6
E6
E6
E6
E6
E6
06
06
06
ENDCHAR
STARTCHAR uni03AF
ENCODING 943
SWIDTH 602 0
DWIDTH 10 0
BBX 6 13 2 0
BITMAP
0C
18
30
00
F0
F0
30
30
30
30
30
3C
1C
ENDCHAR
STARTCHAR uni03B0
ENCODING 944
SWIDTH 602 0
DWIDTH 10 0
BBX 8 15 1 0
BITMAP
06
0C
18
C6
C6
00
E6
E3
63
63
63
63
67
7E
3C
ENDCHAR
STARTCHAR uni03B1
ENCODING 945
SWIDTH 602 0
DWIDTH 10 0
BBX 9 9 0 0
BITMAP
3D80
7F80
6700
E700
E700
E700
6700
7F80
3D80
ENDCHAR
STARTCHAR uni03B2
ENCODING 946
SWIDTH 602 0
DWIDTH 10 0
BBX 8 15 1 -3
BITMAP
7C
FE
C6
C6
CE
DC
DE
C7
C3
E7
FE
DE
C0
C0
C0
ENDCHAR
STARTCHAR uni03B3
ENCODING 947
SWIDTH 602 0
DWIDTH 10 0
BBX 8 12 1 -3
BITMAP
C3
E7
66
66
7E
3C
3C
38
18
18
18
18
ENDCHAR
STARTCHAR uni03B4
ENCODING 948
SWIDTH 602 0
DWIDTH 10 0
BBX 8 12 1 0
BITMAP
3E
7E
E0
70
7E
E6
C7
C3
C3
E7
7E
3C
ENDCHAR
STARTCHAR uni03B5
ENCODING 949
SWIDTH 602 0
DWIDTH 10 0
BBX 7 9 1 0
BITMAP
3E
7E
E0
78
78
E0
C0
FE
3E
ENDCHAR
STARTCHAR uni03B6
ENCODING 950
SWIDTH 602 0
DWIDTH 10 0
BBX 7 15 1 -3
BITMAP
FE
FE
1C
38
70
60
E0
E0
E0
60
7C
3E
02
06
06
ENDCHAR
STARTCHAR uni03B7
ENCODING 951
SWIDTH 602 0
DWIDTH 10 0
BBX 7 12 1 -3
BITMAP
DC
FE
E6
E6
E6
E6
E6
E6
E6
06
06
06
ENDCHAR
STARTCHAR uni03B8
ENCODING 952
SWIDTH 602 0
DWIDTH 10 0
BBX 8 12 1 0
BITMAP
3C
7E
E6
C7
C3
FF
FF
C7
C7
E6
7E
3C
ENDCHAR
STARTCHAR uni03B9
ENCODING 953
SWIDTH 602 0
DWIDTH 10 0
BBX 6 9 2 0
BITMAP
F0
F0
30
30
30
30
30
3C
1C
ENDCHAR
STARTCHAR uni03BA
ENCODING 954
SWIDTH 602 0
DWIDTH 10 0
BBX 8 9 1 0
BITMAP
E7
EE
FC
F8
FC
EC
EE
E6
E3
ENDCHAR
STARTCHAR uni03BB
ENCODING 955
SWIDTH 602 0
DWIDTH 10 0
BBX 8 12 1 0
BITMAP
E0
F0
38
18
18
3C
3C
7C
66
66
E7
C3
ENDCHAR
STARTCHAR uni03BC
ENCODING 956
SWIDTH 602 0
DWIDTH 10 0
BBX 8 12 1 -3
BITMAP
E6
E6
E6
E6
E6
E6
E6
FF
FB
E0
E0
E0
ENDCHAR
STARTCHAR uni03BD
ENCODING 957
SWIDTH 602 0
DWIDTH 10 0
BBX 9 9 0 0
BITMAP
E700
6380
6380
7380
3380
3700
3700
3E00
1C00
ENDCHAR
STARTCHAR uni03BE
ENCODING 958
SWIDTH 602 0
DWIDTH 10 0
BBX 7 15 1 -3
BITMAP
FE
FE
70
60
60
3C
7C
E0
C0
E0
7C
3E
02
06
04
ENDCHAR
STARTCHAR uni03BF
ENCODING 959
SWIDTH 602 0
DWIDTH 10 0
BBX 8 9 1 0
BITMAP
3C
7E
E7
C7
C3
C7
E7
7E
3C
ENDCHAR
STARTCHAR uni03C0
ENCODING 960
SWIDTH 602 0
DWIDTH 10 0
BBX 9 9 0 0
BITMAP
FF80
FF80
7300
7300
7300
7300
7300
7300
7380
ENDCHAR
STARTCHAR uni03C1
ENCODING 961
SWIDTH 602 0
DWIDTH 10 0
BBX 8 12 1 -3
BITMAP
3C
7E
E7
E3
C3
E3
E7
FE
DC
C0
C0
C0
ENDCHAR
STARTCHAR uni03C2
ENCODING 962
SWIDTH 602 0
DWIDTH 10 0
BBX 7 12 1 -3
BITMAP
3E
7E
62
E0
E0
E0
60
7C
3E
02
06
04
ENDCHAR
STARTCHAR uni03C3
ENCODING 963
SWIDTH 602 0
DWIDTH 10 0
BBX 8 9 1 0
BITMAP
3F
FF
CE
C7
C7
C7
C6
7E
3C
ENDCHAR
STARTCHAR uni03C4
ENCODING 964
SWIDTH 602 0
DWIDTH 10 0
BBX 8 9 1 0
BITMAP
FF
FF
18
18
18
18
18
1E
0E
ENDCHAR
STARTCHAR uni03C5
ENCODING 965
SWIDTH 602 0
DWIDTH 10 0
BBX 8 9 1 0
BITMAP
E6
E3
63
63
63
63
67
7E
3C
ENDCHAR
STARTCHAR uni03C6
ENCODING 966
SWIDTH 602 0
DWIDTH 10 0
BBX 8 12 1 -3
BITMAP
4E
DF
DB
DB
DB
DB
DF
FE
3C
18
18
18
ENDCHAR
STARTCHAR uni03C7
ENCODING 967
SWIDTH 602 0
DWIDTH 10 0
BBX 8 12 1 -3
BITMAP
C7
E6
6E
3C
3C
38
38
3C
7C
6E
E7
C3
ENDCHAR
STARTCHAR uni03C8
ENCODING 968
SWIDTH 602 0
DWIDTH 10 0
BBX 8 12 1 -3
BITMAP
DB
DB
DB
DB
DB
DB
DF
FE
3C
18
18
18
ENDCHAR
STARTCHAR uni03C9
ENCODING 969
SWIDTH 602 0
DWIDTH 10 0
BBX 8 9 1 0
BITMAP
C6
C3
C3
C3
DB
DB
DB
FF
6E
ENDCHAR
STARTCHAR uni03CA
ENCODING 970
SWIDTH 602 0
DWIDTH 10 0
BBX 6 12 2 0
BITMAP
D8
D8
00
F0
F0
30
30
30
30
30
3C
1C
ENDCHAR
STARTCHAR uni03CB
ENCODING 971
SWIDTH 602 0
DWIDTH 10 0
BBX 8 12 1 0
BITMAP
6C
6C
00
E6
E3
63
63
63
63
67
7E
3C
ENDCHAR
STARTCHAR uni03CC
ENCODING 972
SWIDTH 602 0
DWIDTH 10 0
BBX 8 14 1 0
BITMAP
06
0C
18
10
00
3C
7E
E7
C7
C3
C7
E7
7E
3C
ENDCHAR
STARTCHAR uni03CD
ENCODING 973
SWIDTH 602 0
DWIDTH 10 0
BBX 8 13 1 0
BITMAP
06
0C
18
00
E6
E3
63
63
63
63
67
7E
3C
ENDCHAR
STARTCHAR uni03CE
ENCODING 974
SWIDTH 602 0
DWIDTH 10 0
BBX 8 13 1 0
BITMAP
06
0C
18
00
C6
C3
C3
C3
DB
DB
DB
FF
6E
ENDCHAR
STARTCHAR uni03F4
ENCODING 1012
SWIDTH 602 0
DWIDTH 10 0
BBX 8 12 1 0
BITMAP
3C
7E
E6
C7
C7
FF
FF
C7
C7
E6
7E
3C
ENDCHAR
STARTCHAR uni0400
ENCODING 1024
SWIDTH 602 0
DWIDTH 10 0
BBX 8 15 1 0
BITMAP
70
30
08
FF
FF
E0
E0
E0
FE
FE
E0
E0
E0
FF
FF
ENDCHAR
STARTCHAR uni0401
ENCODING 1025
SWIDTH 602 0
DWIDTH 10 0
BBX 8 15 1 0
BITMAP
24
24
00
FF
FF
E0
E0
E0
FE
FE
E0
E0
E0
FF
FF
ENDCHAR
STARTCHAR uni0402
ENCODING 1026
SWIDTH 602 0
DWIDTH 10 0
BBX 9 16 0 -3
BITMAP
FE00
FE00
6000
6000
6000
6F00
7F80
7180
6180
6180
6180
6180
6180
0180
0F80
0F00
ENDCHAR
STARTCHAR uni0403
ENCODING 1027
SWIDTH 602 0
DWIDTH 10 0
BBX 8 15 1 0
BITMAP
0E
18
00
FF
FF
E0
E0
E0
E0
E0
E0
E0
E0
E0
E0
ENDCHAR
STARTCHAR uni0404
ENCODING 1028
SWIDTH 602 0
DWIDTH 10 0
BBX 7 12 1 0
BITMAP
3E
7E
62
E0
C0
FE
FE
C0
E0
62
7E
3E
ENDCHAR
STARTCHAR uni0405
ENCODING 1029
SWIDTH 602 0
DWIDTH 10 0
BBX 8 12 1 0
BITMAP
3E
7E
C2
C0
F0
7C
3E
07
07
87
FE
7C
ENDCHAR
STARTCHAR uni0406
ENCODING 1030
SWIDTH 602 0
DWIDTH 10 0
BBX 7 12 1 0
BITMAP
FE
FE
18
18
18
18
18
18
18
18
FE
FE
ENDCHAR
STARTCHAR uni0407
ENCODING 1031
SWIDTH 602 0
DWIDTH 10 0
BBX 7 15 1 0
BITMAP
6C
6C
00
FE
FE
18
18
18
18
18
18
18
18
FE
FE
ENDCHAR
STARTCHAR uni0408
ENCODING 1032
SWIDTH 602 0
DWIDTH 10 0
BBX 7 12 1 0
BITMAP
3E
3E
06
06
06
06
06
06
06
8E
FC
F8
ENDCHAR
STARTCHAR uni0409
ENCODING 1033
SWIDTH 602 0
DWIDTH 10 0
BBX 10 12 0 0
BITMAP
3E00
3E00
3600
3600
3600
3700
3780
36C0
26C0
66C0
E780
C700
ENDCHAR
STARTCHAR uni040A
ENCODING 1034
SWIDTH 602 0
DWIDTH 10 0
BBX 10 12 0 0
BITMAP
C600
C600
C600
C600
C600
FF00
FF80
C6C0
C6C0
C6C0
C780
C700
ENDCHAR
STARTCHAR uni040B
ENCODING 1035
SWIDTH 602 0
DWIDTH 10 0
BBX 9 12 0 0
BITMAP
FE00
FE00
7000
7000
7000
7F80
7F80
7180
7180
7180
7180
7180
ENDCHAR
STARTCHAR uni040C
ENCODING 1036
SWIDTH 602 0
DWIDTH 10 0
BBX 9 15 1 0
BITMAP
0E00
0800
1000
C700
C600
CC00
DC00
F800
F800
FC00
EC00
CE00
C600
C700
C380
ENDCHAR
STARTCHAR uni040D
ENCODING 1037
SWIDTH 602 0
DWIDTH 10 0
BBX 8 15 1 0
BITMAP
70
10
08
C7
C7
CF
CF
CB
DB
D3
F3
F3
E3
E3
E3
ENDCHAR
STARTCHAR uni040E
ENCODING 1038
SWIDTH 602 0
DWIDTH 10 0
BBX 10 15 0 0
BITMAP
2300
3200
1E00
E1C0
6180
3380
3300
1F00
1E00
0E00
0E00
0C00
1C00
3800
3800
ENDCHAR
STARTCHAR uni040F
ENCODING 1039
SWIDTH 602 0
DWIDTH 10 0
BBX 8 14 1 -2
BITMAP
C7
C7
C7
C7
C7
C7
C7
C7
C7
C7
FF
FF
18
18
ENDCHAR
STARTCHAR uni0410
ENCODING 1040
SWIDTH 602 0
DWIDTH 10 0
BBX 9 12 0 0
BITMAP
1C00
1E00
1E00
3E00
3600
3300
3300
7F00
7F00
6380
6180
E180
ENDCHAR
STARTCHAR uni0411
ENCODING 1041
SWIDTH 602 0
DWIDTH 10 0
BBX 8 12 1 0
BITMAP
FE
FE
E0
E0
E0
FC
FE
E7
E7
E7
FE
FC
ENDCHAR
STARTCHAR uni0412
ENCODING 1042
SWIDTH 602 0
DWIDTH 10 0
BBX 8 12 1 0
BITMAP
FC
FE
C7
C7
C6
FE
FE
C7
C3
C3
FF
FE
ENDCHAR
STARTCHAR uni0413
ENCODING 1043
SWIDTH 602 0
DWIDTH 10 0
BBX 8 12 1 0
BITMAP
FF
FF
E0
E0
E0
E0
E0
E0
E0
E0
E0
E0
ENDCHAR
STARTCHAR uni0414
ENCODING 1044
SWIDTH 602 0
DWIDTH 10 0
BBX 9 15 0 -3
BITMAP
3F00
3F00
3300
3300
3300
3300
3300
3300
3300
3300
FF80
FF80
C180
C180
C180
ENDCHAR
STARTCHAR uni0415
ENCODING 1045
SWIDTH 602 0
DWIDTH 10 0
BBX 8 12 1 0
BITMAP
FF
FF
E0
E0
E0
FE
FE
E0
E0
E0
FF
FF
ENDCHAR
STARTCHAR uni0416
ENCODING 1046
SWIDTH 602 0
DWIDTH 10 0
BBX 10 12 0 0
BITMAP
CDC0
6D80
6F80
3F00
3F00
3F00
3F00
7F00
6D80
6D80
4D80
CDC0
ENDCHAR
STARTCHAR uni0417
ENCODING 1047
SWIDTH 602 0
DWIDTH 10 0
BBX 8 12 1 0
BITMAP
FC
FE
86
06
06
3C
3E
06
07
87
FE
FC
ENDCHAR
STARTCHAR uni0418
ENCODING 1048
SWIDTH 602 0
DWIDTH 10 0
BBX 8 12 1 0
BITMAP
C7
C7
CF
CF
CB
DB
D3
F3
F3
E3
E3
E3
ENDCHAR
STARTCHAR uni0419
ENCODING 1049
SWIDTH 602 0
DWIDTH 10 0
BBX 8 15 1 0
BITMAP
44
64
3C
C7
C7
CF
CF
CB
DB
D3
F3
F3
E3
E3
E3
ENDCHAR
STARTCHAR uni041A
ENCODING 1050
SWIDTH 602 0
DWIDTH 10 0
BBX 9 12 1 0
BITMAP
C700
C600
CC00
DC00
F800
F800
FC00
EC00
CE00
C600
C700
C380
ENDCHAR
STARTCHAR uni041B
ENCODING 1051
SWIDTH 602 0
DWIDTH 10 0
BBX 9 12 0 0
BITMAP
3F80
3F80
3380
3380
3380
3380
3380
3380
3380
3380
F380
E380
ENDCHAR
STARTCHAR uni041C
ENCODING 1052
SWIDTH 602 0
DWIDTH 10 0
BBX 8 12 1 0
BITMAP
E7
E7
E7
EF
FB
FB
DB
DB
C3
C3
C3
C3
ENDCHAR
STARTCHAR uni041D
ENCODING 1053
SWIDTH 602 0
DWIDTH 10 0
BBX 8 12 1 0
BITMAP
C7
C7
C7
C7
C7
FF
FF
C7
C7
C7
C7
C7
ENDCHAR
STARTCHAR uni041E
ENCODING 1054
SWIDTH 602 0
DWIDTH 10 0
BBX 8 12 1 0
BITMAP
3C
7E
E6
C7
C7
C3
C3
C7
C7
E6
7E
3C
ENDCHAR
STARTCHAR uni041F
ENCODING 1055
SWIDTH 602 0
DWIDTH 10 0
BBX 8 12 1 0
BITMAP
FF
FF
C7
C7
C7
C7
C7
C7
C7
C7
C7
C7
ENDCHAR
STARTCHAR uni0420
ENCODING 1056
SWIDTH 602 0
DWIDTH 10 0
BBX 8 12 1 0
BITMAP
FC
FE
E7
E3
E3
E7
FE
FC
E0
E0
E0
E0
ENDCHAR
STARTCHAR uni0421
ENCODING 1057
SWIDTH 602 0
DWIDTH 10 0
BBX 7 12 1 0
BITMAP
1E
7E
62
E0
E0
E0
E0
E0
E0
62
7E
1E
ENDCHAR
STARTCHAR uni0422
ENCODING 1058
SWIDTH 602 0
DWIDTH 10 0
BBX 8 12 1 0
BITMAP
FF
FF
18
18
18
18
18
18
18
18
18
18
ENDCHAR
STARTCHAR uni0423
ENCODING 1059
SWIDTH 602 0
DWIDTH 10 0
BBX 10 12 0 0
BITMAP
E1C0
6180
3380
3300
1F00
1E00
0E00
0E00
0C00
1C00
3800
3800
ENDCHAR
STARTCHAR uni0424
ENCODING 1060
SWIDTH 602 0
DWIDTH 10 0
BBX 9 12 0 0
BITMAP
0C00
3E00
7F00
6D80
CD80
CD80
CD80
CD80
6D80
7F00
3E00
0C00
ENDCHAR
STARTCHAR uni0425
ENCODING 1061
SWIDTH 602 0
DWIDTH 10 0
BBX 9 12 0 0
BITMAP
E180
7300
3300
3E00
1E00
1C00
1C00
1E00
3E00
3300
6380
E180
ENDCHAR
STARTCHAR uni0426
ENCODING 1062
SWIDTH 602 0
DWIDTH 10 0
BBX 9 15 1 -3
BITMAP
C700
C700
C700
C700
C700
C700
C700
C700
C700
C700
FF80
FF80
0380
0380
0380
ENDCHAR
STARTCHAR uni0427
ENCODING 1063
SWIDTH 602 0
DWIDTH 10 0
BBX 8 12 1 0
BITMAP
C7
C7
C7
C7
C7
FF
7F
07
07
07
07
07
ENDCHAR
STARTCHAR uni0428
ENCODING 1064
SWIDTH 602 0
DWIDTH 10 0
BBX 8 12 1 0
BITMAP
9B
9B
9B
9B
9B
9B
9B
9B
9B
9B
FF
FF
ENDCHAR
STARTCHAR uni0429
ENCODING 1065
SWIDTH 602 0
DWIDTH 10 0
BBX 9 15 1 -3
BITMAP
DB00
DB00
DB00
DB00
DB00
DB00
DB00
DB00
DB00
DB00
FF80
FF80
0180
0180
0180
ENDCHAR
STARTCHAR uni042A
ENCODING 1066
SWIDTH 602 0
DWIDTH 10 0
BBX 9 12 0 0
BITMAP
F800
F800
3800
3800
3800
3F00
3F80
3980
3980
3980
3F80
3F00
ENDCHAR
STARTCHAR uni042B
ENCODING 1067
SWIDTH 602 0
DWIDTH 10 0
BBX 9 12 0 0
BITMAP
C180
C180
C180
C180
C180
F980
FD80
CD80
C780
CD80
FD80
F980
ENDCHAR
STARTCHAR uni042C
ENCODING 1068
SWIDTH 602 0
DWIDTH 10 0
BBX 8 12 1 0
BITMAP
E0
E0
E0
E0
E0
FC
FF
E7
E3
E7
FF
FC
ENDCHAR
STARTCHAR uni042D
ENCODING 1069
SWIDTH 602 0
DWIDTH 10 0
BBX 8 12 1 0
BITMAP
78
FC
8E
06
07
7F
7F
07
06
8E
FC
F8
ENDCHAR
STARTCHAR uni042E
ENCODING 1070
SWIDTH 602 0
DWIDTH 10 0
BBX 10 12 0 0
BITMAP
C700
CF80
CD80
DD80
DDC0
F9C0
F9C0
D9C0
DD80
CD80
CF80
C700
ENDCHAR
STARTCHAR uni042F
ENCODING 1071
SWIDTH 602 0
DWIDTH 10 0
BBX 9 12 0 0
BITMAP
3F80
7F80
6380
6380
6380
7F80
3F80
3B80
3380
7380
6380
E380
ENDCHAR
STARTCHAR uni0430
ENCODING 1072
SWIDTH 602 0
DWIDTH 10 0
BBX 8 9 1 0
BITMAP
7C
7E
87
7F
FF
C7
C7
FF
7B
ENDCHAR
STARTCHAR uni0431
ENCODING 1073
SWIDTH 602 0
DWIDTH 10 0
BBX 8 13 1 0
BITMAP
02
7E
E0
C0
FC
FE
E7
C3
C3
C3
E7
7E
3C
ENDCHAR
STARTCHAR uni0432
ENCODING 1074
SWIDTH 602 0
DWIDTH 10 0
BBX 8 9 1 0
BITMAP
FE
FE
C6
FE
FE
C7
C7
FF
FE
ENDCHAR
STARTCHAR uni0433
ENCODING 1075
SWIDTH 602 0
DWIDTH 10 0
BBX 6 9 2 0
BITMAP
FC
FC
C0
C0
C0
C0
C0
C0
C0
ENDCHAR
STARTCHAR uni0434
ENCODING 1076
SWIDTH 602 0
DWIDTH 10 0
BBX 8 11 1 -2
BITMAP
7E
7E
66
66
66
66
66
FF
FF
81
81
ENDCHAR
STARTCHAR uni0435
ENCODING 1077
SWIDTH 602 0
DWIDTH 10 0
BBX 8 9 1 0
BITMAP
3C
7E
C7
FF
FF
C0
E1
7F
3E
ENDCHAR
STARTCHAR uni0436
ENCODING 1078
SWIDTH 602 0
DWIDTH 10 0
BBX 10 9 0 0
BITMAP
EDC0
6D80
3F00
3F00
3F00
7F00
6D80
6D80
CDC0
ENDCHAR
STARTCHAR uni0437
ENCODING 1079
SWIDTH 602 0
DWIDTH 10 0
BBX 8 9 1 0
BITMAP
7C
7E
06
3E
3E
06
87
FE
FC
ENDCHAR
STARTCHAR uni0438
ENCODING 1080
SWIDTH 602 0
DWIDTH 10 0
BBX 8 9 1 0
BITMAP
C7
C7
CF
CF
DF
D7
F7
E7
E7
ENDCHAR
STARTCHAR uni0439
ENCODING 1081
SWIDTH 602 0
DWIDTH 10 0
BBX 8 13 1 0
BITMAP
44
64
3C
00
C7
C7
CF
CF
DF
D7
F7
E7
E7
ENDCHAR
STARTCHAR uni043A
ENCODING 1082
SWIDTH 602 0
DWIDTH 10 0
BBX 8 9 1 0
BITMAP
E7
EE
FC
F8
FC
EC
EE
E6
E3
ENDCHAR
STARTCHAR uni043B
ENCODING 1083
SWIDTH 602 0
DWIDTH 10 0
BBX 9 9 0 0
BITMAP
3F80
3F80
3380
3380
3380
3380
3380
F380
E380
ENDCHAR
STARTCHAR uni043C
ENCODING 1084
SWIDTH 602 0
DWIDTH 10 0
BBX 8 9 1 0
BITMAP
E7
E7
E7
EF
FF
FB
DB
DB
C3
ENDCHAR
STARTCHAR uni043D
ENCODING 1085
SWIDTH 602 0
DWIDTH 10 0
BBX 7 9 1 0
BITMAP
E6
E6
E6
FE
FE
E6
E6
E6
E6
ENDCHAR
STARTCHAR uni043E
ENCODING 1086
SWIDTH 602 0
DWIDTH 10 0
BBX 8 9 1 0
BITMAP
3C
7E
E7
C7
C3
C7
E7
7E
3C
ENDCHAR
STARTCHAR uni043F
ENCODING 1087
SWIDTH 602 0
DWIDTH 10 0
BBX 7 9 1 0
BITMAP
FE
FE
E6
E6
E6
E6
E6
E6
E6
ENDCHAR
STARTCHAR uni0440
ENCODING 1088
SWIDTH 602 0
DWIDTH 10 0
BBX 8 12 1 -3
BITMAP
DC
FE
E7
E3
C3
E3
E7
FE
DC
C0
C0
C0
ENDCHAR
STARTCHAR uni0441
ENCODING 1089
SWIDTH 602 0
DWIDTH 10 0
BBX 7 9 1 0
BITMAP
3E
7E
E2
E0
C0
E0
E2
7E
3E
ENDCHAR
STARTCHAR uni0442
ENCODING 1090
SWIDTH 602 0
DWIDTH 10 0
BBX 7 9 1 0
BITMAP
FE
FE
18
18
18
18
18
18
18
ENDCHAR
STARTCHAR uni0443
ENCODING 1091
SWIDTH 602 0
DWIDTH 10 0
BBX 8 12 1 -3
BITMAP
C3
C7
66
66
7E
3C
3C
38
18
38
F0
E0
ENDCHAR
STARTCHAR uni0444
ENCODING 1092
SWIDTH 602 0
DWIDTH 10 0
BBX 8 15 1 -3
BITMAP
18
18
18
3C
7E
DF
DB
DB
DB
DB
FE
7C
18
18
18
ENDCHAR
STARTCHAR uni0445
ENCODING 1093
SWIDTH 602 0
DWIDTH 10 0
BBX 9 9 0 0
BITMAP
7380
3700
3E00
1E00
0C00
1E00
3E00
7300
E380
ENDCHAR
STARTCHAR uni0446
ENCODING 1094
SWIDTH 602 0
DWIDTH 10 0
BBX 9 11 1 -2
BITMAP
E600
E600
E600
E600
E600
E600
E600
FF80
FF80
0180
0180
ENDCHAR
STARTCHAR uni0447
ENCODING 1095
SWIDTH 602 0
DWIDTH 10 0
BBX 7 9 1 0
BITMAP
C6
C6
C6
C6
FE
7E
06
06
06
ENDCHAR
STARTCHAR uni0448
ENCODING 1096
SWIDTH 602 0
DWIDTH 10 0
BBX 8 9 1 0
BITMAP
9B
9B
9B
9B
9B
9B
9B
FF
FF
ENDCHAR
STARTCHAR uni0449
ENCODING 1097
SWIDTH 602 0
DWIDTH 10 0
BBX 9 11 1 -2
BITMAP
9B00
9B00
9B00
9B00
9B00
9B00
9B00
FF80
FF80
0180
0180
ENDCHAR
STARTCHAR uni044A
ENCODING 1098
SWIDTH 602 0
DWIDTH 10 0
BBX 9 9 0 0
BITMAP
F800
F800
3800
3F00
3F80
3980
3980
3F80
3F00
ENDCHAR
STARTCHAR uni044B
ENCODING 1099
SWIDTH 602 0
DWIDTH 10 0
BBX 9 9 0 0
BITMAP
E180
E180
E180
F980
FD80
ED80
ED80
FD80
F980
ENDCHAR
STARTCHAR uni044C
ENCODING 1100
SWIDTH 602 0
DWIDTH 10 0
BBX 7 9 2 0
BITMAP
C0
C0
C0
F8
FE
CE
C6
FE
FC
ENDCHAR
STARTCHAR uni044D
ENCODING 1101
SWIDTH 602 0
DWIDTH 10 0
BBX 6 9 2 0
BITMAP
F0
FC
8C
FC
FC
0C
9C
FC
F0
ENDCHAR
STARTCHAR uni044E
ENCODING 1102
SWIDTH 602 0
DWIDTH 10 0
BBX 8 9 1 0
BITMAP
CE
DF
DB
F3
F1
F3
DB
DF
CE
ENDCHAR
STARTCHAR uni044F
ENCODING 1103
SWIDTH 602 0
DWIDTH 10 0
BBX 7 9 1 0
BITMAP
7E
FE
C6
C6
7E
3E
76
E6
E6
ENDCHAR
STARTCHAR uni0450
ENCODING 1104
SWIDTH 602 0
DWIDTH 10 0
BBX 8 14 1 0
BITMAP
60
30
18
08
00
3C
7E
C7
FF
FF
C0
E1
7F
3E
ENDCHAR
STARTCHAR uni0451
ENCODING 1105
SWIDTH 602 0
DWIDTH 10 0
BBX 8 13 1 0
BITMAP
36
36
00
00
3C
7E
C7
FF
FF
C0
E1
7F
3E
ENDCHAR
STARTCHAR uni0452
ENCODING 1106
SWIDTH 602 0
DWIDTH 10 0
BBX 9 15 0 -3
BITMAP
3000
3000
3000
FE00
FE00
3000
3700
3F80
3180
3180
3180
3180
0380
0700
0E00
ENDCHAR
STARTCHAR uni0453
ENCODING 1107
SWIDTH 602 0
DWIDTH 10 0
BBX 6 13 2 0
BITMAP
0C
18
30
00
FC
FC
C0
C0
C0
C0
C0
C0
C0
ENDCHAR
STARTCHAR uni0454
ENCODING 1108
SWIDTH 602 0
DWIDTH 10 0
BBX 7 9 1 0
BITMAP
3E
7E
E2
FC
FC
E0
E2
7E
3E
ENDCHAR
STARTCHAR uni0455
ENCODING 1109
SWIDTH 602 0
DWIDTH 10 0
BBX 7 9 1 0
BITMAP
3E
7E
E2
70
7C
06
86
FE
7C
ENDCHAR
STARTCHAR uni0456
ENCODING 1110
SWIDTH 602 0
DWIDTH 10 0
BBX 8 13 1 0
BITMAP
38
38
38
00
F8
F8
38
38
38
38
38
1F
1F
ENDCHAR
STARTCHAR uni0457
ENCODING 1111
SWIDTH 602 0
DWIDTH 10 0
BBX 8 12 1 0
BITMAP
6C
6C
00
F8
F8
38
38
38
38
38
1F
1F
ENDCHAR
STARTCHAR uni0458
ENCODING 1112
SWIDTH 602 0
DWIDTH 10 0
BBX 6 16 1 -3
BITMAP
0C
0C
0C
00
7C
7C
0C
0C
0C
0C
0C
0C
0C
1C
FC
F8
ENDCHAR
STARTCHAR uni0459
ENCODING 1113
SWIDTH 602 0
DWIDTH 10 0
BBX 10 9 0 0
BITMAP
3C00
3C00
3400
3700
3780
34C0
64C0
E780
C700
ENDCHAR
STARTCHAR uni045A
ENCODING 1114
SWIDTH 602 0
DWIDTH 10 0
BBX 10 9 0 0
BITMAP
C400
C400
C400
FF00
FF80
C4C0
C4C0
C780
C700
ENDCHAR
STARTCHAR uni045B
ENCODING 1115
SWIDTH 602 0
DWIDTH 10 0
BBX 9 12 0 0
BITMAP
3000
3000
3000
FE00
FE00
3000
3700
3F00
3380
3380
3380
3380
ENDCHAR
STARTCHAR uni045C
ENCODING 1116
SWIDTH 602 0
DWIDTH 10 0
BBX 8 13 1 0
BITMAP
06
0C
18
00
E7
EE
FC
F8
FC
EC
EE
E6
E3
ENDCHAR
STARTCHAR uni045D
ENCODING 1117
SWIDTH 602 0
DWIDTH 10 0
BBX 8 13 1 0
BITMAP
60
30
18
00
C7
C7
CF
CF
DF
D7
F7
E7
E7
ENDCHAR
STARTCHAR uni045E
ENCODING 1118
SWIDTH 602 0
DWIDTH 10 0
BBX 8 16 1 -3
BITMAP
46
64
3C
00
C3
C7
66
66
7E
3C
3C
38
18
38
F0
E0
ENDCHAR
STARTCHAR uni045F
ENCODING 1119
SWIDTH 602 0
DWIDTH 10 0
BBX 7 11 1 -2
BITMAP
E6
E6
E6
E6
E6
E6
E6
FE
FE
18
18
ENDCHAR
STARTCHAR uni0462
ENCODING 1122
SWIDTH 602 0
DWIDTH 10 0
BBX 9 12 0 0
BITMAP
3000
FE00
FE00
3000
3000
3F00
3F80
3180
3180
3180
3F80
3F00
ENDCHAR
STARTCHAR uni0463
ENCODING 1123
SWIDTH 602 0
DWIDTH 10 0
BBX 9 12 0 0
BITMAP
3800
3800
3800
FF00
FF00
3800
3E00
3F80
3980
3980
3F80
3F00
ENDCHAR
STARTCHAR uni0472
ENCODING 1138
SWIDTH 602 0
DWIDTH 10 0
BBX 8 12 1 0
BITMAP
3C
7E
E6
C7
C7
FF
FF
C7
C7
E6
7E
3C
ENDCHAR
STARTCHAR uni0473
ENCODING 1139
SWIDTH 602 0
DWIDTH 10 0
BBX 8 9 1 0
BITMAP
3C
7E
E7
C7
FF
FF
C7
7E
3C
ENDCHAR
STARTCHAR uni0490
ENCODING 1168
SWIDTH 602 0
DWIDTH 10 0
BBX 7 14 2 0
BITMAP
06
06
FE
FE
C0
C0
C0
C0
C0
C0
C0
C0
C0
C0
ENDCHAR
STARTCHAR uni0491
ENCODING 1169
SWIDTH 602 0
DWIDTH 10 0
BBX 6 11 2 0
BITMAP
04
04
FC
FC
C0
C0
C0
C0
C0
C0
C0
ENDCHAR
STARTCHAR uni0492
ENCODING 1170
SWIDTH 602 0
DWIDTH 10 0
BBX 8 12 1 0
BITMAP
7F
7F
60
60
60
FC
FC
60
60
60
60
60
ENDCHAR
STARTCHAR uni0493
ENCODING 1171
SWIDTH 602 0
DWIDTH 10 0
BBX 8 9 1 0
BITMAP
7F
7F
70
70
FC
FC
70
70
70
ENDCHAR
STARTCHAR uni0494
ENCODING 1172
SWIDTH 602 0
DWIDTH 10 0
BBX 8 15 1 -3
BITMAP
FF
FF
E0
E0
FE
FF
E7
E3
E3
E3
E3
E3
07
1F
1E
ENDCHAR
STARTCHAR uni0495
ENCODING 1173
SWIDTH 602 0
DWIDTH 10 0
BBX 6 12 2 -3
BITMAP
FC
FC
C0
C0
F8
FC
CC
CC
CC
0C
3C
38
ENDCHAR
STARTCHAR uni0496
ENCODING 1174
SWIDTH 602 0
DWIDTH 10 0
BBX 10 15 0 -3
BITMAP
CDC0
6D80
6F80
3F00
3F00
3F00
3F00
7F00
6D80
6D80
4DC0
CDC0
00C0
00C0
00C0
ENDCHAR
STARTCHAR uni0497
ENCODING 1175
SWIDTH 602 0
DWIDTH 10 0
BBX 10 11 0 -2
BITMAP
EDC0
6F80
3F00
3F00
3F00
7F00
6D80
6DC0
CDC0
00C0
00C0
ENDCHAR
STARTCHAR uni0498
ENCODING 1176
SWIDTH 602 0
DWIDTH 10 0
BBX 8 15 1 -3
BITMAP
FC
FE
86
06
06
3C
3E
06
07
87
FE
FC
18
08
78
ENDCHAR
STARTCHAR uni0499
ENCODING 1177
SWIDTH 602 0
DWIDTH 10 0
BBX 7 12 1 -3
BITMAP
FC
FE
06
3E
3E
06
86
FE
FC
18
08
78
ENDCHAR
STARTCHAR uni049A
ENCODING 1178
SWIDTH 602 0
DWIDTH 10 0
BBX 9 15 1 -3
BITMAP
C700
C600
CE00
DC00
F800
F800
FC00
EC00
CE00
C600
C780
C380
0380
0380
0380
ENDCHAR
STARTCHAR uni049B
ENCODING 1179
SWIDTH 602 0
DWIDTH 10 0
BBX 8 11 1 -2
BITMAP
E7
EE
FC
F8
FC
EC
EE
E7
E3
03
03
ENDCHAR
STARTCHAR uni04A2
ENCODING 1186
SWIDTH 602 0
DWIDTH 10 0
BBX 9 15 1 -3
BITMAP
C600
C600
C600
C600
C600
FE00
FE00
C600
C600
C600
C780
C780
0180
0180
0180
ENDCHAR
STARTCHAR uni04A3
ENCODING 1187
SWIDTH 602 0
DWIDTH 10 0
BBX 10 11 0 -2
BITMAP
E600
E600
E600
FE00
FE00
E600
E600
E7C0
E7C0
01C0
01C0
ENDCHAR
STARTCHAR uni04A4
ENCODING 1188
SWIDTH 602 0
DWIDTH 10 0
BBX 9 12 1 0
BITMAP
CF80
CF80
CC00
CC00
CC00
FC00
FC00
CC00
CC00
CC00
CC00
CC00
ENDCHAR
STARTCHAR uni04A5
ENCODING 1189
SWIDTH 602 0
DWIDTH 10 0
BBX 9 9 1 0
BITMAP
CF80
CF80
CC00
FC00
FC00
CC00
CC00
CC00
CC00
ENDCHAR
STARTCHAR uni04AA
ENCODING 1194
SWIDTH 602 0
DWIDTH 10 0
BBX 7 15 1 -3
BITMAP
1E
7E
62
E0
E0
E0
E0
E0
E0
72
7E
3E
04
04
1C
ENDCHAR
STARTCHAR uni04AB
ENCODING 1195
SWIDTH 602 0
DWIDTH 10 0
BBX 7 12 1 -3
BITMAP
3E
7E
62
E0
E0
E0
62
7E
3E
08
0C
3C
ENDCHAR
STARTCHAR uni04AC
ENCODING 1196
SWIDTH 602 0
DWIDTH 10 0
BBX 8 15 1 -3
BITMAP
FF
FF
18
18
18
18
18
18
18
18
1E
1E
06
06
06
ENDCHAR
STARTCHAR uni04AD
ENCODING 1197
SWIDTH 602 0
DWIDTH 10 0
BBX 7 11 1 -2
BITMAP
FE
FE
18
18
18
18
18
1E
1E
06
06
ENDCHAR
STARTCHAR uni04AE
ENCODING 1198
SWIDTH 602 0
DWIDTH 10 0
BBX 10 12 0 0
BITMAP
E1C0
6380
7300
3700
3E00
1E00
1C00
0C00
0C00
0C00
0C00
0C00
ENDCHAR
STARTCHAR uni04AF
ENCODING 1199
SWIDTH 602 0
DWIDTH 10 0
BBX 9 12 0 -3
BITMAP
E180
6380
7300
3300
3600
1E00
1E00
1C00
0C00
0C00
0C00
0C00
ENDCHAR
STARTCHAR uni04B0
ENCODING 1200
SWIDTH 602 0
DWIDTH 10 0
BBX 10 12 0 0
BITMAP
E1C0
6380
7300
3700
3E00
1E00
1C00
0C00
3F00
3F00
0C00
0C00
ENDCHAR
STARTCHAR uni04B1
ENCODING 1201
SWIDTH 602 0
DWIDTH 10 0
BBX 9 12 0 -3
BITMAP
E180
6380
7300
3300
3600
1E00
1E00
1C00
0C00
3F00
3F00
0C00
ENDCHAR
STARTCHAR uni04B2
ENCODING 1202
SWIDTH 602 0
DWIDTH 10 0
BBX 9 15 0 -3
BITMAP
E180
7300
3300
3E00
1E00
1C00
1C00
1E00
3E00
3300
6380
E180
0180
0180
0180
ENDCHAR
STARTCHAR uni04B3
ENCODING 1203
SWIDTH 602 0
DWIDTH 10 0
BBX 9 11 0 -2
BITMAP
7380
3700
3E00
1C00
1C00
1E00
3700
7380
E380
0180
0180
ENDCHAR
STARTCHAR uni04BA
ENCODING 1210
SWIDTH 602 0
DWIDTH 10 0
BBX 8 12 1 0
BITMAP
C0
C0
C0
C0
DE
FF
E3
C3
C3
C3
C3
C3
ENDCHAR
STARTCHAR uni04BB
ENCODING 1211
SWIDTH 602 0
DWIDTH 10 0
BBX 7 12 1 0
BITMAP
E0
E0
E0
FC
FE
E6
E6
E6
E6
E6
E6
E6
ENDCHAR
STARTCHAR uni04C0
ENCODING 1216
SWIDTH 602 0
DWIDTH 10 0
BBX 7 12 1 0
BITMAP
FE
FE
18
18
18
18
18
18
18
18
FE
FE
ENDCHAR
STARTCHAR uni04C1
ENCODING 1217
SWIDTH 602 0
DWIDTH 10 0
BBX 10 15 0 0
BITMAP
3200
1E00
0000
CDC0
6D80
6F80
3F00
3F00
3F00
3F00
7F00
6D80
6D80
4D80
CDC0
ENDCHAR
STARTCHAR uni04C2
ENCODING 1218
SWIDTH 602 0
DWIDTH 10 0
BBX 10 13 0 0
BITMAP
2200
3200
1E00
0000
EDC0
6D80
3F00
3F00
3F00
7F00
6D80
6D80
CDC0
ENDCHAR
STARTCHAR uni04C3
ENCODING 1219
SWIDTH 602 0
DWIDTH 10 0
BBX 8 15 1 -3
BITMAP
C7
C6
CE
DC
FC
FE
EE
E7
C7
C7
C7
C7
06
1E
1C
ENDCHAR
STARTCHAR uni04C4
ENCODING 1220
SWIDTH 602 0
DWIDTH 10 0
BBX 8 12 1 -3
BITMAP
E7
EE
FC
F8
FC
FE
E6
E6
E6
06
3E
3C
ENDCHAR
STARTCHAR uni04C7
ENCODING 1223
SWIDTH 602 0
DWIDTH 10 0
BBX 8 15 1 -3
BITMAP
C7
C7
C7
C7
FF
FF
C7
C7
C7
C7
C7
C7
06
1E
1C
ENDCHAR
STARTCHAR uni04C8
ENCODING 1224
SWIDTH 602 0
DWIDTH 10 0
BBX 7 12 1 -3
BITMAP
E6
E6
E6
FE
FE
E6
E6
E6
E6
06
1E
1C
ENDCHAR
STARTCHAR uni04CB
ENCODING 1227
SWIDTH 602 0
DWIDTH 10 0
BBX 8 15 1 -3
BITMAP
C7
C7
C7
C7
C7
FF
7F
07
07
07
1F
1F
18
18
18
ENDCHAR
STARTCHAR uni04CC
ENCODING 1228
SWIDTH 602 0
DWIDTH 10 0
BBX 7 11 1 -2
BITMAP
C6
C6
C6
E6
7E
3E
06
1E
1E
18
18
ENDCHAR
STARTCHAR uni04CF
ENCODING 1231
SWIDTH 602 0
DWIDTH 10 0
BBX 2 12 3 0
BITMAP
C0
C0
C0
C0
C0
C0
C0
C0
C0
C0
C0
C0
ENDCHAR
STARTCHAR uni04D0
ENCODING 1232
SWIDTH 602 0
DWIDTH 10 0
BBX 9 15 0 0
BITMAP
2200
1200
1C00
1C00
1E00
1E00
3E00
3600
3300
3300
7F00
7F00
6380
6180
E180
ENDCHAR
STARTCHAR uni04D1
ENCODING 1233
SWIDTH 602 0
DWIDTH 10 0
BBX 8 13 1 0
BITMAP
44
64
3C
00
7C
7E
87
7F
FF
C7
C7
FF
7B
ENDCHAR
STARTCHAR uni04D2
ENCODING 1234
SWIDTH 602 0
DWIDTH 10 0
BBX 9 15 0 0
BITMAP
3600
3600
0000
1C00
1E00
1E00
3E00
3600
3300
3300
7F00
7F00
6380
6180
E180
ENDCHAR
STARTCHAR uni04D3
ENCODING 1235
SWIDTH 602 0
DWIDTH 10 0
BBX 8 13 1 0
BITMAP
6C
6C
00
00
7C
7E
87
7F
FF
C7
C7
FF
7B
ENDCHAR
STARTCHAR uni04D4
ENCODING 1236
SWIDTH 602 0
DWIDTH 10 0
BBX 9 12 0 0
BITMAP
1F80
3F80
3600
3600
3600
2780
6780
7E00
7E00
4600
C780
C780
ENDCHAR
STARTCHAR uni04D5
ENCODING 1237
SWIDTH 602 0
DWIDTH 10 0
BBX 9 9 0 0
BITMAP
7700
7F80
0D80
7F80
FF80
CC00
CC80
FF80
7380
ENDCHAR
STARTCHAR uni04D6
ENCODING 1238
SWIDTH 602 0
DWIDTH 10 0
BBX 8 15 1 0
BITMAP
46
24
3C
FF
FF
E0
E0
E0
FE
FE
E0
E0
E0
FF
FF
ENDCHAR
STARTCHAR uni04D7
ENCODING 1239
SWIDTH 602 0
DWIDTH 10 0
BBX 8 13 1 0
BITMAP
46
3C
00
00
3C
7E
C7
FF
FF
C0
E1
7F
3E
ENDCHAR
STARTCHAR uni04D8
ENCODING 1240
SWIDTH 602 0
DWIDTH 10 0
BBX 8 12 1 0
BITMAP
7C
7E
46
07
07
FF
FF
C7
C7
E6
7E
3C
ENDCHAR
STARTCHAR uni04D9
ENCODING 1241
SWIDTH 602 0
DWIDTH 10 0
BBX 8 9 1 0
BITMAP
7C
FE
87
03
FF
FF
C7
7E
3C
ENDCHAR
STARTCHAR uni04DA
ENCODING 1242
SWIDTH 602 0
DWIDTH 10 0
BBX 8 15 1 0
BITMAP
64
64
00
7C
7E
46
07
07
FF
FF
C7
C7
E6
7E
3C
ENDCHAR
STARTCHAR uni04DB
ENCODING 1243
SWIDTH 602 0
DWIDTH 10 0
BBX 8 13 1 0
BITMAP
64
64
00
00
7C
FE
87
03
FF
FF
C7
7E
3C
ENDCHAR
STARTCHAR uni04DC
ENCODING 1244
SWIDTH 602 0
DWIDTH 10 0
BBX 10 15 0 0
BITMAP
3600
3600
0000
CDC0
6D80
6F80
3F00
3F00
3F00
3F00
7F00
6D80
6D80
4D80
CDC0
ENDCHAR
STARTCHAR uni04DD
ENCODING 1245
SWIDTH 602 0
DWIDTH 10 0
BBX 10 12 0 0
BITMAP
3600
3600
0000
EDC0
6D80
3F00
3F00
3F00
7F00
6D80
6D80
CDC0
ENDCHAR
STARTCHAR uni04DE
ENCODING 1246
SWIDTH 602 0
DWIDTH 10 0
BBX 8 15 1 0
BITMAP
6C
6C
00
FC
FE
86
06
06
3C
3E
06
07
87
FE
FC
ENDCHAR
STARTCHAR uni04DF
ENCODING 1247
SWIDTH 602 0
DWIDTH 10 0
BBX 7 13 1 0
BITMAP
6C
6C
00
00
FC
FE
06
3E
3E
06
86
FE
FC
ENDCHAR
STARTCHAR uni04E0
ENCODING 1248
SWIDTH 602 0
DWIDTH 10 0
BBX 10 12 0 0
BITMAP
7F80
7F80
0700
0E00
1C00
1F00
1F80
0180
E1C0
E180
7F80
3F00
ENDCHAR
STARTCHAR uni04E1
ENCODING 1249
SWIDTH 602 0
DWIDTH 10 0
BBX 8 12 1 -3
BITMAP
FE
FE
0E
1C
38
7C
7E
07
07
87
FE
FC
ENDCHAR
STARTCHAR uni04E2
ENCODING 1250
SWIDTH 602 0
DWIDTH 10 0
BBX 8 15 1 0
BITMAP
7C
7C
00
C7
C7
CF
CF
CB
DB
D3
F3
F3
E3
E3
E3
ENDCHAR
STARTCHAR uni04E3
ENCODING 1251
SWIDTH 602 0
DWIDTH 10 0
BBX 8 12 1 0
BITMAP
7C
7C
00
C7
C7
CF
CF
DF
D7
F7
E7
E7
ENDCHAR
STARTCHAR uni04E4
ENCODING 1252
SWIDTH 602 0
DWIDTH 10 0
BBX 8 15 1 0
BITMAP
6C
6C
00
C7
C7
CF
CF
CB
DB
D3
F3
F3
E3
E3
E3
ENDCHAR
STARTCHAR uni04E5
ENCODING 1253
SWIDTH 602 0
DWIDTH 10 0
BBX 8 12 1 0
BITMAP
6C
6C
00
C7
C7
CF
CF
DF
D7
F7
E7
E7
ENDCHAR
STARTCHAR uni04E6
ENCODING 1254
SWIDTH 602 0
DWIDTH 10 0
BBX 8 15 1 0
BITMAP
6C
6C
00
3C
7E
E6
C7
C7
C3
C3
C7
C7
E6
7E
3C
ENDCHAR
STARTCHAR uni04E7
ENCODING 1255
SWIDTH 602 0
DWIDTH 10 0
BBX 8 13 1 0
BITMAP
6C
6C
00
00
3C
7E
E7
C7
C3
C7
E7
7E
3C
ENDCHAR
STARTCHAR uni04E8
ENCODING 1256
SWIDTH 602 0
DWIDTH 10 0
BBX 8 12 1 0
BITMAP
3C
7E
E6
C7
C7
FF
FF
C7
C7
E6
7E
3C
ENDCHAR
STARTCHAR uni04E9
ENCODING 1257
SWIDTH 602 0
DWIDTH 10 0
BBX 8 9 1 0
BITMAP
3C
7E
E7
C7
FF
FF
C7
7E
3C
ENDCHAR
STARTCHAR uni04EA
ENCODING 1258
SWIDTH 602 0
DWIDTH 10 0
BBX 8 15 1 0
BITMAP
6C
6C
00
3C
7E
E6
C7
C7
FF
FF
C7
C7
E6
7E
3C
ENDCHAR
STARTCHAR uni04EB
ENCODING 1259
SWIDTH 602 0
DWIDTH 10 0
BBX 8 13 1 0
BITMAP
6C
6C
00
00
3C
7E
E7
C7
FF
FF
C7
7E
3C
ENDCHAR
STARTCHAR uni04EC
ENCODING 1260
SWIDTH 602 0
DWIDTH 10 0
BBX 8 15 1 0
BITMAP
6C
6C
00
F8
FC
8E
06
07
7F
7F
07
06
8E
FC
F8
ENDCHAR
STARTCHAR uni04ED
ENCODING 1261
SWIDTH 602 0
DWIDTH 10 0
BBX 7 13 2 0
BITMAP
D8
D8
00
00
F0
FC
8C
FC
FE
0C
9C
FC
F0
ENDCHAR
STARTCHAR uni04EE
ENCODING 1262
SWIDTH 602 0
DWIDTH 10 0
BBX 9 15 0 0
BITMAP
3E00
3E00
0000
E180
6380
7300
3300
3F00
1E00
1E00
0C00
0C00
1C00
7800
7000
ENDCHAR
STARTCHAR uni04EF
ENCODING 1263
SWIDTH 602 0
DWIDTH 10 0
BBX 9 15 0 -3
BITMAP
3E00
3E00
0000
E180
6380
7300
3300
3600
1E00
1E00
1C00
0C00
1C00
7800
7000
ENDCHAR
STARTCHAR uni04F0
ENCODING 1264
SWIDTH 602 0
DWIDTH 10 0
BBX 9 15 0 0
BITMAP
3600
3600
0000
E180
6380
7300
3300
3F00
1E00
1E00
0C00
0C00
1C00
7800
7000
ENDCHAR
STARTCHAR uni04F1
ENCODING 1265
SWIDTH 602 0
DWIDTH 10 0
BBX 9 16 0 -3
BITMAP
3600
3600
0000
0000
E180
6380
7300
3300
3600
1E00
1E00
1C00
0C00
1C00
7800
7000
ENDCHAR
STARTCHAR uni04F2
ENCODING 1266
SWIDTH 602 0
DWIDTH 10 0
BBX 9 15 0 0
BITMAP
1F80
3600
0000
E180
6380
7300
3300
3F00
1E00
1E00
0C00
0C00
1C00
7800
7000
ENDCHAR
STARTCHAR uni04F3
ENCODING 1267
SWIDTH 602 0
DWIDTH 10 0
BBX 9 16 0 -3
BITMAP
0F00
1A00
3600
0000
E180
6380
7300
3300
3600
1E00
1E00
1C00
0C00
1C00
7800
7000
ENDCHAR
STARTCHAR uni04F4
ENCODING 1268
SWIDTH 602 0
DWIDTH 10 0
BBX 8 15 1 0
BITMAP
6C
6C
00
C7
C7
C7
C7
C7
FF
7F
07
07
07
07
07
ENDCHAR
STARTCHAR uni04F5
ENCODING 1269
SWIDTH 602 0
DWIDTH 10 0
BBX 7 12 1 0
BITMAP
6C
6C
00
C6
C6
C6
C6
FE
7E
06
06
06
ENDCHAR
STARTCHAR uni04F6
ENCODING 1270
SWIDTH 602 0
DWIDTH 10 0
BBX 8 15 1 -3
BITMAP
FF
FF
E0
E0
E0
E0
E0
E0
E0
E0
F8
F8
18
18
18
ENDCHAR
STARTCHAR uni04F7
ENCODING 1271
SWIDTH 602 0
DWIDTH 10 0
BBX 6 11 2 -2
BITMAP
FC
FC
C0
C0
C0
C0
C0
F0
F0
30
30
ENDCHAR
STARTCHAR uni04F8
ENCODING 1272
SWIDTH 602 0
DWIDTH 10 0
BBX 9 15 0 0
BITMAP
1B00
1B00
0000
C180
C180
C180
C180
C180
F980
FD80
CD80
C780
CD80
FD80
F980
ENDCHAR
STARTCHAR uni04F9
ENCODING 1273
SWIDTH 602 0
DWIDTH 10 0
BBX 9 12 0 0
BITMAP
3600
3600
0000
E180
E180
E180
F980
FD80
ED80
ED80
FD80
F980
ENDCHAR
STARTCHAR uni0510
ENCODING 1296
SWIDTH 602 0
DWIDTH 10 0
BBX 8 12 1 0
BITMAP
3E
7E
E1
C0
60
7C
7C
E0
C0
C1
FF
3E
ENDCHAR
STARTCHAR uni0511
ENCODING 1297
SWIDTH 602 0
DWIDTH 10 0
BBX 7 9 1 0
BITMAP
3E
7E
E0
78
78
E0
C0
FE
3E
ENDCHAR
STARTCHAR uni051A
ENCODING 1306
SWIDTH 602 0
DWIDTH 10 0
BBX 9 14 1 -2
BITMAP
3C00
7E00
E600
C700
C700
C300
C300
C700
C700
E600
7E00
3C00
0600
0780
ENDCHAR
STARTCHAR uni051B
ENCODING 1307
SWIDTH 602 0
DWIDTH 10 0
BBX 7 12 1 -3
BITMAP
76
FE
C6
C6
C6
C6
C6
FE
76
06
06
06
ENDCHAR
STARTCHAR uni051C
ENCODING 1308
SWIDTH 602 0
DWIDTH 10 0
BBX 10 12 0 0
BITMAP
C0C0
C180
C180
CD80
4D80
7D80
7D80
7780
7780
7380
7300
7300
ENDCHAR
STARTCHAR uni051D
ENCODING 1309
SWIDTH 602 0
DWIDTH 10 0
BBX 10 9 0 0
BITMAP
C0C0
C080
CD80
4D80
7D80
7D80
7700
7300
3300
ENDCHAR
STARTCHAR uni0531
ENCODING 1329
SWIDTH 602 0
DWIDTH 10 0
BBX 8 12 1 0
BITMAP
C7
C7
C7
C7
C7
C7
C7
C7
DE
CE
FF
7E
ENDCHAR
STARTCHAR uni0532
ENCODING 1330
SWIDTH 602 0
DWIDTH 10 0
BBX 8 12 1 0
BITMAP
7C
FE
E6
C7
C7
C0
C0
FF
FF
C0
C0
C0
ENDCHAR
STARTCHAR uni0533
ENCODING 1331
SWIDTH 602 0
DWIDTH 10 0
BBX 9 12 0 0
BITMAP
3E00
7F00
6700
E300
E300
E300
6300
7F80
3F80
0300
0300
0300
ENDCHAR
STARTCHAR uni0534
ENCODING 1332
SWIDTH 602 0
DWIDTH 10 0
BBX 9 12 0 0
BITMAP
3E00
7F00
6300
E300
E300
0300
0300
0380
0380
0300
0300
0300
ENDCHAR
STARTCHAR uni0535
ENCODING 1333
SWIDTH 602 0
DWIDTH 10 0
BBX 8 12 1 0
BITMAP
C0
C0
C0
FF
FF
C0
C0
C7
C7
E6
FE
7C
ENDCHAR
STARTCHAR uni0536
ENCODING 1334
SWIDTH 602 0
DWIDTH 10 0
BBX 8 12 1 0
BITMAP
3C
FE
C7
C3
C3
03
07
06
0E
DC
FF
FF
ENDCHAR
STARTCHAR uni0537
ENCODING 1335
SWIDTH 602 0
DWIDTH 10 0
BBX 8 12 1 0
BITMAP
C0
C0
C0
FF
FF
C0
C0
C0
C0
C0
FE
FE
ENDCHAR
STARTCHAR uni0538
ENCODING 1336
SWIDTH 602 0
DWIDTH 10 0
BBX 8 12 1 0
BITMAP
7C
FE
C7
C7
C7
C0
C0
C0
C0
C0
FF
FF
ENDCHAR
STARTCHAR uni0539
ENCODING 1337
SWIDTH 602 0
DWIDTH 10 0
BBX 9 12 0 0
BITMAP
3E00
7F00
6300
C180
C180
CF80
DF80
D980
D980
D980
DF00
CE00
ENDCHAR
STARTCHAR uni053A
ENCODING 1338
SWIDTH 602 0
DWIDTH 10 0
BBX 9 12 0 0
BITMAP
0300
0300
0300
3F80
7F80
6300
E300
E300
E300
E700
7F00
3E00
ENDCHAR
STARTCHAR uni053B
ENCODING 1339
SWIDTH 602 0
DWIDTH 10 0
BBX 8 12 1 0
BITMAP
C0
C0
C0
FC
FE
C7
C7
C7
C0
C0
C0
C0
ENDCHAR
STARTCHAR uni053C
ENCODING 1340
SWIDTH 602 0
DWIDTH 10 0
BBX 7 12 1 0
BITMAP
E0
E0
E0
E0
E0
E0
E0
E0
E0
E0
FE
FE
ENDCHAR
STARTCHAR uni053D
ENCODING 1341
SWIDTH 602 0
DWIDTH 10 0
BBX 8 12 1 0
BITMAP
C0
C0
C0
FB
FB
DB
DB
DB
DB
DB
DF
CE
ENDCHAR
STARTCHAR uni053E
ENCODING 1342
SWIDTH 602 0
DWIDTH 10 0
BBX 9 12 0 0
BITMAP
C780
DF80
FC80
FF00
7380
6180
6180
6180
6180
6180
3F00
1E00
ENDCHAR
STARTCHAR uni053F
ENCODING 1343
SWIDTH 602 0
DWIDTH 10 0
BBX 8 12 1 0
BITMAP
C0
C0
C0
C7
C7
C7
E7
FF
7F
07
07
07
ENDCHAR
STARTCHAR uni0540
ENCODING 1344
SWIDTH 602 0
DWIDTH 10 0
BBX 9 12 0 0
BITMAP
0700
0700
0380
0F80
1E00
3800
7000
E000
7C00
3F00
0F80
0180
ENDCHAR
STARTCHAR uni0541
ENCODING 1345
SWIDTH 602 0
DWIDTH 10 0
BBX 8 12 1 0
BITMAP
3C
FE
C7
C3
C3
03
07
77
FE
CE
FF
7B
ENDCHAR
STARTCHAR uni0542
ENCODING 1346
SWIDTH 602 0
DWIDTH 10 0
BBX 9 12 0 0
BITMAP
3E00
7F00
E300
E300
E300
0300
0300
0300
0300
0300
0380
0380
ENDCHAR
STARTCHAR uni0543
ENCODING 1347
SWIDTH 602 0
DWIDTH 10 0
BBX 8 12 1 0
BITMAP
E3
6F
7C
38
38
78
7C
EC
CE
C7
FF
FF
ENDCHAR
STARTCHAR uni0544
ENCODING 1348
SWIDTH 602 0
DWIDTH 10 0
BBX 9 12 0 0
BITMAP
E380
E380
E300
E300
E300
E300
E300
E300
E300
6700
7F00
3E00
ENDCHAR
STARTCHAR uni0545
ENCODING 1349
SWIDTH 602 0
DWIDTH 10 0
BBX 9 12 0 0
BITMAP
1E00
3F00
3380
7380
0380
FF00
FF80
0180
0180
7180
3F80
1E00
ENDCHAR
STARTCHAR uni0546
ENCODING 1350
SWIDTH 602 0
DWIDTH 10 0
BBX 9 12 0 0
BITMAP
F000
F000
7000
7000
7000
7000
7000
7180
7180
3180
3F80
1F00
ENDCHAR
STARTCHAR uni0547
ENCODING 1351
SWIDTH 602 0
DWIDTH 10 0
BBX 8 12 1 0
BITMAP
F0
FC
3E
66
C1
C0
C0
C3
C3
E7
7E
3C
ENDCHAR
STARTCHAR uni0548
ENCODING 1352
SWIDTH 602 0
DWIDTH 10 0
BBX 8 12 1 0
BITMAP
7C
FE
C7
C7
C7
C7
C7
C7
C7
C7
C7
C7
ENDCHAR
STARTCHAR uni0549
ENCODING 1353
SWIDTH 602 0
DWIDTH 10 0
BBX 8 12 1 0
BITMAP
3C
FE
C7
C3
C3
03
07
86
FE
FC
3E
06
ENDCHAR
STARTCHAR uni054A
ENCODING 1354
SWIDTH 602 0
DWIDTH 10 0
BBX 9 12 0 0
BITMAP
3E00
7F00
6D80
CD80
CD80
0D80
0D80
0D80
0180
0180
0180
0180
ENDCHAR
STARTCHAR uni054B
ENCODING 1355
SWIDTH 602 0
DWIDTH 10 0
BBX 8 12 1 0
BITMAP
3C
FE
C7
C3
C3
F3
FF
0F
0E
CC
FF
FF
ENDCHAR
STARTCHAR uni054C
ENCODING 1356
SWIDTH 602 0
DWIDTH 10 0
BBX 9 12 0 0
BITMAP
3E00
7F00
E300
E300
E300
E300
E300
E380
E380
E300
E300
E300
ENDCHAR
STARTCHAR uni054D
ENCODING 1357
SWIDTH 602 0
DWIDTH 10 0
BBX 8 12 1 0
BITMAP
C7
C7
C7
C7
C7
C7
C7
C7
C7
E7
FE
3C
ENDCHAR
STARTCHAR uni054E
ENCODING 1358
SWIDTH 602 0
DWIDTH 10 0
BBX 9 12 0 0
BITMAP
0300
0300
0300
0300
E300
E300
E700
7F00
3F00
0300
0380
0380
ENDCHAR
STARTCHAR uni054F
ENCODING 1359
SWIDTH 602 0
DWIDTH 10 0
BBX 8 12 1 0
BITMAP
3C
7E
E7
E0
F0
7C
1E
07
C7
E7
FE
3C
ENDCHAR
STARTCHAR uni0550
ENCODING 1360
SWIDTH 602 0
DWIDTH 10 0
BBX 8 12 1 0
BITMAP
7C
FE
C7
C7
C7
C0
C0
C0
C0
C0
C0
C0
ENDCHAR
STARTCHAR uni0551
ENCODING 1361
SWIDTH 602 0
DWIDTH 10 0
BBX 9 12 0 0
BITMAP
1E00
3F00
3380
7380
3380
FF00
FF80
0180
0180
7180
3F80
1E00
ENDCHAR
STARTCHAR uni0552
ENCODING 1362
SWIDTH 602 0
DWIDTH 10 0
BBX 8 12 1 0
BITMAP
C0
C0
C0
FF
FF
C0
C0
C0
C0
C0
C0
C0
ENDCHAR
STARTCHAR uni0553
ENCODING 1363
SWIDTH 602 0
DWIDTH 10 0
BBX 9 12 0 0
BITMAP
0C00
3F00
7F80
CD80
CD80
CD80
CD80
CD80
6D80
7F80
3F00
0C00
ENDCHAR
STARTCHAR uni0554
ENCODING 1364
SWIDTH 602 0
DWIDTH 10 0
BBX 9 12 0 0
BITMAP
1F00
3F80
3180
3180
3180
3F80
3F00
3400
3000
FF80
FF80
3000
ENDCHAR
STARTCHAR uni0555
ENCODING 1365
SWIDTH 602 0
DWIDTH 10 0
BBX 8 12 1 0
BITMAP
3C
7E
E6
C7
C7
C3
C3
C7
C7
E6
7E
3C
ENDCHAR
STARTCHAR uni0556
ENCODING 1366
SWIDTH 602 0
DWIDTH 10 0
BBX 9 12 0 0
BITMAP
3C00
7C00
6C00
7F00
3F80
0D80
0D80
0D80
CD80
CD80
7F80
3F00
ENDCHAR
STARTCHAR uni0559
ENCODING 1369
SWIDTH 602 0
DWIDTH 10 0
BBX 2 4 4 8
BITMAP
C0
80
80
C0
ENDCHAR
STARTCHAR uni055A
ENCODING 1370
SWIDTH 602 0
DWIDTH 10 0
BBX 3 5 3 7
BITMAP
60
60
60
60
C0
ENDCHAR
STARTCHAR uni055B
ENCODING 1371
SWIDTH 602 0
DWIDTH 10 0
BBX 6 3 2 10
BITMAP
3C
70
E0
ENDCHAR
STARTCHAR uni055C
ENCODING 1372
SWIDTH 602 0
DWIDTH 10 0
BBX 8 5 1 10
BITMAP
03
06
7E
FC
C0
ENDCHAR
STARTCHAR uni055D
ENCODING 1373
SWIDTH 602 0
DWIDTH 10 0
BBX 6 3 2 10
BITMAP
F0
30
1C
ENDCHAR
STARTCHAR uni055E
ENCODING 1374
SWIDTH 602 0
DWIDTH 10 0
BBX 8 5 1 9
BITMAP
3E
7F
C3
9F
0E
ENDCHAR
STARTCHAR uni055F
ENCODING 1375
SWIDTH 602 0
DWIDTH 10 0
BBX 7 3 1 10
BITMAP
C0
C0
FE
ENDCHAR
STARTCHAR uni0561
ENCODING 1377
SWIDTH 602 0
DWIDTH 10 0
BBX 8 9 1 0
BITMAP
DB
DB
DB
DB
DB
DB
DB
FF
EF
ENDCHAR
STARTCHAR uni0562
ENCODING 1378
SWIDTH 602 0
DWIDTH 10 0
BBX 7 12 1 -3
BITMAP
DC
FE
E6
C6
C6
C0
C0
FE
FE
C0
C0
C0
ENDCHAR
STARTCHAR uni0563
ENCODING 1379
SWIDTH 602 0
DWIDTH 10 0
BBX 8 12 1 -3
BITMAP
76
FE
C6
C6
C6
C6
C6
FF
77
06
06
06
ENDCHAR
STARTCHAR uni0564
ENCODING 1380
SWIDTH 602 0
DWIDTH 10 0
BBX 8 12 1 -3
BITMAP
DC
FE
CE
C6
C6
C6
C6
C7
C7
06
06
06
ENDCHAR
STARTCHAR uni0565
ENCODING 1381
SWIDTH 602 0
DWIDTH 10 0
BBX 8 12 1 0
BITMAP
C0
C0
C0
FF
FF
C0
C6
C6
C6
E6
FE
76
ENDCHAR
STARTCHAR uni0566
ENCODING 1382
SWIDTH 602 0
DWIDTH 10 0
BBX 8 12 1 -3
BITMAP
76
FE
C6
C6
C6
C6
C6
FE
76
06
07
07
ENDCHAR
STARTCHAR uni0567
ENCODING 1383
SWIDTH 602 0
DWIDTH 10 0
BBX 7 12 1 0
BITMAP
E0
E0
E0
FE
FE
E0
E0
E0
E0
E0
FE
FE
ENDCHAR
STARTCHAR uni0568
ENCODING 1384
SWIDTH 602 0
DWIDTH 10 0
BBX 7 12 1 -3
BITMAP
DC
FE
E6
C6
C6
C6
C6
C6
C6
C0
FE
FE
ENDCHAR
STARTCHAR uni0569
ENCODING 1385
SWIDTH 602 0
DWIDTH 10 0
BBX 9 12 0 -3
BITMAP
FE00
F700
E380
E380
EF80
FB80
F300
FB00
EE00
E000
E000
E000
ENDCHAR
STARTCHAR uni056A
ENCODING 1386
SWIDTH 602 0
DWIDTH 10 0
BBX 8 12 1 0
BITMAP
06
06
06
7F
FF
C6
C6
C6
C6
C6
FC
78
ENDCHAR
STARTCHAR uni056B
ENCODING 1387
SWIDTH 602 0
DWIDTH 10 0
BBX 7 15 1 -3
BITMAP
E0
E0
E0
FC
FE
E6
E6
E6
E6
E6
E6
E6
E0
E0
E0
ENDCHAR
STARTCHAR uni056C
ENCODING 1388
SWIDTH 602 0
DWIDTH 10 0
BBX 4 12 3 -3
BITMAP
C0
C0
C0
C0
C0
C0
C0
C0
C0
C0
F0
F0
ENDCHAR
STARTCHAR uni056D
ENCODING 1389
SWIDTH 602 0
DWIDTH 10 0
BBX 8 15 1 -3
BITMAP
80
80
80
B3
FB
DB
9B
9B
9B
9B
9F
8F
80
80
80
ENDCHAR
STARTCHAR uni056E
ENCODING 1390
SWIDTH 602 0
DWIDTH 10 0
BBX 8 12 1 0
BITMAP
30
70
F0
3F
7F
E6
C7
C3
C7
E7
7E
3C
ENDCHAR
STARTCHAR uni056F
ENCODING 1391
SWIDTH 602 0
DWIDTH 10 0
BBX 7 15 1 -3
BITMAP
E0
E0
E0
E6
E6
E6
E6
E6
E6
E6
7E
76
06
06
06
ENDCHAR
STARTCHAR uni0570
ENCODING 1392
SWIDTH 602 0
DWIDTH 10 0
BBX 7 12 1 0
BITMAP
E0
E0
E0
FC
FE
E6
E6
E6
E6
E6
E6
E6
ENDCHAR
STARTCHAR uni0571
ENCODING 1393
SWIDTH 602 0
DWIDTH 10 0
BBX 7 12 1 0
BITMAP
70
64
78
38
3C
66
66
E6
C6
E6
7E
76
ENDCHAR
STARTCHAR uni0572
ENCODING 1394
SWIDTH 602 0
DWIDTH 10 0
BBX 8 12 1 -3
BITMAP
DC
FE
CE
C6
C6
C6
C6
C6
C6
06
07
07
ENDCHAR
STARTCHAR uni0573
ENCODING 1395
SWIDTH 602 0
DWIDTH 10 0
BBX 8 12 1 0
BITMAP
0E
1E
30
F8
FC
6E
E6
E7
E7
E7
7F
7F
ENDCHAR
STARTCHAR uni0574
ENCODING 1396
SWIDTH 602 0
DWIDTH 10 0
BBX 8 12 1 0
BITMAP
07
07
06
E6
E6
E6
E6
E6
E6
E6
7E
76
ENDCHAR
STARTCHAR uni0575
ENCODING 1397
SWIDTH 602 0
DWIDTH 10 0
BBX 6 12 2 -3
BITMAP
1C
1C
1C
1C
1C
1C
1C
1C
1C
1C
F8
F8
ENDCHAR
STARTCHAR uni0576
ENCODING 1398
SWIDTH 602 0
DWIDTH 10 0
BBX 8 12 1 0
BITMAP
E0
E0
60
63
63
63
63
63
63
67
7F
3B
ENDCHAR
STARTCHAR uni0577
ENCODING 1399
SWIDTH 602 0
DWIDTH 10 0
BBX 7 12 1 -3
BITMAP
3C
FE
46
06
06
0E
1C
38
70
60
FE
7E
ENDCHAR
STARTCHAR uni0578
ENCODING 1400
SWIDTH 602 0
DWIDTH 10 0
BBX 7 9 1 0
BITMAP
DC
FE
E6
E6
E6
E6
E6
E6
E6
ENDCHAR
STARTCHAR uni0579
ENCODING 1401
SWIDTH 602 0
DWIDTH 10 0
BBX 6 13 2 -3
BITMAP
20
70
60
60
7C
18
30
60
60
C0
C0
FC
FC
ENDCHAR
STARTCHAR uni057A
ENCODING 1402
SWIDTH 602 0
DWIDTH 10 0
BBX 8 12 1 -3
BITMAP
DB
DB
DB
DB
DB
DB
DB
FF
EF
03
03
03
ENDCHAR
STARTCHAR uni057B
ENCODING 1403
SWIDTH 602 0
DWIDTH 10 0
BBX 8 12 1 -3
BITMAP
3C
7E
E7
C7
66
6E
3C
38
70
60
FE
7E
ENDCHAR
STARTCHAR uni057C
ENCODING 1404
SWIDTH 602 0
DWIDTH 10 0
BBX 8 9 1 0
BITMAP
DC
FE
C6
C6
C6
C6
CC
CF
CF
ENDCHAR
STARTCHAR uni057D
ENCODING 1405
SWIDTH 602 0
DWIDTH 10 0
BBX 7 9 1 0
BITMAP
E6
E6
E6
E6
E6
E6
E6
7E
76
ENDCHAR
STARTCHAR uni057E
ENCODING 1406
SWIDTH 602 0
DWIDTH 10 0
BBX 8 15 1 -3
BITMAP
06
06
06
C6
C6
C6
C6
C6
C6
CE
FE
76
06
07
07
ENDCHAR
STARTCHAR uni057F
ENCODING 1407
SWIDTH 602 0
DWIDTH 10 0
BBX 8 9 1 0
BITMAP
9E
9F
9B
9B
9B
9B
DB
FB
FB
ENDCHAR
STARTCHAR uni0580
ENCODING 1408
SWIDTH 602 0
DWIDTH 10 0
BBX 7 12 1 -3
BITMAP
DC
FE
E6
E6
E6
E6
E6
E6
E6
E0
E0
E0
ENDCHAR
STARTCHAR uni0581
ENCODING 1409
SWIDTH 602 0
DWIDTH 10 0
BBX 8 12 1 -3
BITMAP
3B
7F
E7
C7
C7
C7
E7
7F
7F
07
7E
7C
ENDCHAR
STARTCHAR uni0582
ENCODING 1410
SWIDTH 602 0
DWIDTH 10 0
BBX 7 9 1 0
BITMAP
E0
E0
E0
E0
E0
E0
E0
FE
FE
ENDCHAR
STARTCHAR uni0583
ENCODING 1411
SWIDTH 602 0
DWIDTH 10 0
BBX 8 15 1 -3
BITMAP
18
18
18
9E
9F
9B
9B
9B
9B
DB
FB
FB
18
18
18
ENDCHAR
STARTCHAR uni0584
ENCODING 1412
SWIDTH 602 0
DWIDTH 10 0
BBX 8 12 1 -3
BITMAP
FE
FE
E7
E3
E3
E3
E7
FF
FE
E0
FF
FF
ENDCHAR
STARTCHAR uni0585
ENCODING 1413
SWIDTH 602 0
DWIDTH 10 0
BBX 8 9 1 0
BITMAP
3C
7E
E7
C7
C3
C7
E7
7E
3C
ENDCHAR
STARTCHAR uni0586
ENCODING 1414
SWIDTH 602 0
DWIDTH 10 0
BBX 9 15 0 -3
BITMAP
3C00
7C00
6C00
7F00
3F80
0D80
0D80
0D80
0D80
6D80
FF80
3F00
0C00
0C00
0C00
ENDCHAR
STARTCHAR uni0587
ENCODING 1415
SWIDTH 602 0
DWIDTH 10 0
BBX 9 12 0 0
BITMAP
E000
E000
E000
E600
E600
E600
E600
E600
E600
E600
7F80
7780
ENDCHAR
STARTCHAR uni0589
ENCODING 1417
SWIDTH 602 0
DWIDTH 10 0
BBX 2 8 4 0
BITMAP
C0
C0
C0
00
00
C0
C0
C0
ENDCHAR
STARTCHAR uni058A
ENCODING 1418
SWIDTH 602 0
DWIDTH 10 0
BBX 5 3 2 3
BITMAP
88
F8
F8
ENDCHAR
STARTCHAR uni0E3F
ENCODING 3647
SWIDTH 602 0
DWIDTH 10 0
BBX 8 14 1 -2
BITMAP
10
FC
FE
D7
D6
FE
FE
D7
D3
D7
FF
FE
10
10
ENDCHAR
STARTCHAR uni10D0
ENCODING 4304
SWIDTH 602 0
DWIDTH 10 0
BBX 8 9 1 0
BITMAP
30
30
3C
0E
C7
C3
C7
FE
7C
ENDCHAR
STARTCHAR uni10D1
ENCODING 4305
SWIDTH 602 0
DWIDTH 10 0
BBX 8 11 1 0
BITMAP
E0
78
18
18
7E
C7
C7
C7
C7
FE
7C
ENDCHAR
STARTCHAR uni10D2
ENCODING 4306
SWIDTH 602 0
DWIDTH 10 0
BBX 8 11 1 -3
BITMAP
7C
FE
C6
8C
7C
E6
C3
C3
C3
FE
7C
ENDCHAR
STARTCHAR uni10D3
ENCODING 4307
SWIDTH 602 0
DWIDTH 10 0
BBX 9 11 0 -3
BITMAP
7700
7F80
C980
C980
C980
CD80
4F80
6700
3800
7E00
2700
ENDCHAR
STARTCHAR uni10D4
ENCODING 4308
SWIDTH 602 0
DWIDTH 10 0
BBX 8 11 1 -3
BITMAP
3E
7E
E3
E3
43
03
C3
C3
C3
FF
7C
ENDCHAR
STARTCHAR uni10D5
ENCODING 4309
SWIDTH 602 0
DWIDTH 10 0
BBX 8 11 1 -3
BITMAP
7C
FE
C7
E3
0E
0E
C7
C3
C3
FF
7C
ENDCHAR
STARTCHAR uni10D6
ENCODING 4310
SWIDTH 602 0
DWIDTH 10 0
BBX 8 11 1 0
BITMAP
78
FC
CC
FC
7E
C7
C3
C3
C7
FE
7C
ENDCHAR
STARTCHAR uni10D7
ENCODING 4311
SWIDTH 602 0
DWIDTH 10 0
BBX 9 8 0 0
BITMAP
3F00
7F80
CD80
CD80
CD80
CD80
7D80
3B00
ENDCHAR
STARTCHAR uni10D8
ENCODING 4312
SWIDTH 602 0
DWIDTH 10 0
BBX 8 8 1 0
BITMAP
7C
FE
C7
C3
C3
C3
C6
6E
ENDCHAR
STARTCHAR uni10D9
ENCODING 4313
SWIDTH 602 0
DWIDTH 10 0
BBX 8 11 1 -3
BITMAP
3C
3E
07
03
1E
1E
C7
C3
C3
FF
7E
ENDCHAR
STARTCHAR uni10DA
ENCODING 4314
SWIDTH 602 0
DWIDTH 10 0
BBX 8 11 1 -3
BITMAP
7C
FE
C7
C3
C7
C6
E6
70
F8
5C
0E
ENDCHAR
STARTCHAR uni10DB
ENCODING 4315
SWIDTH 602 0
DWIDTH 10 0
BBX 8 11 1 0
BITMAP
7E
FF
C3
7B
FF
C7
C3
C3
C7
FE
3C
ENDCHAR
STARTCHAR uni10DC
ENCODING 4316
SWIDTH 602 0
DWIDTH 10 0
BBX 8 11 1 0
BITMAP
7E
FE
C0
FC
FE
C7
C3
C3
C7
FE
7C
ENDCHAR
STARTCHAR uni10DD
ENCODING 4317
SWIDTH 602 0
DWIDTH 10 0
BBX 9 8 0 0
BITMAP
7F00
7F80
CD80
CD80
CD80
C180
6180
7300
ENDCHAR
STARTCHAR uni10DE
ENCODING 4318
SWIDTH 602 0
DWIDTH 10 0
BBX 8 11 1 0
BITMAP
60
3E
06
07
1E
1E
C7
C3
C7
FE
7C
ENDCHAR
STARTCHAR uni10DF
ENCODING 4319
SWIDTH 602 0
DWIDTH 10 0
BBX 8 11 1 -3
BITMAP
FF
F3
73
33
33
F3
83
03
C3
FE
7C
ENDCHAR
STARTCHAR uni10E0
ENCODING 4320
SWIDTH 602 0
DWIDTH 10 0
BBX 9 12 0 0
BITMAP
0200
0E00
3800
3000
7F00
7F80
CD80
CD80
CD80
C180
6180
7380
ENDCHAR
STARTCHAR uni10E1
ENCODING 4321
SWIDTH 602 0
DWIDTH 10 0
BBX 8 11 1 0
BITMAP
C0
C0
C4
C8
CC
CE
C7
C3
C7
FE
7C
ENDCHAR
STARTCHAR uni10E2
ENCODING 4322
SWIDTH 602 0
DWIDTH 10 0
BBX 10 13 0 -3
BITMAP
0C00
0C00
0C00
3F00
6F80
ED80
ED80
CDC0
C180
E180
6180
7F00
3E00
ENDCHAR
STARTCHAR uni10E3
ENCODING 4323
SWIDTH 602 0
DWIDTH 10 0
BBX 9 11 0 -3
BITMAP
B700
FF80
4980
0980
0980
2180
7180
6180
6380
3F00
1E00
ENDCHAR
STARTCHAR uni10E4
ENCODING 4324
SWIDTH 602 0
DWIDTH 10 0
BBX 9 11 0 -3
BITMAP
7F00
7F80
CD80
CD80
CD80
ED00
7D80
3180
3180
3F80
1F00
ENDCHAR
STARTCHAR uni10E5
ENCODING 4325
SWIDTH 602 0
DWIDTH 10 0
BBX 8 14 1 -3
BITMAP
03
03
03
7B
7F
E7
63
03
03
C3
C3
C3
FE
7C
ENDCHAR
STARTCHAR uni10E6
ENCODING 4326
SWIDTH 602 0
DWIDTH 10 0
BBX 9 11 0 -3
BITMAP
7F00
7F80
CD80
CD80
CD80
E180
6180
3200
3C00
3E00
0300
ENDCHAR
STARTCHAR uni10E7
ENCODING 4327
SWIDTH 602 0
DWIDTH 10 0
BBX 8 11 1 -3
BITMAP
73
E3
C3
C3
C7
FF
7B
03
C3
FF
7C
ENDCHAR
STARTCHAR uni10E8
ENCODING 4328
SWIDTH 602 0
DWIDTH 10 0
BBX 9 11 0 0
BITMAP
7700
FF80
C980
0D80
3F80
6380
6180
6180
6380
7F00
1E00
ENDCHAR
STARTCHAR uni10E9
ENCODING 4329
SWIDTH 602 0
DWIDTH 10 0
BBX 8 11 1 0
BITMAP
7C
FE
CC
FC
FE
C7
C3
C3
C7
C6
DC
ENDCHAR
STARTCHAR uni10EA
ENCODING 4330
SWIDTH 602 0
DWIDTH 10 0
BBX 9 11 0 -3
BITMAP
3600
6700
6180
6180
EF00
EF80
E180
6180
6180
7F80
1F00
ENDCHAR
STARTCHAR uni10EB
ENCODING 4331
SWIDTH 602 0
DWIDTH 10 0
BBX 8 11 1 0
BITMAP
03
03
03
7B
FF
C7
C3
C3
C7
FE
7C
ENDCHAR
STARTCHAR uni10EC
ENCODING 4332
SWIDTH 602 0
DWIDTH 10 0
BBX 9 11 1 0
BITMAP
7700
FF00
CB80
D800
FE00
C700
C300
C300
C700
FE00
7C00
ENDCHAR
STARTCHAR uni10ED
ENCODING 4333
SWIDTH 602 0
DWIDTH 10 0
BBX 8 14 1 -3
BITMAP
18
18
18
78
FF
CF
FC
78
0E
C7
C3
C7
FE
7C
ENDCHAR
STARTCHAR uni10EE
ENCODING 4334
SWIDTH 602 0
DWIDTH 10 0
BBX 8 11 1 0
BITMAP
C0
C0
C0
FC
FE
C7
C3
C3
C7
FE
3C
ENDCHAR
STARTCHAR uni10EF
ENCODING 4335
SWIDTH 602 0
DWIDTH 10 0
BBX 8 13 1 -3
BITMAP
18
18
D8
FC
1F
19
1C
8E
C7
C3
C7
FE
7C
ENDCHAR
STARTCHAR uni10F0
ENCODING 4336
SWIDTH 602 0
DWIDTH 10 0
BBX 8 11 1 0
BITMAP
30
3E
03
1E
1F
1F
1E
C3
C3
FF
7C
ENDCHAR
STARTCHAR uni10F1
ENCODING 4337
SWIDTH 602 0
DWIDTH 10 0
BBX 8 14 1 -3
BITMAP
18
0F
03
CE
CF
C3
CE
CF
C3
CE
CF
C3
FF
7E
ENDCHAR
STARTCHAR uni10F2
ENCODING 4338
SWIDTH 602 0
DWIDTH 10 0
BBX 8 10 1 -2
BITMAP
7C
FE
C7
C3
C3
C7
6E
7E
EE
82
ENDCHAR
STARTCHAR uni10F3
ENCODING 4339
SWIDTH 602 0
DWIDTH 10 0
BBX 8 11 1 -3
BITMAP
FF
FF
C6
06
3C
3E
07
C3
C7
FE
3C
ENDCHAR
STARTCHAR uni10F4
ENCODING 4340
SWIDTH 602 0
DWIDTH 10 0
BBX 8 14 1 -3
BITMAP
70
F0
C1
FF
7F
07
07
3E
3E
07
03
C7
FE
7C
ENDCHAR
STARTCHAR uni10F5
ENCODING 4341
SWIDTH 602 0
DWIDTH 10 0
BBX 8 11 1 0
BITMAP
7C
FE
C6
FF
3F
3F
FF
C6
C6
FE
7C
ENDCHAR
STARTCHAR uni10F6
ENCODING 4342
SWIDTH 602 0
DWIDTH 10 0
BBX 9 11 0 -3
BITMAP
7F00
FF80
ED80
ED80
ED80
ED80
6F80
6F00
0C00
3C00
3800
ENDCHAR
STARTCHAR uni10F7
ENCODING 4343
SWIDTH 602 0
DWIDTH 10 0
BBX 8 11 1 -3
BITMAP
3C
7E
6E
0E
7C
F2
C7
C3
C3
FF
7C
ENDCHAR
STARTCHAR uni10F8
ENCODING 4344
SWIDTH 602 0
DWIDTH 10 0
BBX 8 11 1 -3
BITMAP
DE
C6
C7
C3
C7
FE
FC
C3
C7
FE
7C
ENDCHAR
STARTCHAR uni10F9
ENCODING 4345
SWIDTH 602 0
DWIDTH 10 0
BBX 8 11 1 -3
BITMAP
7E
FF
C3
C3
C7
FE
3C
70
66
7E
3C
ENDCHAR
STARTCHAR uni10FA
ENCODING 4346
SWIDTH 602 0
DWIDTH 10 0
BBX 8 9 1 -1
BITMAP
3C
FE
C7
C7
C6
66
70
7C
CC
ENDCHAR
STARTCHAR uni10FB
ENCODING 4347
SWIDTH 602 0
DWIDTH 10 0
BBX 6 7 2 0
BITMAP
C0
C0
08
0C
00
C0
C0
ENDCHAR
STARTCHAR uni10FC
ENCODING 4348
SWIDTH 602 0
DWIDTH 10 0
BBX 4 7 3 4
BITMAP
F0
A0
E0
B0
B0
E0
40
ENDCHAR
STARTCHAR uni1E80
ENCODING 7808
SWIDTH 602 0
DWIDTH 10 0
BBX 10 15 0 0
BITMAP
3800
0C00
0000
C0C0
C180
C180
CD80
4D80
7D80
7D80
7780
7780
7380
7300
7300
ENDCHAR
STARTCHAR uni1E81
ENCODING 7809
SWIDTH 602 0
DWIDTH 10 0
BBX 10 13 0 0
BITMAP
7000
1000
0C00
0000
C0C0
C080
CD80
4D80
7D80
7D80
7700
7300
3300
ENDCHAR
STARTCHAR uni1E82
ENCODING 7810
SWIDTH 602 0
DWIDTH 10 0
BBX 10 15 0 0
BITMAP
0600
0C00
0000
C0C0
C180
C180
CD80
4D80
7D80
7D80
7780
7780
7380
7300
7300
ENDCHAR
STARTCHAR uni1E83
ENCODING 7811
SWIDTH 602 0
DWIDTH 10 0
BBX 10 13 0 0
BITMAP
0300
0600
0C00
0000
C0C0
C080
CD80
4D80
7D80
7D80
7700
7300
3300
ENDCHAR
STARTCHAR uni1E84
ENCODING 7812
SWIDTH 602 0
DWIDTH 10 0
BBX 10 14 0 0
BITMAP
3600
3600
C0C0
C180
C180
CD80
4D80
7D80
7D80
7780
7780
7380
7300
7300
ENDCHAR
STARTCHAR uni1E85
ENCODING 7813
SWIDTH 602 0
DWIDTH 10 0
BBX 10 12 0 0
BITMAP
3600
3600
0000
C0C0
C080
CD80
4D80
7D80
7D80
7700
7300
3300
ENDCHAR
STARTCHAR uni1EBC
ENCODING 7868
SWIDTH 602 0
DWIDTH 10 0
BBX 8 15 1 0
BITMAP
32
6C
00
FF
FF
E0
E0
E0
FE
FE
E0
E0
E0
FF
FF
ENDCHAR
STARTCHAR uni1EBD
ENCODING 7869
SWIDTH 602 0
DWIDTH 10 0
BBX 8 12 1 0
BITMAP
36
4C
00
3C
7E
C7
FF
FF
C0
C1
7F
3E
ENDCHAR
STARTCHAR uni1EF2
ENCODING 7922
SWIDTH 602 0
DWIDTH 10 0
BBX 10 15 0 0
BITMAP
3800
0C00
0000
E1C0
6380
7300
3700
3E00
1E00
1C00
0C00
0C00
0C00
0C00
0C00
ENDCHAR
STARTCHAR uni1EF3
ENCODING 7923
SWIDTH 602 0
DWIDTH 10 0
BBX 8 16 1 -3
BITMAP
E0
30
18
00
C3
C7
66
66
7E
3C
3C
38
18
38
F0
E0
ENDCHAR
STARTCHAR uni1EF8
ENCODING 7928
SWIDTH 602 0
DWIDTH 10 0
BBX 10 15 0 0
BITMAP
1900
2600
0000
E1C0
6380
7300
3700
3E00
1E00
1C00
0C00
0C00
0C00
0C00
0C00
ENDCHAR
STARTCHAR uni1EF9
ENCODING 7929
SWIDTH 602 0
DWIDTH 10 0
BBX 8 15 1 -3
BITMAP
32
4C
00
C3
C7
66
66
7E
3C
3C
38
18
38
F0
E0
ENDCHAR
STARTCHAR uni2000
ENCODING 8192
SWIDTH 602 0
DWIDTH 10 0
BBX 1 1 0 0
BITMAP
00
ENDCHAR
STARTCHAR uni2001
ENCODING 8193
SWIDTH 602 0
DWIDTH 10 0
BBX 1 1 0 0
BITMAP
00
ENDCHAR
STARTCHAR uni2002
ENCODING 8194
SWIDTH 602 0
DWIDTH 10 0
BBX 1 1 0 0
BITMAP
00
ENDCHAR
STARTCHAR uni2003
ENCODING 8195
SWIDTH 602 0
DWIDTH 10 0
BBX 1 1 0 0
BITMAP
00
ENDCHAR
STARTCHAR uni2004
ENCODING 8196
SWIDTH 602 0
DWIDTH 10 0
BBX 1 1 0 0
BITMAP
00
ENDCHAR
STARTCHAR uni2005
ENCODING 8197
SWIDTH 602 0
DWIDTH 10 0
BBX 1 1 0 0
BITMAP
00
ENDCHAR
STARTCHAR uni2006
ENCODING 8198
SWIDTH 602 0
DWIDTH 10 0
BBX 1 1 0 0
BITMAP
00
ENDCHAR
STARTCHAR uni2007
ENCODING 8199
SWIDTH 602 0
DWIDTH 10 0
BBX 1 1 0 0
BITMAP
00
ENDCHAR
STARTCHAR uni2008
ENCODING 8200
SWIDTH 602 0
DWIDTH 10 0
BBX 1 1 0 0
BITMAP
00
ENDCHAR
STARTCHAR uni2009
ENCODING 8201
SWIDTH 602 0
DWIDTH 10 0
BBX 1 1 0 0
BITMAP
00
ENDCHAR
STARTCHAR uni200A
ENCODING 8202
SWIDTH 602 0
DWIDTH 10 0
BBX 1 1 0 0
BITMAP
00
ENDCHAR
STARTCHAR uni2010
ENCODING 8208
SWIDTH 602 0
DWIDTH 10 0
BBX 5 2 2 3
BITMAP
F8
F8
ENDCHAR
STARTCHAR uni2011
ENCODING 8209
SWIDTH 602 0
DWIDTH 10 0
BBX 5 2 2 3
BITMAP
F8
F8
ENDCHAR
STARTCHAR uni2012
ENCODING 8210
SWIDTH 602 0
DWIDTH 10 0
BBX 8 2 1 3
BITMAP
FF
FF
ENDCHAR
STARTCHAR uni2013
ENCODING 8211
SWIDTH 602 0
DWIDTH 10 0
BBX 5 2 2 3
BITMAP
F8
F8
ENDCHAR
STARTCHAR uni2014
ENCODING 8212
SWIDTH 602 0
DWIDTH 10 0
BBX 10 2 0 3
BITMAP
FFC0
FFC0
ENDCHAR
STARTCHAR uni2015
ENCODING 8213
SWIDTH 602 0
DWIDTH 10 0
BBX 10 2 0 3
BITMAP
FFC0
FFC0
ENDCHAR
STARTCHAR uni2016
ENCODING 8214
SWIDTH 602 0
DWIDTH 10 0
BBX 6 16 2 -4
BITMAP
CC
CC
CC
CC
CC
CC
CC
CC
CC
CC
CC
CC
CC
CC
CC
CC
ENDCHAR
STARTCHAR uni2017
ENCODING 8215
SWIDTH 602 0
DWIDTH 10 0
BBX 10 4 0 -4
BITMAP
FFC0
FFC0
FFC0
FFC0
ENDCHAR
STARTCHAR uni2018
ENCODING 8216
SWIDTH 602 0
DWIDTH 10 0
BBX 4 5 3 7
BITMAP
30
60
60
E0
E0
ENDCHAR
STARTCHAR uni2019
ENCODING 8217
SWIDTH 602 0
DWIDTH 10 0
BBX 4 5 3 7
BITMAP
70
70
60
60
C0
ENDCHAR
STARTCHAR uni201A
ENCODING 8218
SWIDTH 602 0
DWIDTH 10 0
BBX 3 5 3 -2
BITMAP
60
60
60
C0
C0
ENDCHAR
STARTCHAR uni201B
ENCODING 8219
SWIDTH 602 0
DWIDTH 10 0
BBX 4 5 3 7
BITMAP
E0
E0
60
60
30
ENDCHAR
STARTCHAR uni201C
ENCODING 8220
SWIDTH 602 0
DWIDTH 10 0
BBX 7 5 1 7
BITMAP
62
66
EE
EE
EE
ENDCHAR
STARTCHAR uni201D
ENCODING 8221
SWIDTH 602 0
DWIDTH 10 0
BBX 7 5 1 7
BITMAP
66
66
66
66
CC
ENDCHAR
STARTCHAR uni201E
ENCODING 8222
SWIDTH 602 0
DWIDTH 10 0
BBX 7 5 1 -2
BITMAP
66
66
66
66
CC
ENDCHAR
STARTCHAR uni201F
ENCODING 8223
SWIDTH 602 0
DWIDTH 10 0
BBX 7 5 1 7
BITMAP
EE
EE
EE
66
62
ENDCHAR
STARTCHAR uni2020
ENCODING 8224
SWIDTH 602 0
DWIDTH 10 0
BBX 7 13 1 -1
BITMAP
18
18
18
FE
FE
18
18
18
18
18
18
18
18
ENDCHAR
STARTCHAR uni2021
ENCODING 8225
SWIDTH 602 0
DWIDTH 10 0
BBX 7 13 1 -1
BITMAP
18
18
18
FE
FE
18
18
18
FE
FE
18
18
18
ENDCHAR
STARTCHAR uni2022
ENCODING 8226
SWIDTH 602 0
DWIDTH 10 0
BBX 6 6 2 3
BITMAP
70
F8
FC
FC
F8
70
ENDCHAR
STARTCHAR uni2023
ENCODING 8227
SWIDTH 602 0
DWIDTH 10 0
BBX 6 7 2 2
BITMAP
C0
E0
F8
FC
F0
C0
80
ENDCHAR
STARTCHAR uni2024
ENCODING 8228
SWIDTH 602 0
DWIDTH 10 0
BBX 2 3 4 0
BITMAP
C0
C0
C0
ENDCHAR
STARTCHAR uni2025
ENCODING 8229
SWIDTH 602 0
DWIDTH 10 0
BBX 6 3 2 0
BITMAP
CC
CC
CC
ENDCHAR
STARTCHAR uni2026
ENCODING 8230
SWIDTH 602 0
DWIDTH 10 0
BBX 9 3 0 0
BITMAP
ED80
ED80
ED80
ENDCHAR
STARTCHAR uni2027
ENCODING 8231
SWIDTH 602 0
DWIDTH 10 0
BBX 2 3 4 5
BITMAP
C0
C0
C0
ENDCHAR
STARTCHAR uni202F
ENCODING 8239
SWIDTH 602 0
DWIDTH 10 0
BBX 1 1 0 0
BITMAP
00
ENDCHAR
STARTCHAR uni2030
ENCODING 8240
SWIDTH 602 0
DWIDTH 10 0
BBX 10 12 0 0
BITMAP
6000
F000
9000
9080
F300
7C00
E000
7380
7F80
CCC0
7F80
7380
ENDCHAR
STARTCHAR uni2031
ENCODING 8241
SWIDTH 602 0
DWIDTH 10 0
BBX 10 12 0 0
BITMAP
6000
F000
9000
9080
F300
7C00
E000
6980
FF80
9240
FF80
6D80
ENDCHAR
STARTCHAR uni2032
ENCODING 8242
SWIDTH 602 0
DWIDTH 10 0
BBX 4 3 3 9
BITMAP
70
40
C0
ENDCHAR
STARTCHAR uni2033
ENCODING 8243
SWIDTH 602 0
DWIDTH 10 0
BBX 6 3 2 9
BITMAP
6C
D8
90
ENDCHAR
STARTCHAR uni2034
ENCODING 8244
SWIDTH 602 0
DWIDTH 10 0
BBX 10 3 0 9
BITMAP
7FC0
4900
DB00
ENDCHAR
STARTCHAR uni2035
ENCODING 8245
SWIDTH 602 0
DWIDTH 10 0
BBX 4 3 3 9
BITMAP
C0
60
30
ENDCHAR
STARTCHAR uni2036
ENCODING 8246
SWIDTH 602 0
DWIDTH 10 0
BBX 6 3 2 9
BITMAP
D8
48
6C
ENDCHAR
STARTCHAR uni2037
ENCODING 8247
SWIDTH 602 0
DWIDTH 10 0
BBX 10 3 0 9
BITMAP
FB00
6D80
36C0
ENDCHAR
STARTCHAR uni2039
ENCODING 8249
SWIDTH 602 0
DWIDTH 10 0
BBX 4 7 2 1
BITMAP
10
30
E0
C0
60
30
10
ENDCHAR
STARTCHAR uni203A
ENCODING 8250
SWIDTH 602 0
DWIDTH 10 0
BBX 4 7 4 1
BITMAP
80
C0
60
30
60
C0
80
ENDCHAR
STARTCHAR uni203C
ENCODING 8252
SWIDTH 602 0
DWIDTH 10 0
BBX 8 12 1 0
BITMAP
C6
C6
C6
C6
C6
C6
C6
46
00
C6
E7
C6
ENDCHAR
STARTCHAR uni203D
ENCODING 8253
SWIDTH 602 0
DWIDTH 10 0
BBX 6 12 2 0
BITMAP
78
FC
FC
7C
7C
78
70
70
70
20
70
20
ENDCHAR
STARTCHAR uni203E
ENCODING 8254
SWIDTH 602 0
DWIDTH 10 0
BBX 10 2 0 11
BITMAP
FFC0
FFC0
ENDCHAR
STARTCHAR uni203F
ENCODING 8255
SWIDTH 602 0
DWIDTH 10 0
BBX 11 3 -1 -4
BITMAP
C020
7FE0
1F80
ENDCHAR
STARTCHAR uni2044
ENCODING 8260
SWIDTH 602 0
DWIDTH 10 0
BBX 8 13 1 -1
BITMAP
03
06
06
0C
0C
18
18
30
30
20
60
40
C0
ENDCHAR
STARTCHAR uni2045
ENCODING 8261
SWIDTH 602 0
DWIDTH 10 0
BBX 4 15 3 -3
BITMAP
F0
F0
C0
C0
C0
C0
C0
F0
F0
C0
C0
C0
C0
F0
F0
ENDCHAR
STARTCHAR uni2046
ENCODING 8262
SWIDTH 602 0
DWIDTH 10 0
BBX 4 15 2 -3
BITMAP
F0
F0
30
30
30
30
30
F0
F0
30
30
30
30
F0
F0
ENDCHAR
STARTCHAR uni2047
ENCODING 8263
SWIDTH 602 0
DWIDTH 10 0
BBX 9 12 0 0
BITMAP
7380
F780
BD80
3180
3180
3300
6300
6300
6300
6300
6300
6300
ENDCHAR
STARTCHAR uni2048
ENCODING 8264
SWIDTH 602 0
DWIDTH 10 0
BBX 9 12 0 0
BITMAP
7300
F300
BB00
3300
3300
7300
6300
6100
6000
6100
6380
6300
ENDCHAR
STARTCHAR uni2049
ENCODING 8265
SWIDTH 602 0
DWIDTH 10 0
BBX 8 12 1 0
BITMAP
C7
CF
CB
C3
C3
C6
C6
C6
06
C6
E6
C6
ENDCHAR
STARTCHAR uni204B
ENCODING 8267
SWIDTH 602 0
DWIDTH 10 0
BBX 8 13 1 -1
BITMAP
FC
DF
DF
DF
DF
DE
D8
D8
D8
D8
D8
D8
D8
ENDCHAR
STARTCHAR uni205F
ENCODING 8287
SWIDTH 602 0
DWIDTH 10 0
BBX 1 1 0 0
BITMAP
00
ENDCHAR
STARTCHAR uni2070
ENCODING 8304
SWIDTH 602 0
DWIDTH 10 0
BBX 5 6 2 9
BITMAP
78
C8
E8
C8
C8
78
ENDCHAR
STARTCHAR uni2074
ENCODING 8308
SWIDTH 602 0
DWIDTH 10 0
BBX 5 6 2 9
BITMAP
30
70
D0
F8
10
10
ENDCHAR
STARTCHAR uni2075
ENCODING 8309
SWIDTH 602 0
DWIDTH 10 0
BBX 5 6 2 9
BITMAP
78
40
70
08
08
F8
ENDCHAR
STARTCHAR uni2076
ENCODING 8310
SWIDTH 602 0
DWIDTH 10 0
BBX 6 6 2 9
BITMAP
78
78
C8
CC
C8
78
ENDCHAR
STARTCHAR uni2077
ENCODING 8311
SWIDTH 602 0
DWIDTH 10 0
BBX 5 6 2 9
BITMAP
F8
18
10
30
20
60
ENDCHAR
STARTCHAR uni2078
ENCODING 8312
SWIDTH 602 0
DWIDTH 10 0
BBX 5 6 2 9
BITMAP
78
C8
70
C8
C8
78
ENDCHAR
STARTCHAR uni2079
ENCODING 8313
SWIDTH 602 0
DWIDTH 10 0
BBX 5 6 2 9
BITMAP
70
C8
C8
78
08
70
ENDCHAR
STARTCHAR uni207A
ENCODING 8314
SWIDTH 602 0
DWIDTH 10 0
BBX 6 5 2 6
BITMAP
20
20
FC
20
20
ENDCHAR
STARTCHAR uni207B
ENCODING 8315
SWIDTH 602 0
DWIDTH 10 0
BBX 6 1 2 8
BITMAP
FC
ENDCHAR
STARTCHAR uni207C
ENCODING 8316
SWIDTH 602 0
DWIDTH 10 0
BBX 5 3 2 7
BITMAP
F8
00
F8
ENDCHAR
STARTCHAR uni207D
ENCODING 8317
SWIDTH 602 0
DWIDTH 10 0
BBX 3 8 3 4
BITMAP
20
40
40
C0
40
40
40
20
ENDCHAR
STARTCHAR uni207E
ENCODING 8318
SWIDTH 602 0
DWIDTH 10 0
BBX 3 8 3 4
BITMAP
C0
60
20
20
20
20
60
C0
ENDCHAR
STARTCHAR uni208A
ENCODING 8330
SWIDTH 602 0
DWIDTH 10 0
BBX 6 5 2 0
BITMAP
20
20
FC
20
20
ENDCHAR
STARTCHAR uni208B
ENCODING 8331
SWIDTH 602 0
DWIDTH 10 0
BBX 6 1 2 2
BITMAP
FC
ENDCHAR
STARTCHAR uni208C
ENCODING 8332
SWIDTH 602 0
DWIDTH 10 0
BBX 5 3 2 1
BITMAP
F8
00
F8
ENDCHAR
STARTCHAR uni208D
ENCODING 8333
SWIDTH 602 0
DWIDTH 10 0
BBX 3 8 3 -1
BITMAP
20
40
40
C0
40
40
40
20
ENDCHAR
STARTCHAR uni208E
ENCODING 8334
SWIDTH 602 0
DWIDTH 10 0
BBX 3 8 3 -1
BITMAP
C0
60
20
20
20
20
60
C0
ENDCHAR
STARTCHAR uni20A0
ENCODING 8352
SWIDTH 602 0
DWIDTH 10 0
BBX 10 12 0 0
BITMAP
3800
7800
C400
C780
C780
C600
C780
C780
7E00
3600
07C0
07C0
ENDCHAR
STARTCHAR uni20A1
ENCODING 8353
SWIDTH 602 0
DWIDTH 10 0
BBX 8 13 1 -1
BITMAP
3F
7F
FF
EB
EA
D4
D4
D4
F4
E9
7F
3E
78
ENDCHAR
STARTCHAR uni20A2
ENCODING 8354
SWIDTH 602 0
DWIDTH 10 0
BBX 8 12 1 0
BITMAP
3E
7E
E2
C0
DB
DF
DC
D8
D8
FA
7E
3E
ENDCHAR
STARTCHAR uni20A3
ENCODING 8355
SWIDTH 602 0
DWIDTH 10 0
BBX 9 12 0 0
BITMAP
7F80
7F80
7000
7000
7000
7F00
7F00
7000
7000
F800
7000
7000
ENDCHAR
STARTCHAR uni20A4
ENCODING 8356
SWIDTH 602 0
DWIDTH 10 0
BBX 8 12 1 0
BITMAP
1F
3F
31
70
FE
FE
FE
FE
70
70
FF
FF
ENDCHAR
STARTCHAR uni20A5
ENCODING 8357
SWIDTH 602 0
DWIDTH 10 0
BBX 9 11 0 -1
BITMAP
0200
DB80
FF80
CD80
CC80
CC80
CC80
CC80
CC80
DC80
1000
ENDCHAR
STARTCHAR uni20A6
ENCODING 8358
SWIDTH 602 0
DWIDTH 10 0
BBX 10 12 0 0
BITMAP
7380
7380
7B80
FFC0
FFC0
6F80
6F80
FFC0
FFC0
6780
6780
6380
ENDCHAR
STARTCHAR uni20A7
ENCODING 8359
SWIDTH 602 0
DWIDTH 10 0
BBX 10 12 0 0
BITMAP
E400
F400
9400
9F80
9F80
9640
F700
E580
84C0
84C0
8780
8780
ENDCHAR
STARTCHAR uni20A8
ENCODING 8360
SWIDTH 602 0
DWIDTH 10 0
BBX 10 12 0 0
BITMAP
F000
F800
D800
DB80
DF80
FE00
F700
DB80
D8C0
C8C0
CF80
CF80
ENDCHAR
STARTCHAR uni20A9
ENCODING 8361
SWIDTH 602 0
DWIDTH 10 0
BBX 10 12 0 0
BITMAP
CC80
CC80
FFC0
4D80
FFC0
5580
7580
7780
7300
7300
3300
3300
ENDCHAR
STARTCHAR uni20AA
ENCODING 8362
SWIDTH 602 0
DWIDTH 10 0
BBX 10 12 0 0
BITMAP
F8C0
FCC0
C6C0
C6C0
D6C0
D6C0
D6C0
D6C0
D0C0
D8C0
CFC0
CFC0
ENDCHAR
STARTCHAR uni20AB
ENCODING 8363
SWIDTH 602 0
DWIDTH 10 0
BBX 9 15 2 -3
BITMAP
1F80
1F80
0700
7F00
FF00
E700
C700
C700
C700
E700
FF00
7F00
0000
3E00
3E00
ENDCHAR
STARTCHAR uni20AC
ENCODING 8364
SWIDTH 602 0
DWIDTH 10 0
BBX 8 12 0 0
BITMAP
0F
1F
39
30
7E
FE
7C
FC
30
39
1F
0F
ENDCHAR
STARTCHAR uni20AD
ENCODING 8365
SWIDTH 602 0
DWIDTH 10 0
BBX 9 12 0 0
BITMAP
6380
6700
6600
6C00
7C00
FF00
7C00
7C00
6E00
6700
6300
6380
ENDCHAR
STARTCHAR uni20AE
ENCODING 8366
SWIDTH 602 0
DWIDTH 10 0
BBX 10 12 0 0
BITMAP
FFC0
FFC0
0C00
0C00
0E00
0C00
1E00
0C00
1C00
2C00
0C00
0C00
ENDCHAR
STARTCHAR uni20AF
ENCODING 8367
SWIDTH 602 0
DWIDTH 10 0
BBX 10 15 0 -3
BITMAP
3800
6800
2400
2400
2400
2480
2580
2540
E540
ED80
FB80
DB80
0200
0200
0200
ENDCHAR
STARTCHAR uni20B0
ENCODING 8368
SWIDTH 602 0
DWIDTH 10 0
BBX 9 12 0 0
BITMAP
0700
0F80
0D80
0D80
0D80
7700
FF80
4F80
0180
0180
0380
0300
ENDCHAR
STARTCHAR uni20B1
ENCODING 8369
SWIDTH 602 0
DWIDTH 10 0
BBX 10 12 0 0
BITMAP
7E00
7F00
7380
FFC0
FFC0
7380
7F00
7E00
7000
7000
7000
7000
ENDCHAR
STARTCHAR uni20B2
ENCODING 8370
SWIDTH 602 0
DWIDTH 10 0
BBX 9 14 0 -1
BITMAP
0400
1F00
3F80
7480
6400
E400
E580
E580
E580
6580
7580
3F80
1F00
0400
ENDCHAR
STARTCHAR uni20B3
ENCODING 8371
SWIDTH 602 0
DWIDTH 10 0
BBX 9 12 0 0
BITMAP
1C00
1C00
1E00
1E00
3E00
FF80
FF80
FF80
FF80
6380
6180
E180
ENDCHAR
STARTCHAR uni20B4
ENCODING 8372
SWIDTH 602 0
DWIDTH 10 0
BBX 10 12 0 0
BITMAP
3E00
3F00
4380
FFC0
FFC0
1F00
3C00
FFC0
FFC0
6080
7F80
3F00
ENDCHAR
STARTCHAR uni20B5
ENCODING 8373
SWIDTH 602 0
DWIDTH 10 0
BBX 9 14 0 -2
BITMAP
0200
1F00
3F80
7A80
7200
E200
E200
E200
7200
7A80
3F80
1F80
0200
0200
ENDCHAR
STARTCHAR uni20B7
ENCODING 8375
SWIDTH 602 0
DWIDTH 10 0
BBX 10 13 0 -1
BITMAP
0FC0
1F80
3880
3000
3800
1F00
0F80
0380
7980
7B80
FF00
BC00
A800
ENDCHAR
STARTCHAR uni20B8
ENCODING 8376
SWIDTH 602 0
DWIDTH 10 0
BBX 8 12 1 0
BITMAP
FF
FF
00
FF
FF
18
18
18
18
18
18
18
ENDCHAR
STARTCHAR uni20B9
ENCODING 8377
SWIDTH 602 0
DWIDTH 10 0
BBX 8 12 1 0
BITMAP
FF
FE
1C
FF
FE
F8
F0
38
18
1C
0C
0E
ENDCHAR
STARTCHAR uni2116
ENCODING 8470
SWIDTH 602 0
DWIDTH 10 0
BBX 9 12 0 0
BITMAP
DB00
DB80
DA80
FA80
FA80
FB80
FB00
F800
FB80
DB80
D800
D800
ENDCHAR
STARTCHAR uni2122
ENCODING 8482
SWIDTH 602 0
DWIDTH 10 0
BBX 9 5 0 7
BITMAP
ED80
4D80
4A80
4880
4880
ENDCHAR
STARTCHAR uni2126
ENCODING 8486
SWIDTH 602 0
DWIDTH 10 0
BBX 8 12 1 0
BITMAP
3C
7E
E6
C7
C7
C7
C7
C7
E6
6E
EF
EF
ENDCHAR
STARTCHAR uni2150
ENCODING 8528
SWIDTH 602 0
DWIDTH 10 0
BBX 9 15 0 -3
BITMAP
F000
3000
3000
3000
3000
FC00
0780
7800
8F80
0180
0300
0300
0200
0600
0400
ENDCHAR
STARTCHAR uni2151
ENCODING 8529
SWIDTH 602 0
DWIDTH 10 0
BBX 9 15 0 -2
BITMAP
F000
3000
3000
3000
3000
FC00
0380
1E00
F000
8F00
0980
0980
0F80
0180
0F00
ENDCHAR
STARTCHAR uni2153
ENCODING 8531
SWIDTH 602 0
DWIDTH 10 0
BBX 9 15 0 -2
BITMAP
F000
3000
3000
3000
3000
FC00
0780
7800
8F00
0180
0180
0700
0180
0180
0F00
ENDCHAR
STARTCHAR uni2154
ENCODING 8532
SWIDTH 602 0
DWIDTH 10 0
BBX 9 15 0 -2
BITMAP
F800
8800
1800
3000
6000
F800
0780
7800
8F00
0180
0180
0700
0180
0180
0F00
ENDCHAR
STARTCHAR uni2155
ENCODING 8533
SWIDTH 602 0
DWIDTH 10 0
BBX 9 15 0 -2
BITMAP
F000
3000
3000
3000
3000
FC00
0780
7800
8F00
0800
0800
0F00
0180
0180
0F00
ENDCHAR
STARTCHAR uni2156
ENCODING 8534
SWIDTH 602 0
DWIDTH 10 0
BBX 9 15 0 -2
BITMAP
F800
8800
1800
3000
6000
F800
0780
7800
8F00
0800
0800
0F00
0180
0180
0F00
ENDCHAR
STARTCHAR uni2157
ENCODING 8535
SWIDTH 602 0
DWIDTH 10 0
BBX 9 15 0 -2
BITMAP
F800
0800
3000
0800
0C00
F880
0780
7800
8F00
0800
0800
0F00
0180
0180
0F00
ENDCHAR
STARTCHAR uni2158
ENCODING 8536
SWIDTH 602 0
DWIDTH 10 0
BBX 9 15 0 -2
BITMAP
1000
3000
5000
9000
F800
1000
1080
0F00
F000
8F00
0800
0F00
0180
0180
0F00
ENDCHAR
STARTCHAR uni2159
ENCODING 8537
SWIDTH 602 0
DWIDTH 10 0
BBX 9 15 0 -2
BITMAP
F000
3000
3000
3000
3000
FC00
0780
7800
8780
0C80
0800
0F80
0C80
0C80
0700
ENDCHAR
STARTCHAR uni215A
ENCODING 8538
SWIDTH 602 0
DWIDTH 10 0
BBX 9 15 0 -2
BITMAP
7800
4000
7800
0800
0800
F880
0780
7800
8780
0C80
0800
0F80
0C80
0C80
0700
ENDCHAR
STARTCHAR uni215B
ENCODING 8539
SWIDTH 602 0
DWIDTH 10 0
BBX 9 15 0 -2
BITMAP
F000
3000
3000
3000
3000
FC00
0780
7800
8700
0980
0980
0700
0980
0980
0F00
ENDCHAR
STARTCHAR uni215C
ENCODING 8540
SWIDTH 602 0
DWIDTH 10 0
BBX 9 15 0 -2
BITMAP
F800
0800
3000
0800
0C00
F880
0780
7800
8700
0980
0980
0700
0980
0980
0F00
ENDCHAR
STARTCHAR uni215D
ENCODING 8541
SWIDTH 602 0
DWIDTH 10 0
BBX 9 15 0 -2
BITMAP
7800
4000
7800
0800
0800
F880
0780
7800
8700
0980
0980
0700
0980
0980
0F00
ENDCHAR
STARTCHAR uni215E
ENCODING 8542
SWIDTH 602 0
DWIDTH 10 0
BBX 9 15 0 -2
BITMAP
F800
1800
1000
3000
2000
6000
0380
7C00
8700
0980
0980
0700
0980
0980
0F00
ENDCHAR
STARTCHAR uni215F
ENCODING 8543
SWIDTH 602 0
DWIDTH 10 0
BBX 9 9 0 4
BITMAP
F000
3000
3000
3000
3000
FC00
0780
F800
4000
ENDCHAR
STARTCHAR uni2189
ENCODING 8585
SWIDTH 602 0
DWIDTH 10 0
BBX 9 15 0 -2
BITMAP
7800
C800
C800
E800
C800
7880
0780
7800
8F00
0180
0180
0700
0180
0180
0F00
ENDCHAR
STARTCHAR uni2190
ENCODING 8592
SWIDTH 602 0
DWIDTH 10 0
BBX 8 6 1 2
BITMAP
40
60
FF
FF
C0
60
ENDCHAR
STARTCHAR uni2191
ENCODING 8593
SWIDTH 602 0
DWIDTH 10 0
BBX 6 9 2 0
BITMAP
30
78
FC
30
30
30
30
30
30
ENDCHAR
STARTCHAR uni2192
ENCODING 8594
SWIDTH 602 0
DWIDTH 10 0
BBX 8 6 1 2
BITMAP
04
06
FF
FF
06
04
ENDCHAR
STARTCHAR uni2193
ENCODING 8595
SWIDTH 602 0
DWIDTH 10 0
BBX 6 9 2 0
BITMAP
30
30
30
30
30
30
FC
78
30
ENDCHAR
STARTCHAR uni2194
ENCODING 8596
SWIDTH 602 0
DWIDTH 10 0
BBX 8 6 1 2
BITMAP
44
66
FF
FF
C6
64
ENDCHAR
STARTCHAR uni2195
ENCODING 8597
SWIDTH 602 0
DWIDTH 10 0
BBX 6 9 2 0
BITMAP
30
78
FC
30
30
30
FC
78
30
ENDCHAR
STARTCHAR uni2196
ENCODING 8598
SWIDTH 602 0
DWIDTH 10 0
BBX 7 8 1 0
BITMAP
70
F0
E0
F0
1C
0E
06
02
ENDCHAR
STARTCHAR uni2197
ENCODING 8599
SWIDTH 602 0
DWIDTH 10 0
BBX 7 8 1 0
BITMAP
1E
1E
0E
1E
38
70
E0
40
ENDCHAR
STARTCHAR uni2198
ENCODING 8600
SWIDTH 602 0
DWIDTH 10 0
BBX 7 7 1 0
BITMAP
40
E0
30
1A
0E
06
1E
ENDCHAR
STARTCHAR uni2199
ENCODING 8601
SWIDTH 602 0
DWIDTH 10 0
BBX 7 7 1 0
BITMAP
02
06
0C
D8
F0
E0
70
ENDCHAR
STARTCHAR uni219A
ENCODING 8602
SWIDTH 602 0
DWIDTH 10 0
BBX 8 6 1 2
BITMAP
42
67
FF
FF
DC
68
ENDCHAR
STARTCHAR uni219B
ENCODING 8603
SWIDTH 602 0
DWIDTH 10 0
BBX 8 6 1 2
BITMAP
24
36
FF
FF
E6
44
ENDCHAR
STARTCHAR uni219C
ENCODING 8604
SWIDTH 602 0
DWIDTH 10 0
BBX 9 4 0 3
BITMAP
7B00
FF80
FC00
D800
ENDCHAR
STARTCHAR uni219D
ENCODING 8605
SWIDTH 602 0
DWIDTH 10 0
BBX 8 4 1 3
BITMAP
EF
FF
1F
1D
ENDCHAR
STARTCHAR uni219E
ENCODING 8606
SWIDTH 602 0
DWIDTH 10 0
BBX 8 6 1 2
BITMAP
48
78
FF
FF
D8
68
ENDCHAR
STARTCHAR uni219F
ENCODING 8607
SWIDTH 602 0
DWIDTH 10 0
BBX 6 9 2 0
BITMAP
30
78
FC
30
78
BC
30
30
30
ENDCHAR
STARTCHAR uni21A0
ENCODING 8608
SWIDTH 602 0
DWIDTH 10 0
BBX 8 6 1 2
BITMAP
14
3E
FF
FF
1E
34
ENDCHAR
STARTCHAR uni21A1
ENCODING 8609
SWIDTH 602 0
DWIDTH 10 0
BBX 6 9 2 0
BITMAP
30
30
30
BC
F8
70
FC
78
30
ENDCHAR
STARTCHAR uni21A2
ENCODING 8610
SWIDTH 602 0
DWIDTH 10 0
BBX 8 6 1 2
BITMAP
41
63
FE
FE
C3
61
ENDCHAR
STARTCHAR uni21A3
ENCODING 8611
SWIDTH 602 0
DWIDTH 10 0
BBX 8 6 1 2
BITMAP
84
C6
7F
7F
C6
84
ENDCHAR
STARTCHAR uni21A4
ENCODING 8612
SWIDTH 602 0
DWIDTH 10 0
BBX 8 6 1 2
BITMAP
41
E1
FF
FF
C1
61
ENDCHAR
STARTCHAR uni21A5
ENCODING 8613
SWIDTH 602 0
DWIDTH 10 0
BBX 6 9 2 0
BITMAP
30
78
FC
30
30
30
30
FC
FC
ENDCHAR
STARTCHAR uni21A6
ENCODING 8614
SWIDTH 602 0
DWIDTH 10 0
BBX 8 6 1 2
BITMAP
84
86
FF
FF
86
84
ENDCHAR
STARTCHAR uni21A7
ENCODING 8615
SWIDTH 602 0
DWIDTH 10 0
BBX 6 9 2 0
BITMAP
FC
FC
30
30
30
30
FC
78
30
ENDCHAR
STARTCHAR uni21A8
ENCODING 8616
SWIDTH 602 0
DWIDTH 10 0
BBX 6 9 2 0
BITMAP
30
78
FC
30
B8
FC
70
FC
FC
ENDCHAR
STARTCHAR uni21A9
ENCODING 8617
SWIDTH 602 0
DWIDTH 10 0
BBX 8 7 1 2
BITMAP
02
43
E3
FF
FE
C0
60
ENDCHAR
STARTCHAR uni21AA
ENCODING 8618
SWIDTH 602 0
DWIDTH 10 0
BBX 8 7 1 2
BITMAP
40
C4
86
FF
FF
06
04
ENDCHAR
STARTCHAR uni21AB
ENCODING 8619
SWIDTH 602 0
DWIDTH 10 0
BBX 8 7 1 2
BITMAP
06
4F
EB
FF
FE
F8
40
ENDCHAR
STARTCHAR uni21AC
ENCODING 8620
SWIDTH 602 0
DWIDTH 10 0
BBX 8 7 1 2
BITMAP
60
F4
B6
FF
FF
36
04
ENDCHAR
STARTCHAR uni21AD
ENCODING 8621
SWIDTH 602 0
DWIDTH 10 0
BBX 8 6 1 1
BITMAP
64
DA
FF
E7
E6
44
ENDCHAR
STARTCHAR uni21AE
ENCODING 8622
SWIDTH 602 0
DWIDTH 10 0
BBX 8 6 1 2
BITMAP
4C
7E
FF
FF
D6
74
ENDCHAR
STARTCHAR uni21AF
ENCODING 8623
SWIDTH 602 0
DWIDTH 10 0
BBX 9 11 0 0
BITMAP
3000
6100
6700
6F00
7B00
6300
8200
0A00
1E80
0F80
0600
ENDCHAR
STARTCHAR uni21B0
ENCODING 8624
SWIDTH 602 0
DWIDTH 10 0
BBX 7 11 1 0
BITMAP
30
60
FE
FE
72
22
02
02
02
02
02
ENDCHAR
STARTCHAR uni21B1
ENCODING 8625
SWIDTH 602 0
DWIDTH 10 0
BBX 7 11 1 0
BITMAP
08
0C
FE
FE
CC
C8
C0
C0
C0
C0
C0
ENDCHAR
STARTCHAR uni21B2
ENCODING 8626
SWIDTH 602 0
DWIDTH 10 0
BBX 7 11 1 0
BITMAP
02
02
02
02
02
22
72
FE
FE
60
30
ENDCHAR
STARTCHAR uni21B3
ENCODING 8627
SWIDTH 602 0
DWIDTH 10 0
BBX 7 11 1 0
BITMAP
C0
C0
C0
C0
C0
C8
CC
FE
FE
0C
08
ENDCHAR
STARTCHAR uni21B4
ENCODING 8628
SWIDTH 602 0
DWIDTH 10 0
BBX 7 9 1 0
BITMAP
F8
F8
08
08
08
08
2A
1E
0C
ENDCHAR
STARTCHAR uni21B5
ENCODING 8629
SWIDTH 602 0
DWIDTH 10 0
BBX 9 7 0 0
BITMAP
0080
2080
7080
FF80
FF80
6000
3000
ENDCHAR
STARTCHAR uni21B6
ENCODING 8630
SWIDTH 602 0
DWIDTH 10 0
BBX 9 6 0 2
BITMAP
0E00
1F00
1980
FC80
7800
3000
ENDCHAR
STARTCHAR uni21B7
ENCODING 8631
SWIDTH 602 0
DWIDTH 10 0
BBX 9 6 0 3
BITMAP
1000
7C00
6600
CA80
0F00
0600
ENDCHAR
STARTCHAR uni21B8
ENCODING 8632
SWIDTH 602 0
DWIDTH 10 0
BBX 9 9 0 0
BITMAP
FF80
3800
7800
7000
7800
6C00
0600
0300
0100
ENDCHAR
STARTCHAR uni21B9
ENCODING 8633
SWIDTH 602 0
DWIDTH 10 0
BBX 8 11 1 0
BITMAP
90
B0
FF
FF
B0
99
0D
FF
FF
0D
09
ENDCHAR
STARTCHAR uni21BA
ENCODING 8634
SWIDTH 602 0
DWIDTH 10 0
BBX 9 9 0 0
BITMAP
0380
0780
4700
6780
C780
C180
6300
7F00
1E00
ENDCHAR
STARTCHAR uni21BB
ENCODING 8635
SWIDTH 602 0
DWIDTH 10 0
BBX 9 9 0 0
BITMAP
F000
F800
7980
7980
7980
6180
6180
3F00
1E00
ENDCHAR
STARTCHAR uni21BC
ENCODING 8636
SWIDTH 602 0
DWIDTH 10 0
BBX 8 4 1 4
BITMAP
40
60
FF
FF
ENDCHAR
STARTCHAR uni21BD
ENCODING 8637
SWIDTH 602 0
DWIDTH 10 0
BBX 8 4 1 2
BITMAP
FF
FF
C0
60
ENDCHAR
STARTCHAR uni21BE
ENCODING 8638
SWIDTH 602 0
DWIDTH 10 0
BBX 4 9 4 0
BITMAP
C0
E0
F0
C0
C0
C0
C0
C0
C0
ENDCHAR
STARTCHAR uni21BF
ENCODING 8639
SWIDTH 602 0
DWIDTH 10 0
BBX 4 9 2 0
BITMAP
30
70
F0
30
30
30
30
30
30
ENDCHAR
STARTCHAR uni21C0
ENCODING 8640
SWIDTH 602 0
DWIDTH 10 0
BBX 8 4 1 4
BITMAP
04
06
FF
FF
ENDCHAR
STARTCHAR uni21C1
ENCODING 8641
SWIDTH 602 0
DWIDTH 10 0
BBX 8 4 1 2
BITMAP
FF
FF
06
04
ENDCHAR
STARTCHAR uni21C2
ENCODING 8642
SWIDTH 602 0
DWIDTH 10 0
BBX 4 9 4 0
BITMAP
C0
C0
C0
C0
C0
C0
F0
E0
C0
ENDCHAR
STARTCHAR uni21C3
ENCODING 8643
SWIDTH 602 0
DWIDTH 10 0
BBX 4 9 2 0
BITMAP
30
30
30
30
30
30
F0
70
30
ENDCHAR
STARTCHAR uni21C4
ENCODING 8644
SWIDTH 602 0
DWIDTH 10 0
BBX 8 10 1 0
BITMAP
04
06
FF
FF
46
E4
FF
FF
C0
60
ENDCHAR
STARTCHAR uni21C5
ENCODING 8645
SWIDTH 602 0
DWIDTH 10 0
BBX 10 9 0 0
BITMAP
3300
7B00
FF00
3300
3300
3300
3FC0
3780
3300
ENDCHAR
STARTCHAR uni21C6
ENCODING 8646
SWIDTH 602 0
DWIDTH 10 0
BBX 8 10 1 0
BITMAP
40
E0
FF
FF
C4
66
FF
FF
06
04
ENDCHAR
STARTCHAR uni21C7
ENCODING 8647
SWIDTH 602 0
DWIDTH 10 0
BBX 8 10 1 0
BITMAP
40
E0
FF
FF
C0
E0
FF
FF
C0
60
ENDCHAR
STARTCHAR uni21C8
ENCODING 8648
SWIDTH 602 0
DWIDTH 10 0
BBX 10 9 0 0
BITMAP
3300
7F80
FFC0
3300
3300
3300
3300
3300
3300
ENDCHAR
STARTCHAR uni21C9
ENCODING 8649
SWIDTH 602 0
DWIDTH 10 0
BBX 8 10 1 0
BITMAP
04
06
FF
FF
06
06
FF
FF
06
04
ENDCHAR
STARTCHAR uni21CA
ENCODING 8650
SWIDTH 602 0
DWIDTH 10 0
BBX 10 9 0 0
BITMAP
3300
3300
3300
3300
3300
3300
FFC0
7F80
3300
ENDCHAR
STARTCHAR uni21CB
ENCODING 8651
SWIDTH 602 0
DWIDTH 10 0
BBX 8 10 1 0
BITMAP
40
E0
FF
FF
00
00
FF
FF
06
04
ENDCHAR
STARTCHAR uni21CC
ENCODING 8652
SWIDTH 602 0
DWIDTH 10 0
BBX 8 10 1 0
BITMAP
04
06
FF
FF
00
00
FF
FF
C0
60
ENDCHAR
STARTCHAR uni21CD
ENCODING 8653
SWIDTH 602 0
DWIDTH 10 0
BBX 8 5 1 2
BITMAP
66
FF
88
FF
70
ENDCHAR
STARTCHAR uni21CE
ENCODING 8654
SWIDTH 602 0
DWIDTH 10 0
BBX 8 6 1 2
BITMAP
54
76
FF
91
FF
54
ENDCHAR
STARTCHAR uni21CF
ENCODING 8655
SWIDTH 602 0
DWIDTH 10 0
BBX 8 5 1 2
BITMAP
16
FF
21
FF
46
ENDCHAR
STARTCHAR uni21D0
ENCODING 8656
SWIDTH 602 0
DWIDTH 10 0
BBX 8 5 1 2
BITMAP
60
FF
80
FF
60
ENDCHAR
STARTCHAR uni21D1
ENCODING 8657
SWIDTH 602 0
DWIDTH 10 0
BBX 6 9 2 0
BITMAP
30
78
DC
50
50
50
50
50
50
ENDCHAR
STARTCHAR uni21D2
ENCODING 8658
SWIDTH 602 0
DWIDTH 10 0
BBX 8 5 1 2
BITMAP
06
FF
01
FF
06
ENDCHAR
STARTCHAR uni21D3
ENCODING 8659
SWIDTH 602 0
DWIDTH 10 0
BBX 6 9 2 0
BITMAP
50
50
50
50
50
50
DC
78
30
ENDCHAR
STARTCHAR uni21D4
ENCODING 8660
SWIDTH 602 0
DWIDTH 10 0
BBX 8 5 1 2
BITMAP
66
FF
81
FF
66
ENDCHAR
STARTCHAR uni21D5
ENCODING 8661
SWIDTH 602 0
DWIDTH 10 0
BBX 6 9 2 0
BITMAP
30
78
DC
50
50
50
DC
78
30
ENDCHAR
STARTCHAR uni21D6
ENCODING 8662
SWIDTH 602 0
DWIDTH 10 0
BBX 7 8 1 0
BITMAP
70
F0
90
C8
24
12
0A
04
ENDCHAR
STARTCHAR uni21D7
ENCODING 8663
SWIDTH 602 0
DWIDTH 10 0
BBX 8 8 1 0
BITMAP
0E
0F
0B
17
28
50
A0
60
ENDCHAR
STARTCHAR uni21D8
ENCODING 8664
SWIDTH 602 0
DWIDTH 10 0
BBX 8 7 1 0
BITMAP
60
90
48
27
13
0B
0E
ENDCHAR
STARTCHAR uni21D9
ENCODING 8665
SWIDTH 602 0
DWIDTH 10 0
BBX 7 7 1 0
BITMAP
04
0A
14
A8
D0
A0
F0
ENDCHAR
STARTCHAR uni21DA
ENCODING 8666
SWIDTH 602 0
DWIDTH 10 0
BBX 8 6 1 1
BITMAP
40
7F
C0
FF
FF
40
ENDCHAR
STARTCHAR uni21DB
ENCODING 8667
SWIDTH 602 0
DWIDTH 10 0
BBX 8 6 1 1
BITMAP
04
FE
03
FF
FE
04
ENDCHAR
STARTCHAR uni21DC
ENCODING 8668
SWIDTH 602 0
DWIDTH 10 0
BBX 8 6 1 2
BITMAP
40
64
ED
FF
D2
60
ENDCHAR
STARTCHAR uni21DD
ENCODING 8669
SWIDTH 602 0
DWIDTH 10 0
BBX 8 6 1 2
BITMAP
04
26
FF
DF
8E
04
ENDCHAR
STARTCHAR uni21E0
ENCODING 8672
SWIDTH 602 0
DWIDTH 10 0
BBX 8 6 1 2
BITMAP
40
60
ED
ED
C0
60
ENDCHAR
STARTCHAR uni21E1
ENCODING 8673
SWIDTH 602 0
DWIDTH 10 0
BBX 6 9 2 0
BITMAP
30
78
FC
30
00
30
30
30
30
ENDCHAR
STARTCHAR uni21E2
ENCODING 8674
SWIDTH 602 0
DWIDTH 10 0
BBX 8 6 1 2
BITMAP
04
06
AF
AF
06
04
ENDCHAR
STARTCHAR uni21E3
ENCODING 8675
SWIDTH 602 0
DWIDTH 10 0
BBX 6 9 2 0
BITMAP
30
30
00
30
30
30
FC
78
30
ENDCHAR
STARTCHAR uni21E4
ENCODING 8676
SWIDTH 602 0
DWIDTH 10 0
BBX 8 6 1 2
BITMAP
90
B0
FF
FF
A0
90
ENDCHAR
STARTCHAR uni21E5
ENCODING 8677
SWIDTH 602 0
DWIDTH 10 0
BBX 8 6 1 2
BITMAP
09
0D
FF
FF
0D
09
ENDCHAR
STARTCHAR uni21E6
ENCODING 8678
SWIDTH 602 0
DWIDTH 10 0
BBX 9 7 0 1
BITMAP
1000
2000
7F80
8080
7F80
2000
1000
ENDCHAR
STARTCHAR uni21E7
ENCODING 8679
SWIDTH 602 0
DWIDTH 10 0
BBX 6 9 2 0
BITMAP
20
50
CC
50
50
50
50
50
70
ENDCHAR
STARTCHAR uni21E8
ENCODING 8680
SWIDTH 602 0
DWIDTH 10 0
BBX 9 7 1 1
BITMAP
0400
0600
FD00
8180
FD00
0600
0400
ENDCHAR
STARTCHAR uni21E9
ENCODING 8681
SWIDTH 602 0
DWIDTH 10 0
BBX 6 9 2 0
BITMAP
70
50
50
50
50
50
CC
48
30
ENDCHAR
STARTCHAR uni21EB
ENCODING 8683
SWIDTH 602 0
DWIDTH 10 0
BBX 6 9 2 0
BITMAP
20
50
CC
50
50
50
50
8C
FC
ENDCHAR
STARTCHAR uni21EC
ENCODING 8684
SWIDTH 602 0
DWIDTH 10 0
BBX 6 9 2 0
BITMAP
30
48
FC
50
50
50
50
8C
FC
ENDCHAR
STARTCHAR uni21ED
ENCODING 8685
SWIDTH 602 0
DWIDTH 10 0
BBX 6 9 2 0
BITMAP
20
50
EC
70
70
70
70
AC
FC
ENDCHAR
STARTCHAR uni21EE
ENCODING 8686
SWIDTH 602 0
DWIDTH 10 0
BBX 6 9 2 0
BITMAP
20
50
BC
48
CC
50
50
50
70
ENDCHAR
STARTCHAR uni21EF
ENCODING 8687
SWIDTH 602 0
DWIDTH 10 0
BBX 6 9 2 0
BITMAP
20
50
BC
48
CC
50
50
8C
FC
ENDCHAR
STARTCHAR uni21F0
ENCODING 8688
SWIDTH 602 0
DWIDTH 10 0
BBX 9 6 1 1
BITMAP
C400
FF00
8080
FD00
C600
C400
ENDCHAR
STARTCHAR uni21F1
ENCODING 8689
SWIDTH 602 0
DWIDTH 10 0
BBX 9 9 0 0
BITMAP
FF80
8000
9C00
BC00
B800
BE00
8700
8380
8180
ENDCHAR
STARTCHAR uni21F2
ENCODING 8690
SWIDTH 602 0
DWIDTH 10 0
BBX 9 9 0 0
BITMAP
4080
E080
3080
1B80
0F80
0F80
1E80
0080
FF80
ENDCHAR
STARTCHAR uni21F3
ENCODING 8691
SWIDTH 602 0
DWIDTH 10 0
BBX 6 8 2 0
BITMAP
30
48
CC
50
50
CC
48
30
ENDCHAR
STARTCHAR uni21F4
ENCODING 8692
SWIDTH 602 0
DWIDTH 10 0
BBX 8 5 1 2
BITMAP
76
FF
FF
FE
74
ENDCHAR
STARTCHAR uni21F5
ENCODING 8693
SWIDTH 602 0
DWIDTH 10 0
BBX 10 9 0 0
BITMAP
3300
3780
3FC0
3300
3300
3300
FF00
7B00
3300
ENDCHAR
STARTCHAR uni21F6
ENCODING 8694
SWIDTH 602 0
DWIDTH 10 0
BBX 8 13 1 -2
BITMAP
04
06
FF
FF
06
FF
FF
06
06
FF
FF
06
04
ENDCHAR
STARTCHAR uni21F7
ENCODING 8695
SWIDTH 602 0
DWIDTH 10 0
BBX 8 6 1 2
BITMAP
48
E8
FF
FF
C8
68
ENDCHAR
STARTCHAR uni21F8
ENCODING 8696
SWIDTH 602 0
DWIDTH 10 0
BBX 8 6 1 2
BITMAP
34
36
FF
FF
36
34
ENDCHAR
STARTCHAR uni21F9
ENCODING 8697
SWIDTH 602 0
DWIDTH 10 0
BBX 8 6 1 1
BITMAP
5C
FE
FF
FF
FE
5C
ENDCHAR
STARTCHAR uni21FA
ENCODING 8698
SWIDTH 602 0
DWIDTH 10 0
BBX 8 6 1 2
BITMAP
5A
FA
FF
FF
DA
7A
ENDCHAR
STARTCHAR uni21FB
ENCODING 8699
SWIDTH 602 0
DWIDTH 10 0
BBX 8 6 1 2
BITMAP
54
56
FF
FF
56
54
ENDCHAR
STARTCHAR uni21FC
ENCODING 8700
SWIDTH 602 0
DWIDTH 10 0
BBX 8 6 1 2
BITMAP
5C
FE
FF
FF
DE
7C
ENDCHAR
STARTCHAR uni21FD
ENCODING 8701
SWIDTH 602 0
DWIDTH 10 0
BBX 9 6 0 2
BITMAP
2000
2000
7F80
FF80
6000
2000
ENDCHAR
STARTCHAR uni21FE
ENCODING 8702
SWIDTH 602 0
DWIDTH 10 0
BBX 9 6 1 2
BITMAP
0400
0600
FD00
FD80
0600
0400
ENDCHAR
STARTCHAR uni21FF
ENCODING 8703
SWIDTH 602 0
DWIDTH 10 0
BBX 10 6 0 2
BITMAP
2200
2300
7E80
FEC0
6300
2200
ENDCHAR
STARTCHAR uni2200
ENCODING 8704
SWIDTH 602 0
DWIDTH 10 0
BBX 9 12 0 0
BITMAP
E180
6180
6380
7F00
7F00
3300
3300
3600
3E00
1E00
1E00
1C00
ENDCHAR
STARTCHAR uni2201
ENCODING 8705
SWIDTH 602 0
DWIDTH 10 0
BBX 9 12 0 0
BITMAP
1E00
7F80
7380
E000
E000
E000
E000
E000
E180
7380
7F00
1E00
ENDCHAR
STARTCHAR uni2202
ENCODING 8706
SWIDTH 602 0
DWIDTH 10 0
BBX 8 11 1 0
BITMAP
3C
32
02
02
3B
67
C6
C6
C6
4C
78
ENDCHAR
STARTCHAR uni2203
ENCODING 8707
SWIDTH 602 0
DWIDTH 10 0
BBX 8 12 1 0
BITMAP
FF
FF
07
07
07
FF
FF
07
07
07
FF
FF
ENDCHAR
STARTCHAR uni2204
ENCODING 8708
SWIDTH 602 0
DWIDTH 10 0
BBX 8 13 1 -1
BITMAP
FF
FF
1F
1F
17
FF
FF
37
27
27
FF
FF
40
ENDCHAR
STARTCHAR uni2205
ENCODING 8709
SWIDTH 602 0
DWIDTH 10 0
BBX 9 9 0 0
BITMAP
1E80
3F80
6300
4780
4C80
5980
7180
FF00
5E00
ENDCHAR
STARTCHAR uni2206
ENCODING 8710
SWIDTH 602 0
DWIDTH 10 0
BBX 10 11 0 0
BITMAP
0C00
1C00
1E00
1E00
3600
3300
3300
6300
6180
FF80
FFC0
ENDCHAR
STARTCHAR uni2207
ENCODING 8711
SWIDTH 602 0
DWIDTH 10 0
BBX 10 11 0 0
BITMAP
FFC0
FF80
6180
6300
3300
3300
3600
1E00
1E00
1C00
0C00
ENDCHAR
STARTCHAR uni2208
ENCODING 8712
SWIDTH 602 0
DWIDTH 10 0
BBX 8 12 1 0
BITMAP
3F
7F
60
C0
C0
FF
FF
C0
C0
60
7F
3F
ENDCHAR
STARTCHAR uni2209
ENCODING 8713
SWIDTH 602 0
DWIDTH 10 0
BBX 8 16 1 -2
BITMAP
02
03
3F
7F
66
CC
CC
FF
FF
D8
D0
70
7F
7F
60
20
ENDCHAR
STARTCHAR uni220A
ENCODING 8714
SWIDTH 602 0
DWIDTH 10 0
BBX 8 8 1 1
BITMAP
3F
7F
C0
FF
FF
C0
7F
3F
ENDCHAR
STARTCHAR uni220B
ENCODING 8715
SWIDTH 602 0
DWIDTH 10 0
BBX 8 12 1 0
BITMAP
F8
FC
06
02
03
FF
FF
03
02
06
FC
F8
ENDCHAR
STARTCHAR uni220C
ENCODING 8716
SWIDTH 602 0
DWIDTH 10 0
BBX 8 16 1 -2
BITMAP
04
06
FC
FC
0E
1B
1B
FF
FF
33
63
66
FE
F8
C0
40
ENDCHAR
STARTCHAR uni220D
ENCODING 8717
SWIDTH 602 0
DWIDTH 10 0
BBX 8 8 1 1
BITMAP
FC
FE
07
FF
FF
03
FE
FC
ENDCHAR
STARTCHAR uni220E
ENCODING 8718
SWIDTH 602 0
DWIDTH 10 0
BBX 6 10 2 0
BITMAP
FC
FC
FC
FC
FC
FC
FC
FC
FC
FC
ENDCHAR
STARTCHAR uni220F
ENCODING 8719
SWIDTH 602 0
DWIDTH 10 0
BBX 7 15 1 -3
BITMAP
FE
FE
C6
C6
C6
C6
C6
C6
C6
C6
C6
C6
C6
C6
C6
ENDCHAR
STARTCHAR uni2210
ENCODING 8720
SWIDTH 602 0
DWIDTH 10 0
BBX 7 15 1 -3
BITMAP
C6
C6
C6
C6
C6
C6
C6
C6
C6
C6
C6
C6
C6
FE
FE
ENDCHAR
STARTCHAR uni2211
ENCODING 8721
SWIDTH 602 0
DWIDTH 10 0
BBX 8 15 1 -3
BITMAP
FF
FF
60
60
30
18
18
0C
18
18
30
60
60
FF
FF
ENDCHAR
STARTCHAR uni2212
ENCODING 8722
SWIDTH 602 0
DWIDTH 10 0
BBX 8 2 1 4
BITMAP
FF
FF
ENDCHAR
STARTCHAR uni2213
ENCODING 8723
SWIDTH 602 0
DWIDTH 10 0
BBX 8 10 1 0
BITMAP
FF
FF
00
18
18
FF
FF
18
18
18
ENDCHAR
STARTCHAR uni2217
ENCODING 8727
SWIDTH 602 0
DWIDTH 10 0
BBX 8 7 1 2
BITMAP
10
92
F7
18
7F
92
10
ENDCHAR
STARTCHAR uni2218
ENCODING 8728
SWIDTH 602 0
DWIDTH 10 0
BBX 5 6 2 3
BITMAP
30
78
C8
C8
78
70
ENDCHAR
STARTCHAR uni221A
ENCODING 8730
SWIDTH 602 0
DWIDTH 10 0
BBX 9 14 0 0
BITMAP
0180
0180
0180
0300
0300
0300
2200
F600
B600
3600
1C00
1C00
1C00
0800
ENDCHAR
STARTCHAR uni221B
ENCODING 8731
SWIDTH 602 0
DWIDTH 10 0
BBX 9 15 0 0
BITMAP
7800
0D80
0980
3980
0F00
0F00
7B00
1200
E600
7600
3600
1400
1C00
1C00
0800
ENDCHAR
STARTCHAR uni221C
ENCODING 8732
SWIDTH 602 0
DWIDTH 10 0
BBX 9 15 0 0
BITMAP
1800
3980
7980
5980
FF00
1B00
1B00
2200
F600
B600
3600
1C00
1C00
1C00
0800
ENDCHAR
STARTCHAR uni221D
ENCODING 8733
SWIDTH 602 0
DWIDTH 10 0
BBX 7 7 1 2
BITMAP
32
7E
CE
CC
CC
7E
32
ENDCHAR
STARTCHAR uni221E
ENCODING 8734
SWIDTH 602 0
DWIDTH 10 0
BBX 10 7 0 2
BITMAP
7300
7F80
DC80
CCC0
DC80
FF80
7300
ENDCHAR
STARTCHAR uni221F
ENCODING 8735
SWIDTH 602 0
DWIDTH 10 0
BBX 8 9 1 2
BITMAP
C0
C0
C0
C0
C0
C0
C0
FF
FF
ENDCHAR
STARTCHAR uni2220
ENCODING 8736
SWIDTH 602 0
DWIDTH 10 0
BBX 8 9 1 2
BITMAP
03
06
0C
0C
18
30
20
7F
FF
ENDCHAR
STARTCHAR uni2223
ENCODING 8739
SWIDTH 602 0
DWIDTH 10 0
BBX 2 16 4 -4
BITMAP
C0
C0
C0
C0
C0
C0
C0
C0
C0
C0
C0
C0
C0
C0
C0
C0
ENDCHAR
STARTCHAR uni2227
ENCODING 8743
SWIDTH 602 0
DWIDTH 10 0
BBX 7 9 1 0
BITMAP
38
3C
3C
3C
6C
6C
6E
66
E6
ENDCHAR
STARTCHAR uni2228
ENCODING 8744
SWIDTH 602 0
DWIDTH 10 0
BBX 7 9 1 0
BITMAP
E6
66
6E
6C
6C
3C
3C
3C
38
ENDCHAR
STARTCHAR uni2229
ENCODING 8745
SWIDTH 602 0
DWIDTH 10 0
BBX 7 9 1 0
BITMAP
3C
7E
66
C6
C6
C6
C6
C6
C6
ENDCHAR
STARTCHAR uni222A
ENCODING 8746
SWIDTH 602 0
DWIDTH 10 0
BBX 7 10 1 0
BITMAP
C6
C6
C6
C6
C6
C6
C6
66
7E
3C
ENDCHAR
STARTCHAR uni222B
ENCODING 8747
SWIDTH 602 0
DWIDTH 10 0
BBX 8 15 1 -3
BITMAP
07
0B
08
18
18
18
18
18
18
18
18
10
10
F0
E0
ENDCHAR
STARTCHAR uni222C
ENCODING 8748
SWIDTH 602 0
DWIDTH 10 0
BBX 10 18 0 -3
BITMAP
1D80
3BC0
3300
3300
3300
3300
3300
3300
3300
3300
3300
3300
3300
3300
3300
3300
FF00
EE00
ENDCHAR
STARTCHAR uni222D
ENCODING 8749
SWIDTH 602 0
DWIDTH 10 0
BBX 10 17 0 -3
BITMAP
3FC0
7F80
6D80
6D80
6D80
6D80
6D80
6D80
6D80
6D80
6D80
6D80
6D80
6D80
6D80
6D80
DB00
ENDCHAR
STARTCHAR uni2234
ENCODING 8756
SWIDTH 602 0
DWIDTH 10 0
BBX 8 9 1 1
BITMAP
38
38
38
00
00
00
E7
E7
E7
ENDCHAR
STARTCHAR uni2235
ENCODING 8757
SWIDTH 602 0
DWIDTH 10 0
BBX 7 9 1 1
BITMAP
E6
E6
E6
00
00
00
18
18
18
ENDCHAR
STARTCHAR uni2236
ENCODING 8758
SWIDTH 602 0
DWIDTH 10 0
BBX 3 9 3 1
BITMAP
E0
E0
E0
00
00
00
60
60
60
ENDCHAR
STARTCHAR uni2237
ENCODING 8759
SWIDTH 602 0
DWIDTH 10 0
BBX 8 9 1 1
BITMAP
E6
E6
E6
00
00
00
E7
E7
E7
ENDCHAR
STARTCHAR uni2238
ENCODING 8760
SWIDTH 602 0
DWIDTH 10 0
BBX 8 6 1 4
BITMAP
18
18
18
00
FF
FF
ENDCHAR
STARTCHAR uni2239
ENCODING 8761
SWIDTH 602 0
DWIDTH 10 0
BBX 8 9 1 1
BITMAP
03
03
03
00
F8
F8
03
03
03
ENDCHAR
STARTCHAR uni223A
ENCODING 8762
SWIDTH 602 0
DWIDTH 10 0
BBX 9 9 0 0
BITMAP
E180
E180
E180
7F80
7F80
0000
E180
E180
E180
ENDCHAR
STARTCHAR uni223B
ENCODING 8763
SWIDTH 602 0
DWIDTH 10 0
BBX 8 10 1 0
BITMAP
18
18
18
71
FF
8E
00
18
18
18
ENDCHAR
STARTCHAR uni223C
ENCODING 8764
SWIDTH 602 0
DWIDTH 10 0
BBX 8 3 1 4
BITMAP
71
FF
8E
ENDCHAR
STARTCHAR uni223D
ENCODING 8765
SWIDTH 602 0
DWIDTH 10 0
BBX 8 3 1 4
BITMAP
8E
FF
F1
ENDCHAR
STARTCHAR uni2241
ENCODING 8769
SWIDTH 602 0
DWIDTH 10 0
BBX 8 9 1 1
BITMAP
08
0C
08
79
FF
9E
30
30
20
ENDCHAR
STARTCHAR uni2242
ENCODING 8770
SWIDTH 602 0
DWIDTH 10 0
BBX 8 6 1 2
BITMAP
FF
FF
00
71
FF
8E
ENDCHAR
STARTCHAR uni2243
ENCODING 8771
SWIDTH 602 0
DWIDTH 10 0
BBX 8 6 1 2
BITMAP
71
FF
8E
00
FF
FF
ENDCHAR
STARTCHAR uni2244
ENCODING 8772
SWIDTH 602 0
DWIDTH 10 0
BBX 8 10 1 0
BITMAP
04
06
25
FF
9E
10
FF
FF
40
40
ENDCHAR
STARTCHAR uni2245
ENCODING 8773
SWIDTH 602 0
DWIDTH 10 0
BBX 8 10 1 0
BITMAP
F1
FF
8E
00
FF
FF
00
00
FF
FF
ENDCHAR
STARTCHAR uni2246
ENCODING 8774
SWIDTH 602 0
DWIDTH 10 0
BBX 8 11 1 -1
BITMAP
F1
FF
8E
04
FF
FF
18
10
FF
FF
60
ENDCHAR
STARTCHAR uni2247
ENCODING 8775
SWIDTH 602 0
DWIDTH 10 0
BBX 8 12 1 -2
BITMAP
06
F7
FF
0C
FF
FF
30
30
FF
FF
60
20
ENDCHAR
STARTCHAR uni2248
ENCODING 8776
SWIDTH 602 0
DWIDTH 10 0
BBX 8 6 1 2
BITMAP
F1
FF
8E
71
FF
8E
ENDCHAR
STARTCHAR uni2249
ENCODING 8777
SWIDTH 602 0
DWIDTH 10 0
BBX 8 10 1 0
BITMAP
08
0C
FD
FF
9E
79
FF
BE
60
10
ENDCHAR
STARTCHAR uni224A
ENCODING 8778
SWIDTH 602 0
DWIDTH 10 0
BBX 8 9 1 1
BITMAP
F1
FF
8E
71
FF
8E
00
FF
FF
ENDCHAR
STARTCHAR uni224B
ENCODING 8779
SWIDTH 602 0
DWIDTH 10 0
BBX 8 9 1 0
BITMAP
FF
FF
00
F1
FF
8E
71
FF
8E
ENDCHAR
STARTCHAR uni224C
ENCODING 8780
SWIDTH 602 0
DWIDTH 10 0
BBX 8 10 1 0
BITMAP
8E
FF
F1
00
FF
FF
00
00
FF
FF
ENDCHAR
STARTCHAR uni224D
ENCODING 8781
SWIDTH 602 0
DWIDTH 10 0
BBX 8 7 1 2
BITMAP
C3
FF
3C
00
3C
FF
83
ENDCHAR
STARTCHAR uni224E
ENCODING 8782
SWIDTH 602 0
DWIDTH 10 0
BBX 8 10 1 0
BITMAP
18
3C
E7
C7
00
00
C7
E7
3C
38
ENDCHAR
STARTCHAR uni224F
ENCODING 8783
SWIDTH 602 0
DWIDTH 10 0
BBX 8 8 1 2
BITMAP
18
3C
E7
C7
00
00
FF
FF
ENDCHAR
STARTCHAR uni2250
ENCODING 8784
SWIDTH 602 0
DWIDTH 10 0
BBX 8 9 1 3
BITMAP
18
18
18
00
FF
FF
00
FF
FF
ENDCHAR
STARTCHAR uni2251
ENCODING 8785
SWIDTH 602 0
DWIDTH 10 0
BBX 8 13 1 -1
BITMAP
18
18
18
00
FF
FF
00
FF
FF
00
18
18
18
ENDCHAR
STARTCHAR uni2252
ENCODING 8786
SWIDTH 602 0
DWIDTH 10 0
BBX 8 13 1 -1
BITMAP
C0
C0
C0
00
FF
FF
00
FF
FF
00
07
07
07
ENDCHAR
STARTCHAR uni2253
ENCODING 8787
SWIDTH 602 0
DWIDTH 10 0
BBX 8 13 1 -1
BITMAP
07
07
07
00
FF
FF
00
FF
FF
00
C0
C0
C0
ENDCHAR
STARTCHAR uni2254
ENCODING 8788
SWIDTH 602 0
DWIDTH 10 0
BBX 8 6 1 2
BITMAP
BF
BF
80
80
BF
BF
ENDCHAR
STARTCHAR uni2255
ENCODING 8789
SWIDTH 602 0
DWIDTH 10 0
BBX 8 6 1 2
BITMAP
FB
FB
03
03
FB
FB
ENDCHAR
STARTCHAR uni2256
ENCODING 8790
SWIDTH 602 0
DWIDTH 10 0
BBX 8 6 1 2
BITMAP
FF
FF
24
64
FF
FF
ENDCHAR
STARTCHAR uni2257
ENCODING 8791
SWIDTH 602 0
DWIDTH 10 0
BBX 8 11 1 2
BITMAP
38
3C
64
3C
38
FF
FF
00
00
FF
FF
ENDCHAR
STARTCHAR uni2258
ENCODING 8792
SWIDTH 602 0
DWIDTH 10 0
BBX 8 9 1 3
BITMAP
3C
FE
C2
00
FF
FF
00
FF
FF
ENDCHAR
STARTCHAR uni2259
ENCODING 8793
SWIDTH 602 0
DWIDTH 10 0
BBX 8 11 1 2
BITMAP
18
18
38
2C
64
00
FF
FF
00
FF
FF
ENDCHAR
STARTCHAR uni225A
ENCODING 8794
SWIDTH 602 0
DWIDTH 10 0
BBX 8 11 1 2
BITMAP
64
2C
38
18
18
00
FF
FF
00
FF
FF
ENDCHAR
STARTCHAR uni225B
ENCODING 8795
SWIDTH 602 0
DWIDTH 10 0
BBX 8 13 1 2
BITMAP
10
10
5E
3C
38
28
24
00
FF
FF
00
FF
FF
ENDCHAR
STARTCHAR uni225C
ENCODING 8796
SWIDTH 602 0
DWIDTH 10 0
BBX 8 12 1 2
BITMAP
10
18
38
2C
2C
7C
FF
FF
00
00
FF
FF
ENDCHAR
STARTCHAR uni225D
ENCODING 8797
SWIDTH 602 0
DWIDTH 10 0
BBX 8 10 1 2
BITMAP
23
FB
BE
FA
00
FF
FF
00
FF
FF
ENDCHAR
STARTCHAR uni225E
ENCODING 8798
SWIDTH 602 0
DWIDTH 10 0
BBX 8 10 1 2
BITMAP
F6
DA
DA
DA
FF
FF
00
00
FF
FF
ENDCHAR
STARTCHAR uni225F
ENCODING 8799
SWIDTH 602 0
DWIDTH 10 0
BBX 8 12 1 2
BITMAP
38
0C
18
10
10
10
FF
FF
00
00
FF
FF
ENDCHAR
STARTCHAR uni2260
ENCODING 8800
SWIDTH 602 0
DWIDTH 10 0
BBX 8 10 1 0
BITMAP
03
06
FF
FF
18
18
FF
FF
C0
C0
ENDCHAR
STARTCHAR uni2261
ENCODING 8801
SWIDTH 602 0
DWIDTH 10 0
BBX 8 9 1 0
BITMAP
FF
FF
00
FF
FF
00
00
FF
FF
ENDCHAR
STARTCHAR uni2262
ENCODING 8802
SWIDTH 602 0
DWIDTH 10 0
BBX 8 11 1 -1
BITMAP
06
FF
FF
0C
FF
FF
30
30
FF
FF
E0
ENDCHAR
STARTCHAR uni2263
ENCODING 8803
SWIDTH 602 0
DWIDTH 10 0
BBX 8 12 1 -1
BITMAP
FF
FF
00
FF
FF
00
00
FF
FF
00
FF
FF
ENDCHAR
STARTCHAR uni2264
ENCODING 8804
SWIDTH 602 0
DWIDTH 10 0
BBX 8 9 1 0
BITMAP
07
3F
F8
E0
7E
0F
01
FF
FF
ENDCHAR
STARTCHAR uni2265
ENCODING 8805
SWIDTH 602 0
DWIDTH 10 0
BBX 8 9 1 0
BITMAP
C0
F8
1F
0F
7E
F0
80
FF
FF
ENDCHAR
STARTCHAR uni2266
ENCODING 8806
SWIDTH 602 0
DWIDTH 10 0
BBX 8 12 1 -2
BITMAP
07
3F
F8
E0
7E
0F
01
FF
FF
00
FF
FF
ENDCHAR
STARTCHAR uni2267
ENCODING 8807
SWIDTH 602 0
DWIDTH 10 0
BBX 8 12 1 -2
BITMAP
C0
F8
1F
0F
7E
F0
80
FF
FF
00
FF
FF
ENDCHAR
STARTCHAR uni2268
ENCODING 8808
SWIDTH 602 0
DWIDTH 10 0
BBX 8 13 1 -3
BITMAP
07
3F
F8
E0
7E
0F
05
FF
FF
18
FF
FF
60
ENDCHAR
STARTCHAR uni2269
ENCODING 8809
SWIDTH 602 0
DWIDTH 10 0
BBX 8 13 1 -3
BITMAP
C0
F8
1F
0F
7E
F0
84
FF
FF
18
FF
FF
60
ENDCHAR
STARTCHAR uni226D
ENCODING 8813
SWIDTH 602 0
DWIDTH 10 0
BBX 8 12 1 0
BITMAP
04
06
0C
CF
FF
3C
18
3C
FF
F3
60
60
ENDCHAR
STARTCHAR uni226E
ENCODING 8814
SWIDTH 602 0
DWIDTH 10 0
BBX 8 10 1 0
BITMAP
06
07
0F
7C
E8
F8
7C
3F
23
20
ENDCHAR
STARTCHAR uni226F
ENCODING 8815
SWIDTH 602 0
DWIDTH 10 0
BBX 8 10 1 0
BITMAP
04
8C
F8
3E
17
1F
3C
F0
A0
60
ENDCHAR
STARTCHAR uni2270
ENCODING 8816
SWIDTH 602 0
DWIDTH 10 0
BBX 8 13 1 -2
BITMAP
04
06
07
3F
FC
E8
7E
1F
11
FF
FF
60
20
ENDCHAR
STARTCHAR uni2271
ENCODING 8817
SWIDTH 602 0
DWIDTH 10 0
BBX 8 13 1 -2
BITMAP
08
0C
C8
F8
1F
1F
7E
F0
A0
FF
FF
C0
40
ENDCHAR
STARTCHAR uni2272
ENCODING 8818
SWIDTH 602 0
DWIDTH 10 0
BBX 8 9 1 0
BITMAP
03
1F
FC
C0
FC
1F
03
FF
FF
ENDCHAR
STARTCHAR uni2273
ENCODING 8819
SWIDTH 602 0
DWIDTH 10 0
BBX 8 9 1 0
BITMAP
C0
F8
3F
07
3E
F0
80
FF
FF
ENDCHAR
STARTCHAR uni2274
ENCODING 8820
SWIDTH 602 0
DWIDTH 10 0
BBX 8 11 1 -1
BITMAP
06
07
1F
FC
C8
FC
1F
13
FF
FF
60
ENDCHAR
STARTCHAR uni2275
ENCODING 8821
SWIDTH 602 0
DWIDTH 10 0
BBX 8 12 1 -1
BITMAP
0C
88
F8
3F
17
3F
F8
A0
71
FF
CE
40
ENDCHAR
STARTCHAR uni2276
ENCODING 8822
SWIDTH 602 0
DWIDTH 10 0
BBX 8 13 1 -2
BITMAP
03
1F
FC
C0
F8
1F
C3
F8
3F
07
7E
F0
80
ENDCHAR
STARTCHAR uni2277
ENCODING 8823
SWIDTH 602 0
DWIDTH 10 0
BBX 8 13 1 -2
BITMAP
80
F0
3F
07
3F
F8
C3
1F
F8
E0
FC
0F
01
ENDCHAR
STARTCHAR uni2278
ENCODING 8824
SWIDTH 602 0
DWIDTH 10 0
BBX 8 15 1 -3
BITMAP
06
07
1F
FC
CC
F8
1F
DB
F8
3F
37
7E
F0
E0
60
ENDCHAR
STARTCHAR uni2279
ENCODING 8825
SWIDTH 602 0
DWIDTH 10 0
BBX 8 15 1 -3
BITMAP
06
86
FC
3F
0F
3F
F8
DB
1F
F8
F0
FC
6F
61
60
ENDCHAR
STARTCHAR uni227A
ENCODING 8826
SWIDTH 602 0
DWIDTH 10 0
BBX 8 12 1 -1
BITMAP
01
01
03
0E
3C
F8
F8
3C
0F
03
01
01
ENDCHAR
STARTCHAR uni227B
ENCODING 8827
SWIDTH 602 0
DWIDTH 10 0
BBX 8 12 1 -1
BITMAP
80
80
C0
E0
7C
1F
1F
78
E0
C0
80
80
ENDCHAR
STARTCHAR uni227C
ENCODING 8828
SWIDTH 602 0
DWIDTH 10 0
BBX 8 15 1 -3
BITMAP
01
03
07
1E
F8
F0
3C
0F
E3
F9
1D
06
03
01
01
ENDCHAR
STARTCHAR uni227D
ENCODING 8829
SWIDTH 602 0
DWIDTH 10 0
BBX 8 15 1 -3
BITMAP
80
80
E0
78
1F
1F
7C
E0
C7
9F
B8
60
C0
80
80
ENDCHAR
STARTCHAR uni227E
ENCODING 8830
SWIDTH 602 0
DWIDTH 10 0
BBX 8 14 1 -2
BITMAP
01
01
03
0E
FC
F0
F8
1E
07
03
01
61
FF
8E
ENDCHAR
STARTCHAR uni227F
ENCODING 8831
SWIDTH 602 0
DWIDTH 10 0
BBX 8 14 1 -2
BITMAP
80
80
C0
E0
3F
0F
3F
78
E0
80
80
71
FF
8E
ENDCHAR
STARTCHAR uni2280
ENCODING 8832
SWIDTH 602 0
DWIDTH 10 0
BBX 8 14 1 -2
BITMAP
02
07
07
07
0E
3C
FC
F8
3C
1F
33
31
31
60
ENDCHAR
STARTCHAR uni2281
ENCODING 8833
SWIDTH 602 0
DWIDTH 10 0
BBX 8 14 1 -2
BITMAP
0C
8C
8C
D8
F8
7C
3F
3F
7C
E0
E0
E0
C0
40
ENDCHAR
STARTCHAR uni2282
ENCODING 8834
SWIDTH 602 0
DWIDTH 10 0
BBX 8 8 1 1
BITMAP
3F
FF
C0
80
80
C0
FF
3F
ENDCHAR
STARTCHAR uni2283
ENCODING 8835
SWIDTH 602 0
DWIDTH 10 0
BBX 8 8 1 1
BITMAP
FC
FE
03
03
03
03
FE
FC
ENDCHAR
STARTCHAR uni2284
ENCODING 8836
SWIDTH 602 0
DWIDTH 10 0
BBX 8 12 1 -1
BITMAP
06
04
3F
FF
C8
D8
90
F0
FF
3F
60
60
ENDCHAR
STARTCHAR uni2285
ENCODING 8837
SWIDTH 602 0
DWIDTH 10 0
BBX 8 12 1 -1
BITMAP
06
04
FC
FE
0B
1B
13
33
FE
FC
60
60
ENDCHAR
STARTCHAR uni2286
ENCODING 8838
SWIDTH 602 0
DWIDTH 10 0
BBX 8 11 1 0
BITMAP
3F
7F
C0
C0
80
C0
FF
3F
00
FF
FF
ENDCHAR
STARTCHAR uni2287
ENCODING 8839
SWIDTH 602 0
DWIDTH 10 0
BBX 8 11 1 0
BITMAP
FC
FE
03
03
03
03
FE
FC
00
FF
FF
ENDCHAR
STARTCHAR uni2288
ENCODING 8840
SWIDTH 602 0
DWIDTH 10 0
BBX 8 14 1 -2
BITMAP
06
3F
7F
CC
D8
98
D0
FF
3F
20
FF
FF
C0
40
ENDCHAR
STARTCHAR uni2289
ENCODING 8841
SWIDTH 602 0
DWIDTH 10 0
BBX 8 14 1 -2
BITMAP
06
FC
FE
0F
1B
1B
13
FE
FC
20
FF
FF
C0
40
ENDCHAR
STARTCHAR uni228A
ENCODING 8842
SWIDTH 602 0
DWIDTH 10 0
BBX 8 13 1 -2
BITMAP
3F
7F
C0
C0
80
C0
FF
3F
0C
FF
FF
70
20
ENDCHAR
STARTCHAR uni228B
ENCODING 8843
SWIDTH 602 0
DWIDTH 10 0
BBX 8 13 1 -2
BITMAP
FC
FE
03
03
03
03
FE
FC
0C
FF
FF
70
20
ENDCHAR
STARTCHAR uni228D
ENCODING 8845
SWIDTH 602 0
DWIDTH 10 0
BBX 8 11 1 0
BITMAP
C3
C3
C3
C3
C3
DB
DB
C3
C3
FE
7C
ENDCHAR
STARTCHAR uni228E
ENCODING 8846
SWIDTH 602 0
DWIDTH 10 0
BBX 8 11 1 0
BITMAP
C3
C3
C3
C3
D3
FB
D3
C3
C3
FE
7C
ENDCHAR
STARTCHAR uni228F
ENCODING 8847
SWIDTH 602 0
DWIDTH 10 0
BBX 8 9 1 1
BITMAP
FF
FF
C0
C0
C0
C0
C0
FF
FF
ENDCHAR
STARTCHAR uni2290
ENCODING 8848
SWIDTH 602 0
DWIDTH 10 0
BBX 8 9 1 1
BITMAP
FF
FF
03
03
03
03
03
FF
FF
ENDCHAR
STARTCHAR uni2291
ENCODING 8849
SWIDTH 602 0
DWIDTH 10 0
BBX 8 10 1 0
BITMAP
FF
FF
C0
C0
C0
FF
FF
00
FF
FF
ENDCHAR
STARTCHAR uni2292
ENCODING 8850
SWIDTH 602 0
DWIDTH 10 0
BBX 8 10 1 0
BITMAP
FF
FF
03
03
03
FF
FF
00
FF
FF
ENDCHAR
STARTCHAR uni2293
ENCODING 8851
SWIDTH 602 0
DWIDTH 10 0
BBX 9 10 0 0
BITMAP
FF80
FF80
C180
C180
C180
C180
C180
C180
C180
C180
ENDCHAR
STARTCHAR uni2294
ENCODING 8852
SWIDTH 602 0
DWIDTH 10 0
BBX 9 10 0 0
BITMAP
C180
C180
C180
C180
C180
C180
C180
C180
FF80
FF80
ENDCHAR
STARTCHAR uni2295
ENCODING 8853
SWIDTH 602 0
DWIDTH 10 0
BBX 9 10 0 0
BITMAP
1E00
3F00
6380
C980
FF80
FF80
C880
6980
7F00
1E00
ENDCHAR
STARTCHAR uni2296
ENCODING 8854
SWIDTH 602 0
DWIDTH 10 0
BBX 9 10 0 0
BITMAP
1E00
3F00
6380
C180
FF80
FF80
C080
6180
7F00
1E00
ENDCHAR
STARTCHAR uni2297
ENCODING 8855
SWIDTH 602 0
DWIDTH 10 0
BBX 9 10 0 0
BITMAP
1E00
3F00
6380
F780
DC80
DC80
F680
6180
7F00
1E00
ENDCHAR
STARTCHAR uni2298
ENCODING 8856
SWIDTH 602 0
DWIDTH 10 0
BBX 9 10 0 0
BITMAP
1E00
3F00
6380
C780
CC80
D880
F080
6180
7F00
1E00
ENDCHAR
STARTCHAR uni2299
ENCODING 8857
SWIDTH 602 0
DWIDTH 10 0
BBX 9 10 0 0
BITMAP
1E00
3F00
6380
C180
CC80
CC80
CC80
6180
7F00
1E00
ENDCHAR
STARTCHAR uni229A
ENCODING 8858
SWIDTH 602 0
DWIDTH 10 0
BBX 9 10 0 0
BITMAP
1E00
3F00
6380
CD80
DE80
D280
DE80
6D80
7F00
1E00
ENDCHAR
STARTCHAR uni229B
ENCODING 8859
SWIDTH 602 0
DWIDTH 10 0
BBX 9 9 0 0
BITMAP
1E00
7F00
6980
FB80
DC80
FF80
6980
7F00
1E00
ENDCHAR
STARTCHAR uni229C
ENCODING 8860
SWIDTH 602 0
DWIDTH 10 0
BBX 9 10 0 0
BITMAP
1E00
3F00
6380
C180
FE80
C080
FE80
6180
7F00
1E00
ENDCHAR
STARTCHAR uni229D
ENCODING 8861
SWIDTH 602 0
DWIDTH 10 0
BBX 9 10 0 0
BITMAP
1E00
3F00
6380
C180
DE80
DE80
C080
6180
7F00
1E00
ENDCHAR
STARTCHAR uni229E
ENCODING 8862
SWIDTH 602 0
DWIDTH 10 0
BBX 9 9 0 1
BITMAP
FF80
FF80
C880
C880
FF80
FF80
C880
FF80
FF80
ENDCHAR
STARTCHAR uni229F
ENCODING 8863
SWIDTH 602 0
DWIDTH 10 0
BBX 9 9 0 1
BITMAP
FF80
FF80
C080
C080
FF80
FF80
C080
FF80
FF80
ENDCHAR
STARTCHAR uni22A0
ENCODING 8864
SWIDTH 602 0
DWIDTH 10 0
BBX 9 9 0 1
BITMAP
FF80
FF80
F380
DE80
CC80
DE80
F380
FF80
FF80
ENDCHAR
STARTCHAR uni22A1
ENCODING 8865
SWIDTH 602 0
DWIDTH 10 0
BBX 9 9 0 1
BITMAP
FF80
FF80
C080
CC80
CC80
CC80
C080
FF80
FF80
ENDCHAR
STARTCHAR uni22A2
ENCODING 8866
SWIDTH 602 0
DWIDTH 10 0
BBX 8 10 1 0
BITMAP
80
80
80
80
FF
FF
80
80
80
80
ENDCHAR
STARTCHAR uni22A3
ENCODING 8867
SWIDTH 602 0
DWIDTH 10 0
BBX 8 10 1 0
BITMAP
03
03
03
03
FF
FF
03
03
03
03
ENDCHAR
STARTCHAR uni22A4
ENCODING 8868
SWIDTH 602 0
DWIDTH 10 0
BBX 8 10 1 0
BITMAP
FF
FF
18
18
18
18
18
18
18
18
ENDCHAR
STARTCHAR uni22B2
ENCODING 8882
SWIDTH 602 0
DWIDTH 10 0
BBX 8 8 1 1
BITMAP
03
0F
7F
E3
E3
7F
0F
03
ENDCHAR
STARTCHAR uni22B3
ENCODING 8883
SWIDTH 602 0
DWIDTH 10 0
BBX 8 8 1 1
BITMAP
C0
F0
FE
C7
CF
FC
F0
80
ENDCHAR
STARTCHAR uni22B4
ENCODING 8884
SWIDTH 602 0
DWIDTH 10 0
BBX 8 9 1 0
BITMAP
07
3F
FB
E3
7F
0F
01
FF
FF
ENDCHAR
STARTCHAR uni22B5
ENCODING 8885
SWIDTH 602 0
DWIDTH 10 0
BBX 8 9 1 0
BITMAP
C0
F8
DF
CF
FE
F0
80
FF
FF
ENDCHAR
STARTCHAR uni22B8
ENCODING 8888
SWIDTH 602 0
DWIDTH 10 0
BBX 9 4 0 3
BITMAP
0380
FC80
FC80
0380
ENDCHAR
STARTCHAR uni22C2
ENCODING 8898
SWIDTH 602 0
DWIDTH 10 0
BBX 8 15 1 -3
BITMAP
7C
FE
C3
C3
C3
C3
C3
C3
C3
C3
C3
C3
C3
C3
C3
ENDCHAR
STARTCHAR uni22C3
ENCODING 8899
SWIDTH 602 0
DWIDTH 10 0
BBX 8 16 1 -4
BITMAP
C3
C3
C3
C3
C3
C3
C3
C3
C3
C3
C3
C3
C3
C3
FE
7C
ENDCHAR
STARTCHAR uni22C4
ENCODING 8900
SWIDTH 602 0
DWIDTH 10 0
BBX 10 10 0 1
BITMAP
0800
0C00
1E00
3300
6180
C0C0
6100
3200
1C00
0800
ENDCHAR
STARTCHAR uni22C5
ENCODING 8901
SWIDTH 602 0
DWIDTH 10 0
BBX 2 3 4 4
BITMAP
C0
C0
C0
ENDCHAR
STARTCHAR uni22C6
ENCODING 8902
SWIDTH 602 0
DWIDTH 10 0
BBX 6 6 2 3
BITMAP
20
20
FC
30
50
48
ENDCHAR
STARTCHAR uni22CD
ENCODING 8909
SWIDTH 602 0
DWIDTH 10 0
BBX 8 6 1 2
BITMAP
8E
FF
F1
00
FF
FF
ENDCHAR
STARTCHAR uni22CE
ENCODING 8910
SWIDTH 602 0
DWIDTH 10 0
BBX 10 10 0 0
BITMAP
E3C0
7300
3F00
1E00
1E00
1C00
1C00
0C00
0C00
0C00
ENDCHAR
STARTCHAR uni22CF
ENCODING 8911
SWIDTH 602 0
DWIDTH 10 0
BBX 10 10 0 0
BITMAP
0C00
0C00
0C00
1C00
1C00
1E00
1E00
3F00
7300
E3C0
ENDCHAR
STARTCHAR uni22D0
ENCODING 8912
SWIDTH 602 0
DWIDTH 10 0
BBX 8 11 1 0
BITMAP
1F
3F
60
CF
DF
90
DF
CF
60
7F
1F
ENDCHAR
STARTCHAR uni22D1
ENCODING 8913
SWIDTH 602 0
DWIDTH 10 0
BBX 8 11 1 0
BITMAP
F0
FC
0E
F3
FB
1B
FB
F3
06
FC
F8
ENDCHAR
STARTCHAR uni22DA
ENCODING 8922
SWIDTH 602 0
DWIDTH 10 0
BBX 8 16 1 -4
BITMAP
07
3F
F8
E0
7E
0F
01
FF
FF
80
E0
FC
0F
1F
FC
E0
ENDCHAR
STARTCHAR uni22DB
ENCODING 8923
SWIDTH 602 0
DWIDTH 10 0
BBX 8 16 1 -4
BITMAP
C0
F8
1F
07
7E
F0
80
FF
FF
01
0F
7E
F0
F0
3F
07
ENDCHAR
STARTCHAR uni22DC
ENCODING 8924
SWIDTH 602 0
DWIDTH 10 0
BBX 8 9 1 0
BITMAP
FF
FF
01
0F
7E
F0
F0
3F
07
ENDCHAR
STARTCHAR uni22DD
ENCODING 8925
SWIDTH 602 0
DWIDTH 10 0
BBX 8 9 1 0
BITMAP
FF
FF
80
E0
FC
0F
1F
FC
E0
ENDCHAR
STARTCHAR uni22DE
ENCODING 8926
SWIDTH 602 0
DWIDTH 10 0
BBX 8 15 1 -3
BITMAP
01
01
03
06
1D
F9
E3
0F
3C
F0
F8
1E
07
03
01
ENDCHAR
STARTCHAR uni22DF
ENCODING 8927
SWIDTH 602 0
DWIDTH 10 0
BBX 8 15 1 -3
BITMAP
80
80
C0
60
B8
9F
C7
E0
7C
1F
1F
78
E0
80
80
ENDCHAR
STARTCHAR uni22E0
ENCODING 8928
SWIDTH 602 0
DWIDTH 10 0
BBX 8 17 1 -4
BITMAP
04
0D
0F
0F
1E
F8
F8
3C
1F
F3
F9
3C
36
33
21
61
20
ENDCHAR
STARTCHAR uni22E1
ENCODING 8929
SWIDTH 602 0
DWIDTH 10 0
BBX 8 17 1 -4
BITMAP
04
8C
8C
EC
7C
1F
1F
7C
F8
D7
BE
78
F0
F0
A0
E0
20
ENDCHAR
STARTCHAR uni22E2
ENCODING 8930
SWIDTH 602 0
DWIDTH 10 0
BBX 8 14 1 -2
BITMAP
06
06
FF
FF
CC
D8
D8
FF
FF
30
FF
FF
60
C0
ENDCHAR
STARTCHAR uni22E3
ENCODING 8931
SWIDTH 602 0
DWIDTH 10 0
BBX 8 14 1 -2
BITMAP
06
06
FF
FF
0F
1B
1B
FF
FF
30
FF
FF
60
C0
ENDCHAR
STARTCHAR uni22E4
ENCODING 8932
SWIDTH 602 0
DWIDTH 10 0
BBX 8 12 1 -2
BITMAP
FF
FF
C0
C0
C0
FF
FF
0C
FF
FF
30
20
ENDCHAR
STARTCHAR uni22E5
ENCODING 8933
SWIDTH 602 0
DWIDTH 10 0
BBX 8 12 1 -2
BITMAP
FF
FF
03
03
03
FF
FF
0C
FF
FF
30
20
ENDCHAR
STARTCHAR uni22E6
ENCODING 8934
SWIDTH 602 0
DWIDTH 10 0
BBX 8 11 1 -2
BITMAP
03
1F
FC
C0
FC
1F
0B
FF
FF
10
30
ENDCHAR
STARTCHAR uni22E7
ENCODING 8935
SWIDTH 602 0
DWIDTH 10 0
BBX 8 11 1 -2
BITMAP
C0
F8
3F
07
3E
FC
88
FF
FF
10
30
ENDCHAR
STARTCHAR uni22E8
ENCODING 8936
SWIDTH 602 0
DWIDTH 10 0
BBX 8 16 1 -4
BITMAP
01
01
03
0E
FC
F0
F8
1E
07
0B
0D
79
FF
9E
30
30
ENDCHAR
STARTCHAR uni22E9
ENCODING 8937
SWIDTH 602 0
DWIDTH 10 0
BBX 8 16 1 -4
BITMAP
80
80
C0
E0
3F
0F
3F
78
E0
8C
88
79
FF
9E
30
30
ENDCHAR
STARTCHAR uni22EF
ENCODING 8943
SWIDTH 602 0
DWIDTH 10 0
BBX 9 3 0 4
BITMAP
ED80
ED80
ED80
ENDCHAR
STARTCHAR uni2304
ENCODING 8964
SWIDTH 602 0
DWIDTH 10 0
BBX 7 5 1 -2
BITMAP
C2
64
2C
38
10
ENDCHAR
STARTCHAR uni2308
ENCODING 8968
SWIDTH 602 0
DWIDTH 10 0
BBX 4 15 3 -3
BITMAP
F0
F0
C0
C0
C0
C0
C0
C0
C0
C0
C0
C0
C0
C0
C0
ENDCHAR
STARTCHAR uni2309
ENCODING 8969
SWIDTH 602 0
DWIDTH 10 0
BBX 4 15 2 -3
BITMAP
F0
F0
30
30
30
30
30
30
30
30
30
30
30
30
30
ENDCHAR
STARTCHAR uni230A
ENCODING 8970
SWIDTH 602 0
DWIDTH 10 0
BBX 4 14 3 -2
BITMAP
C0
C0
C0
C0
C0
C0
C0
C0
C0
C0
C0
C0
C0
F0
ENDCHAR
STARTCHAR uni230B
ENCODING 8971
SWIDTH 602 0
DWIDTH 10 0
BBX 4 14 2 -2
BITMAP
30
30
30
30
30
30
30
30
30
30
30
30
30
F0
ENDCHAR
STARTCHAR uni2310
ENCODING 8976
SWIDTH 602 0
DWIDTH 10 0
BBX 8 4 1 3
BITMAP
FF
FF
C0
C0
ENDCHAR
STARTCHAR uni2320
ENCODING 8992
SWIDTH 602 0
DWIDTH 10 0
BBX 5 19 4 -4
BITMAP
38
58
48
C0
C0
C0
C0
C0
C0
C0
C0
C0
C0
C0
C0
C0
C0
C0
C0
ENDCHAR
STARTCHAR uni2321
ENCODING 8993
SWIDTH 602 0
DWIDTH 10 0
BBX 5 19 1 -4
BITMAP
18
18
18
18
18
18
18
18
18
18
18
18
18
18
10
10
30
F0
E0
ENDCHAR
STARTCHAR uni239B
ENCODING 9115
SWIDTH 602 0
DWIDTH 10 0
BBX 6 19 2 -4
BITMAP
0C
18
38
30
30
70
60
60
60
E0
C0
C0
C0
C0
C0
C0
C0
C0
C0
ENDCHAR
STARTCHAR uni239C
ENCODING 9116
SWIDTH 602 0
DWIDTH 10 0
BBX 2 19 2 -4
BITMAP
C0
C0
C0
C0
C0
C0
C0
C0
C0
C0
C0
C0
C0
C0
C0
C0
C0
C0
C0
ENDCHAR
STARTCHAR uni239D
ENCODING 9117
SWIDTH 602 0
DWIDTH 10 0
BBX 6 19 2 -4
BITMAP
C0
C0
C0
C0
C0
C0
C0
C0
C0
E0
60
60
60
70
30
30
38
18
0C
ENDCHAR
STARTCHAR uni239E
ENCODING 9118
SWIDTH 602 0
DWIDTH 10 0
BBX 6 19 2 -4
BITMAP
C0
60
60
70
30
30
38
18
18
18
18
1C
1C
1C
1C
0C
0C
0C
0C
ENDCHAR
STARTCHAR uni239F
ENCODING 9119
SWIDTH 602 0
DWIDTH 10 0
BBX 2 19 6 -4
BITMAP
C0
C0
C0
C0
C0
C0
C0
C0
C0
C0
C0
C0
C0
C0
C0
C0
C0
C0
C0
ENDCHAR
STARTCHAR uni23A0
ENCODING 9120
SWIDTH 602 0
DWIDTH 10 0
BBX 6 19 2 -4
BITMAP
0C
0C
0C
0C
1C
1C
1C
1C
18
18
18
18
38
30
30
70
60
60
C0
ENDCHAR
STARTCHAR uni23A1
ENCODING 9121
SWIDTH 602 0
DWIDTH 10 0
BBX 6 19 2 -4
BITMAP
FC
FC
C0
C0
C0
C0
C0
C0
C0
C0
C0
C0
C0
C0
C0
C0
C0
C0
C0
ENDCHAR
STARTCHAR uni23A2
ENCODING 9122
SWIDTH 602 0
DWIDTH 10 0
BBX 2 19 2 -4
BITMAP
C0
C0
C0
C0
C0
C0
C0
C0
C0
C0
C0
C0
C0
C0
C0
C0
C0
C0
C0
ENDCHAR
STARTCHAR uni23A3
ENCODING 9123
SWIDTH 602 0
DWIDTH 10 0
BBX 6 19 2 -4
BITMAP
C0
C0
C0
C0
C0
C0
C0
C0
C0
C0
C0
C0
C0
C0
C0
C0
C0
FC
FC
ENDCHAR
STARTCHAR uni23A4
ENCODING 9124
SWIDTH 602 0
DWIDTH 10 0
BBX 6 19 2 -4
BITMAP
FC
FC
0C
0C
0C
0C
0C
0C
0C
0C
0C
0C
0C
0C
0C
0C
0C
0C
0C
ENDCHAR
STARTCHAR uni23A5
ENCODING 9125
SWIDTH 602 0
DWIDTH 10 0
BBX 2 19 6 -4
BITMAP
C0
C0
C0
C0
C0
C0
C0
C0
C0
C0
C0
C0
C0
C0
C0
C0
C0
C0
C0
ENDCHAR
STARTCHAR uni23A6
ENCODING 9126
SWIDTH 602 0
DWIDTH 10 0
BBX 6 19 2 -4
BITMAP
0C
0C
0C
0C
0C
0C
0C
0C
0C
0C
0C
0C
0C
0C
0C
0C
0C
FC
FC
ENDCHAR
STARTCHAR uni23A7
ENCODING 9127
SWIDTH 602 0
DWIDTH 10 0
BBX 6 19 4 -4
BITMAP
7C
FC
C0
C0
C0
C0
C0
C0
C0
C0
C0
C0
C0
C0
C0
C0
C0
C0
C0
ENDCHAR
STARTCHAR uni23A8
ENCODING 9128
SWIDTH 602 0
DWIDTH 10 0
BBX 6 19 0 -4
BITMAP
0C
0C
0C
0C
0C
0C
0C
1C
1C
F8
F8
1C
0C
0C
0C
0C
0C
0C
0C
ENDCHAR
STARTCHAR uni23A9
ENCODING 9129
SWIDTH 602 0
DWIDTH 10 0
BBX 6 19 4 -4
BITMAP
C0
C0
C0
C0
C0
C0
C0
C0
C0
C0
C0
C0
C0
C0
C0
C0
C0
FC
7C
ENDCHAR
STARTCHAR uni23AA
ENCODING 9130
SWIDTH 602 0
DWIDTH 10 0
BBX 2 19 4 -4
BITMAP
C0
C0
C0
C0
C0
C0
C0
C0
C0
C0
C0
C0
C0
C0
C0
C0
C0
C0
C0
ENDCHAR
STARTCHAR uni23AB
ENCODING 9131
SWIDTH 602 0
DWIDTH 10 0
BBX 6 19 0 -4
BITMAP
F0
F8
0C
0C
0C
0C
0C
0C
0C
0C
0C
0C
0C
0C
0C
0C
0C
0C
0C
ENDCHAR
STARTCHAR uni23AC
ENCODING 9132
SWIDTH 602 0
DWIDTH 10 0
BBX 6 19 4 -4
BITMAP
C0
C0
C0
C0
C0
C0
C0
C0
E0
7C
7C
E0
C0
C0
C0
C0
C0
C0
C0
ENDCHAR
STARTCHAR uni23AD
ENCODING 9133
SWIDTH 602 0
DWIDTH 10 0
BBX 6 19 0 -4
BITMAP
0C
0C
0C
0C
0C
0C
0C
0C
0C
0C
0C
0C
0C
0C
0C
0C
1C
F8
F0
ENDCHAR
STARTCHAR uni23AE
ENCODING 9134
SWIDTH 602 0
DWIDTH 10 0
BBX 2 19 4 -4
BITMAP
C0
C0
C0
C0
C0
C0
C0
C0
C0
C0
C0
C0
C0
C0
C0
C0
C0
C0
C0
ENDCHAR
STARTCHAR uni2500
ENCODING 9472
SWIDTH 602 0
DWIDTH 10 0
BBX 10 2 0 5
BITMAP
FFC0
FFC0
ENDCHAR
STARTCHAR uni2501
ENCODING 9473
SWIDTH 602 0
DWIDTH 10 0
BBX 10 3 0 4
BITMAP
FFC0
FFC0
FFC0
ENDCHAR
STARTCHAR uni2502
ENCODING 9474
SWIDTH 602 0
DWIDTH 10 0
BBX 1 19 4 -4
BITMAP
80
80
80
80
80
80
80
80
80
80
80
80
80
80
80
80
80
80
80
ENDCHAR
STARTCHAR uni2503
ENCODING 9475
SWIDTH 602 0
DWIDTH 10 0
BBX 2 19 4 -4
BITMAP
C0
C0
C0
C0
C0
C0
C0
C0
C0
C0
C0
C0
C0
C0
C0
C0
C0
C0
C0
ENDCHAR
STARTCHAR uni2504
ENCODING 9476
SWIDTH 602 0
DWIDTH 10 0
BBX 9 2 0 5
BITMAP
ED80
ED80
ENDCHAR
STARTCHAR uni2505
ENCODING 9477
SWIDTH 602 0
DWIDTH 10 0
BBX 9 3 0 4
BITMAP
ED80
ED80
ED80
ENDCHAR
STARTCHAR uni2506
ENCODING 9478
SWIDTH 602 0
DWIDTH 10 0
BBX 1 17 4 -3
BITMAP
80
80
80
80
80
00
80
80
80
80
80
00
80
80
80
80
80
ENDCHAR
STARTCHAR uni2507
ENCODING 9479
SWIDTH 602 0
DWIDTH 10 0
BBX 2 17 4 -3
BITMAP
C0
C0
C0
C0
C0
00
C0
C0
C0
C0
C0
00
C0
C0
C0
C0
C0
ENDCHAR
STARTCHAR uni2508
ENCODING 9480
SWIDTH 602 0
DWIDTH 10 0
BBX 9 2 0 5
BITMAP
D680
D680
ENDCHAR
STARTCHAR uni2509
ENCODING 9481
SWIDTH 602 0
DWIDTH 10 0
BBX 9 3 0 4
BITMAP
D680
D680
D680
ENDCHAR
STARTCHAR uni250A
ENCODING 9482
SWIDTH 602 0
DWIDTH 10 0
BBX 1 17 4 -3
BITMAP
80
80
80
00
00
80
80
80
00
80
80
80
00
00
80
80
80
ENDCHAR
STARTCHAR uni250B
ENCODING 9483
SWIDTH 602 0
DWIDTH 10 0
BBX 2 17 4 -3
BITMAP
C0
C0
C0
00
00
C0
C0
C0
00
C0
C0
C0
00
00
C0
C0
C0
ENDCHAR
STARTCHAR uni250C
ENCODING 9484
SWIDTH 602 0
DWIDTH 10 0
BBX 6 11 4 -4
BITMAP
FC
FC
80
80
80
80
80
80
80
80
80
ENDCHAR
STARTCHAR uni250D
ENCODING 9485
SWIDTH 602 0
DWIDTH 10 0
BBX 6 11 4 -4
BITMAP
FC
FC
FC
80
80
80
80
80
80
80
80
ENDCHAR
STARTCHAR uni250E
ENCODING 9486
SWIDTH 602 0
DWIDTH 10 0
BBX 6 11 4 -4
BITMAP
FC
FC
C0
C0
C0
C0
C0
C0
C0
C0
C0
ENDCHAR
STARTCHAR uni250F
ENCODING 9487
SWIDTH 602 0
DWIDTH 10 0
BBX 6 11 4 -4
BITMAP
FC
FC
FC
C0
C0
C0
C0
C0
C0
C0
C0
ENDCHAR
STARTCHAR uni2510
ENCODING 9488
SWIDTH 602 0
DWIDTH 10 0
BBX 5 11 0 -4
BITMAP
F8
F8
08
08
08
08
08
08
08
08
08
ENDCHAR
STARTCHAR uni2511
ENCODING 9489
SWIDTH 602 0
DWIDTH 10 0
BBX 5 11 0 -4
BITMAP
F8
F8
F8
08
08
08
08
08
08
08
08
ENDCHAR
STARTCHAR uni2512
ENCODING 9490
SWIDTH 602 0
DWIDTH 10 0
BBX 6 11 0 -4
BITMAP
FC
FC
0C
0C
0C
0C
0C
0C
0C
0C
0C
ENDCHAR
STARTCHAR uni2513
ENCODING 9491
SWIDTH 602 0
DWIDTH 10 0
BBX 6 11 0 -4
BITMAP
FC
FC
FC
0C
0C
0C
0C
0C
0C
0C
0C
ENDCHAR
STARTCHAR uni2514
ENCODING 9492
SWIDTH 602 0
DWIDTH 10 0
BBX 6 10 4 5
BITMAP
80
80
80
80
80
80
80
80
80
FC
ENDCHAR
STARTCHAR uni2515
ENCODING 9493
SWIDTH 602 0
DWIDTH 10 0
BBX 6 11 4 4
BITMAP
80
80
80
80
80
80
80
80
FC
FC
FC
ENDCHAR
STARTCHAR uni2516
ENCODING 9494
SWIDTH 602 0
DWIDTH 10 0
BBX 6 10 4 5
BITMAP
C0
C0
C0
C0
C0
C0
C0
C0
C0
FC
ENDCHAR
STARTCHAR uni2517
ENCODING 9495
SWIDTH 602 0
DWIDTH 10 0
BBX 6 11 4 4
BITMAP
C0
C0
C0
C0
C0
C0
C0
C0
FC
FC
FC
ENDCHAR
STARTCHAR uni2518
ENCODING 9496
SWIDTH 602 0
DWIDTH 10 0
BBX 5 10 0 5
BITMAP
08
08
08
08
08
08
08
08
08
F8
ENDCHAR
STARTCHAR uni2519
ENCODING 9497
SWIDTH 602 0
DWIDTH 10 0
BBX 5 11 0 4
BITMAP
08
08
08
08
08
08
08
08
F8
F8
F8
ENDCHAR
STARTCHAR uni251A
ENCODING 9498
SWIDTH 602 0
DWIDTH 10 0
BBX 6 10 0 5
BITMAP
0C
0C
0C
0C
0C
0C
0C
0C
0C
FC
ENDCHAR
STARTCHAR uni251B
ENCODING 9499
SWIDTH 602 0
DWIDTH 10 0
BBX 6 11 0 4
BITMAP
0C
0C
0C
0C
0C
0C
0C
0C
FC
FC
FC
ENDCHAR
STARTCHAR uni251C
ENCODING 9500
SWIDTH 602 0
DWIDTH 10 0
BBX 6 19 4 -4
BITMAP
80
80
80
80
80
80
80
80
FC
FC
80
80
80
80
80
80
80
80
80
ENDCHAR
STARTCHAR uni251D
ENCODING 9501
SWIDTH 602 0
DWIDTH 10 0
BBX 6 19 4 -4
BITMAP
80
80
80
80
80
80
80
80
FC
FC
FC
80
80
80
80
80
80
80
80
ENDCHAR
STARTCHAR uni251E
ENCODING 9502
SWIDTH 602 0
DWIDTH 10 0
BBX 6 19 4 -4
BITMAP
C0
C0
C0
C0
C0
C0
C0
C0
FC
FC
80
80
80
80
80
80
80
80
80
ENDCHAR
STARTCHAR uni251F
ENCODING 9503
SWIDTH 602 0
DWIDTH 10 0
BBX 6 19 4 -4
BITMAP
80
80
80
80
80
80
80
80
80
FC
C0
C0
C0
C0
C0
C0
C0
C0
C0
ENDCHAR
STARTCHAR uni2520
ENCODING 9504
SWIDTH 602 0
DWIDTH 10 0
BBX 6 19 4 -4
BITMAP
C0
C0
C0
C0
C0
C0
C0
C0
FC
FC
C0
C0
C0
C0
C0
C0
C0
C0
C0
ENDCHAR
STARTCHAR uni2521
ENCODING 9505
SWIDTH 602 0
DWIDTH 10 0
BBX 6 19 4 -4
BITMAP
C0
C0
C0
C0
C0
C0
C0
C0
FC
FC
FC
80
80
80
80
80
80
80
80
ENDCHAR
STARTCHAR uni2522
ENCODING 9506
SWIDTH 602 0
DWIDTH 10 0
BBX 6 19 4 -4
BITMAP
80
80
80
80
80
80
80
80
FC
FC
FC
C0
C0
C0
C0
C0
C0
C0
C0
ENDCHAR
STARTCHAR uni2523
ENCODING 9507
SWIDTH 602 0
DWIDTH 10 0
BBX 6 19 4 -4
BITMAP
C0
C0
C0
C0
C0
C0
C0
C0
FC
FC
FC
C0
C0
C0
C0
C0
C0
C0
C0
ENDCHAR
STARTCHAR uni2524
ENCODING 9508
SWIDTH 602 0
DWIDTH 10 0
BBX 5 19 0 -4
BITMAP
08
08
08
08
08
08
08
08
F8
F8
08
08
08
08
08
08
08
08
08
ENDCHAR
STARTCHAR uni2525
ENCODING 9509
SWIDTH 602 0
DWIDTH 10 0
BBX 5 19 0 -4
BITMAP
08
08
08
08
08
08
08
08
F8
F8
F8
08
08
08
08
08
08
08
08
ENDCHAR
STARTCHAR uni2526
ENCODING 9510
SWIDTH 602 0
DWIDTH 10 0
BBX 6 19 0 -4
BITMAP
0C
0C
0C
0C
0C
0C
0C
0C
0C
FC
08
08
08
08
08
08
08
08
08
ENDCHAR
STARTCHAR uni2527
ENCODING 9511
SWIDTH 602 0
DWIDTH 10 0
BBX 6 19 0 -4
BITMAP
08
08
08
08
08
08
08
08
08
FC
0C
0C
0C
0C
0C
0C
0C
0C
0C
ENDCHAR
STARTCHAR uni2528
ENCODING 9512
SWIDTH 602 0
DWIDTH 10 0
BBX 6 19 0 -4
BITMAP
0C
0C
0C
0C
0C
0C
0C
0C
FC
FC
0C
0C
0C
0C
0C
0C
0C
0C
0C
ENDCHAR
STARTCHAR uni2529
ENCODING 9513
SWIDTH 602 0
DWIDTH 10 0
BBX 6 19 0 -4
BITMAP
0C
0C
0C
0C
0C
0C
0C
0C
FC
FC
FC
08
08
08
08
08
08
08
08
ENDCHAR
STARTCHAR uni252A
ENCODING 9514
SWIDTH 602 0
DWIDTH 10 0
BBX 6 19 0 -4
BITMAP
08
08
08
08
08
08
08
08
FC
FC
FC
0C
0C
0C
0C
0C
0C
0C
0C
ENDCHAR
STARTCHAR uni252B
ENCODING 9515
SWIDTH 602 0
DWIDTH 10 0
BBX 6 19 0 -4
BITMAP
0C
0C
0C
0C
0C
0C
0C
0C
FC
FC
FC
0C
0C
0C
0C
0C
0C
0C
0C
ENDCHAR
STARTCHAR uni252C
ENCODING 9516
SWIDTH 602 0
DWIDTH 10 0
BBX 10 11 0 -4
BITMAP
FFC0
FFC0
0800
0800
0800
0800
0800
0800
0800
0800
0800
ENDCHAR
STARTCHAR uni252D
ENCODING 9517
SWIDTH 602 0
DWIDTH 10 0
BBX 10 11 0 -4
BITMAP
FFC0
FFC0
F800
0800
0800
0800
0800
0800
0800
0800
0800
ENDCHAR
STARTCHAR uni252E
ENCODING 9518
SWIDTH 602 0
DWIDTH 10 0
BBX 10 11 0 -4
BITMAP
FFC0
FFC0
0FC0
0800
0800
0800
0800
0800
0800
0800
0800
ENDCHAR
STARTCHAR uni252F
ENCODING 9519
SWIDTH 602 0
DWIDTH 10 0
BBX 10 11 0 -4
BITMAP
FFC0
FFC0
FFC0
0800
0800
0800
0800
0800
0800
0800
0800
ENDCHAR
STARTCHAR uni2530
ENCODING 9520
SWIDTH 602 0
DWIDTH 10 0
BBX 10 11 0 -4
BITMAP
FFC0
FFC0
0C00
0C00
0C00
0C00
0C00
0C00
0C00
0C00
0C00
ENDCHAR
STARTCHAR uni2531
ENCODING 9521
SWIDTH 602 0
DWIDTH 10 0
BBX 10 11 0 -4
BITMAP
FFC0
FFC0
FC00
0C00
0C00
0C00
0C00
0C00
0C00
0C00
0C00
ENDCHAR
STARTCHAR uni2532
ENCODING 9522
SWIDTH 602 0
DWIDTH 10 0
BBX 10 11 0 -4
BITMAP
FFC0
FFC0
0FC0
0C00
0C00
0C00
0C00
0C00
0C00
0C00
0C00
ENDCHAR
STARTCHAR uni2533
ENCODING 9523
SWIDTH 602 0
DWIDTH 10 0
BBX 10 11 0 -4
BITMAP
FFC0
FFC0
FFC0
0C00
0C00
0C00
0C00
0C00
0C00
0C00
0C00
ENDCHAR
STARTCHAR uni2534
ENCODING 9524
SWIDTH 602 0
DWIDTH 10 0
BBX 10 10 0 5
BITMAP
0800
0800
0800
0800
0800
0800
0800
0800
0800
FFC0
ENDCHAR
STARTCHAR uni2535
ENCODING 9525
SWIDTH 602 0
DWIDTH 10 0
BBX 10 11 0 4
BITMAP
0800
0800
0800
0800
0800
0800
0800
0800
F800
FFC0
FFC0
ENDCHAR
STARTCHAR uni2536
ENCODING 9526
SWIDTH 602 0
DWIDTH 10 0
BBX 10 11 0 4
BITMAP
0800
0800
0800
0800
0800
0800
0800
0800
0FC0
FFC0
FFC0
ENDCHAR
STARTCHAR uni2537
ENCODING 9527
SWIDTH 602 0
DWIDTH 10 0
BBX 10 11 0 4
BITMAP
0800
0800
0800
0800
0800
0800
0800
0800
FFC0
FFC0
FFC0
ENDCHAR
STARTCHAR uni2538
ENCODING 9528
SWIDTH 602 0
DWIDTH 10 0
BBX 10 10 0 5
BITMAP
0C00
0C00
0C00
0C00
0C00
0C00
0C00
0C00
0C00
FFC0
ENDCHAR
STARTCHAR uni2539
ENCODING 9529
SWIDTH 602 0
DWIDTH 10 0
BBX 10 11 0 4
BITMAP
0C00
0C00
0C00
0C00
0C00
0C00
0C00
0C00
FC00
FFC0
FFC0
ENDCHAR
STARTCHAR uni253A
ENCODING 9530
SWIDTH 602 0
DWIDTH 10 0
BBX 10 11 0 4
BITMAP
0C00
0C00
0C00
0C00
0C00
0C00
0C00
0C00
0FC0
FFC0
FFC0
ENDCHAR
STARTCHAR uni253B
ENCODING 9531
SWIDTH 602 0
DWIDTH 10 0
BBX 10 11 0 4
BITMAP
0C00
0C00
0C00
0C00
0C00
0C00
0C00
0C00
FFC0
FFC0
FFC0
ENDCHAR
STARTCHAR uni253C
ENCODING 9532
SWIDTH 602 0
DWIDTH 10 0
BBX 10 19 0 -4
BITMAP
0800
0800
0800
0800
0800
0800
0800
0800
FFC0
FFC0
0800
0800
0800
0800
0800
0800
0800
0800
0800
ENDCHAR
STARTCHAR uni253D
ENCODING 9533
SWIDTH 602 0
DWIDTH 10 0
BBX 10 19 0 -4
BITMAP
0800
0800
0800
0800
0800
0800
0800
0800
FFC0
FFC0
F800
0800
0800
0800
0800
0800
0800
0800
0800
ENDCHAR
STARTCHAR uni253E
ENCODING 9534
SWIDTH 602 0
DWIDTH 10 0
BBX 10 19 0 -4
BITMAP
0800
0800
0800
0800
0800
0800
0800
0800
FFC0
FFC0
0FC0
0800
0800
0800
0800
0800
0800
0800
0800
ENDCHAR
STARTCHAR uni253F
ENCODING 9535
SWIDTH 602 0
DWIDTH 10 0
BBX 10 19 0 -4
BITMAP
0800
0800
0800
0800
0800
0800
0800
0800
FFC0
FFC0
FFC0
0800
0800
0800
0800
0800
0800
0800
0800
ENDCHAR
STARTCHAR uni2540
ENCODING 9536
SWIDTH 602 0
DWIDTH 10 0
BBX 10 19 0 -4
BITMAP
0C00
0C00
0C00
0C00
0C00
0C00
0C00
0C00
0C00
FFC0
0800
0800
0800
0800
0800
0800
0800
0800
0800
ENDCHAR
STARTCHAR uni2541
ENCODING 9537
SWIDTH 602 0
DWIDTH 10 0
BBX 10 19 0 -4
BITMAP
0800
0800
0800
0800
0800
0800
0800
0800
0800
FFC0
0C00
0C00
0C00
0C00
0C00
0C00
0C00
0C00
0C00
ENDCHAR
STARTCHAR uni2542
ENCODING 9538
SWIDTH 602 0
DWIDTH 10 0
BBX 10 19 0 -4
BITMAP
0C00
0C00
0C00
0C00
0C00
0C00
0C00
0C00
FFC0
FFC0
0C00
0C00
0C00
0C00
0C00
0C00
0C00
0C00
0C00
ENDCHAR
STARTCHAR uni2543
ENCODING 9539
SWIDTH 602 0
DWIDTH 10 0
BBX 10 19 0 -4
BITMAP
0C00
0C00
0C00
0C00
0C00
0C00
0C00
0C00
FFC0
FFC0
FC00
0800
0800
0800
0800
0800
0800
0800
0800
ENDCHAR
STARTCHAR uni2544
ENCODING 9540
SWIDTH 602 0
DWIDTH 10 0
BBX 10 19 0 -4
BITMAP
0C00
0C00
0C00
0C00
0C00
0C00
0C00
0C00
FFC0
FFC0
0FC0
0800
0800
0800
0800
0800
0800
0800
0800
ENDCHAR
STARTCHAR uni2545
ENCODING 9541
SWIDTH 602 0
DWIDTH 10 0
BBX 10 19 0 -4
BITMAP
0800
0800
0800
0800
0800
0800
0800
0800
FFC0
FFC0
FC00
0C00
0C00
0C00
0C00
0C00
0C00
0C00
0C00
ENDCHAR
STARTCHAR uni2546
ENCODING 9542
SWIDTH 602 0
DWIDTH 10 0
BBX 10 19 0 -4
BITMAP
0800
0800
0800
0800
0800
0800
0800
0800
FFC0
FFC0
0FC0
0C00
0C00
0C00
0C00
0C00
0C00
0C00
0C00
ENDCHAR
STARTCHAR uni2547
ENCODING 9543
SWIDTH 602 0
DWIDTH 10 0
BBX 10 19 0 -4
BITMAP
0C00
0C00
0C00
0C00
0C00
0C00
0C00
0C00
FFC0
FFC0
FFC0
0800
0800
0800
0800
0800
0800
0800
0800
ENDCHAR
STARTCHAR uni2548
ENCODING 9544
SWIDTH 602 0
DWIDTH 10 0
BBX 10 19 0 -4
BITMAP
0800
0800
0800
0800
0800
0800
0800
0800
FFC0
FFC0
FFC0
0C00
0C00
0C00
0C00
0C00
0C00
0C00
0C00
ENDCHAR
STARTCHAR uni2549
ENCODING 9545
SWIDTH 602 0
DWIDTH 10 0
BBX 10 19 0 -4
BITMAP
0C00
0C00
0C00
0C00
0C00
0C00
0C00
0C00
FFC0
FFC0
FC00
0C00
0C00
0C00
0C00
0C00
0C00
0C00
0C00
ENDCHAR
STARTCHAR uni254A
ENCODING 9546
SWIDTH 602 0
DWIDTH 10 0
BBX 10 19 0 -4
BITMAP
0C00
0C00
0C00
0C00
0C00
0C00
0C00
0C00
FFC0
FFC0
0FC0
0C00
0C00
0C00
0C00
0C00
0C00
0C00
0C00
ENDCHAR
STARTCHAR uni254B
ENCODING 9547
SWIDTH 602 0
DWIDTH 10 0
BBX 10 19 0 -4
BITMAP
0C00
0C00
0C00
0C00
0C00
0C00
0C00
0C00
FFC0
FFC0
FFC0
0C00
0C00
0C00
0C00
0C00
0C00
0C00
0C00
ENDCHAR
STARTCHAR uni254C
ENCODING 9548
SWIDTH 602 0
DWIDTH 10 0
BBX 9 2 0 5
BITMAP
F780
F780
ENDCHAR
STARTCHAR uni254D
ENCODING 9549
SWIDTH 602 0
DWIDTH 10 0
BBX 9 3 0 4
BITMAP
F780
F780
F780
ENDCHAR
STARTCHAR uni254E
ENCODING 9550
SWIDTH 602 0
DWIDTH 10 0
BBX 1 16 4 -2
BITMAP
80
80
80
80
80
80
80
00
00
80
80
80
80
80
80
80
ENDCHAR
STARTCHAR uni254F
ENCODING 9551
SWIDTH 602 0
DWIDTH 10 0
BBX 2 16 4 -2
BITMAP
C0
C0
C0
C0
C0
C0
C0
00
00
C0
C0
C0
C0
C0
C0
C0
ENDCHAR
STARTCHAR uni2550
ENCODING 9552
SWIDTH 602 0
DWIDTH 10 0
BBX 10 4 0 3
BITMAP
FFC0
FFC0
FFC0
FFC0
ENDCHAR
STARTCHAR uni2551
ENCODING 9553
SWIDTH 602 0
DWIDTH 10 0
BBX 4 19 3 -4
BITMAP
B0
B0
B0
B0
B0
B0
B0
B0
B0
B0
B0
B0
B0
B0
B0
B0
B0
B0
B0
ENDCHAR
STARTCHAR uni2552
ENCODING 9554
SWIDTH 602 0
DWIDTH 10 0
BBX 6 12 4 -4
BITMAP
FC
FC
80
FC
FC
80
80
80
80
80
80
80
ENDCHAR
STARTCHAR uni2553
ENCODING 9555
SWIDTH 602 0
DWIDTH 10 0
BBX 7 11 3 -4
BITMAP
FE
FE
B0
B0
B0
B0
B0
B0
B0
B0
B0
ENDCHAR
STARTCHAR uni2554
ENCODING 9556
SWIDTH 602 0
DWIDTH 10 0
BBX 7 12 3 -4
BITMAP
FE
FE
80
BE
BE
B0
B0
B0
B0
B0
B0
B0
ENDCHAR
STARTCHAR uni2555
ENCODING 9557
SWIDTH 602 0
DWIDTH 10 0
BBX 5 12 0 -4
BITMAP
F8
F8
08
F8
F8
08
08
08
08
08
08
08
ENDCHAR
STARTCHAR uni2556
ENCODING 9558
SWIDTH 602 0
DWIDTH 10 0
BBX 7 11 0 -4
BITMAP
FE
FE
16
16
16
16
16
16
16
16
16
ENDCHAR
STARTCHAR uni2557
ENCODING 9559
SWIDTH 602 0
DWIDTH 10 0
BBX 7 12 0 -4
BITMAP
FE
FE
06
F6
F6
16
16
16
16
16
16
16
ENDCHAR
STARTCHAR uni2558
ENCODING 9560
SWIDTH 602 0
DWIDTH 10 0
BBX 6 12 4 3
BITMAP
80
80
80
80
80
80
80
FC
FC
80
80
FC
ENDCHAR
STARTCHAR uni2559
ENCODING 9561
SWIDTH 602 0
DWIDTH 10 0
BBX 7 10 3 5
BITMAP
B0
B0
B0
B0
B0
B0
B0
B0
B0
FE
ENDCHAR
STARTCHAR uni255A
ENCODING 9562
SWIDTH 602 0
DWIDTH 10 0
BBX 7 12 3 3
BITMAP
B0
B0
B0
B0
B0
B0
B0
B0
BE
80
80
FE
ENDCHAR
STARTCHAR uni255B
ENCODING 9563
SWIDTH 602 0
DWIDTH 10 0
BBX 5 12 0 3
BITMAP
08
08
08
08
08
08
08
F8
F8
08
08
F8
ENDCHAR
STARTCHAR uni255C
ENCODING 9564
SWIDTH 602 0
DWIDTH 10 0
BBX 7 10 0 5
BITMAP
16
16
16
16
16
16
16
16
16
FE
ENDCHAR
STARTCHAR uni255D
ENCODING 9565
SWIDTH 602 0
DWIDTH 10 0
BBX 7 12 0 3
BITMAP
16
16
16
16
16
16
16
16
F6
06
06
FE
ENDCHAR
STARTCHAR uni255E
ENCODING 9566
SWIDTH 602 0
DWIDTH 10 0
BBX 6 19 4 -4
BITMAP
80
80
80
80
80
80
80
FC
FC
80
FC
FC
80
80
80
80
80
80
80
ENDCHAR
STARTCHAR uni255F
ENCODING 9567
SWIDTH 602 0
DWIDTH 10 0
BBX 7 19 3 -4
BITMAP
B0
B0
B0
B0
B0
B0
B0
B0
BE
BE
B0
B0
B0
B0
B0
B0
B0
B0
B0
ENDCHAR
STARTCHAR uni2560
ENCODING 9568
SWIDTH 602 0
DWIDTH 10 0
BBX 7 19 3 -4
BITMAP
B0
B0
B0
B0
B0
B0
B0
BE
80
80
BE
BE
B0
B0
B0
B0
B0
B0
B0
ENDCHAR
STARTCHAR uni2561
ENCODING 9569
SWIDTH 602 0
DWIDTH 10 0
BBX 5 19 0 -4
BITMAP
08
08
08
08
08
08
08
F8
F8
08
F8
F8
08
08
08
08
08
08
08
ENDCHAR
STARTCHAR uni2562
ENCODING 9570
SWIDTH 602 0
DWIDTH 10 0
BBX 7 19 0 -4
BITMAP
16
16
16
16
16
16
16
16
F6
F6
16
16
16
16
16
16
16
16
16
ENDCHAR
STARTCHAR uni2563
ENCODING 9571
SWIDTH 602 0
DWIDTH 10 0
BBX 7 19 0 -4
BITMAP
16
16
16
16
16
16
16
F6
06
06
F6
F6
16
16
16
16
16
16
16
ENDCHAR
STARTCHAR uni2564
ENCODING 9572
SWIDTH 602 0
DWIDTH 10 0
BBX 10 12 0 -4
BITMAP
FFC0
FFC0
0000
FFC0
FFC0
0800
0800
0800
0800
0800
0800
0800
ENDCHAR
STARTCHAR uni2565
ENCODING 9573
SWIDTH 602 0
DWIDTH 10 0
BBX 10 11 0 -4
BITMAP
FFC0
FFC0
1600
1600
1600
1600
1600
1600
1600
1600
1600
ENDCHAR
STARTCHAR uni2566
ENCODING 9574
SWIDTH 602 0
DWIDTH 10 0
BBX 10 12 0 -4
BITMAP
FFC0
FFC0
0000
F7C0
F7C0
1600
1600
1600
1600
1600
1600
1600
ENDCHAR
STARTCHAR uni2567
ENCODING 9575
SWIDTH 602 0
DWIDTH 10 0
BBX 10 12 0 3
BITMAP
0800
0800
0800
0800
0800
0800
0800
0800
FFC0
0000
FFC0
FFC0
ENDCHAR
STARTCHAR uni2568
ENCODING 9576
SWIDTH 602 0
DWIDTH 10 0
BBX 10 10 0 5
BITMAP
1600
1600
1600
1600
1600
1600
1600
1600
1600
FFC0
ENDCHAR
STARTCHAR uni2569
ENCODING 9577
SWIDTH 602 0
DWIDTH 10 0
BBX 10 12 0 3
BITMAP
1600
1600
1600
1600
1600
1600
1600
1600
F7C0
0000
FFC0
FFC0
ENDCHAR
STARTCHAR uni256A
ENCODING 9578
SWIDTH 602 0
DWIDTH 10 0
BBX 10 19 0 -4
BITMAP
0800
0800
0800
0800
0800
0800
0800
FFC0
FFC0
0800
FFC0
FFC0
0800
0800
0800
0800
0800
0800
0800
ENDCHAR
STARTCHAR uni256B
ENCODING 9579
SWIDTH 602 0
DWIDTH 10 0
BBX 10 19 0 -4
BITMAP
1600
1600
1600
1600
1600
1600
1600
1600
FFC0
FFC0
1600
1600
1600
1600
1600
1600
1600
1600
1600
ENDCHAR
STARTCHAR uni256C
ENCODING 9580
SWIDTH 602 0
DWIDTH 10 0
BBX 10 19 0 -4
BITMAP
1600
1600
1600
1600
1600
1600
1600
F7C0
0000
0000
F7C0
F7C0
1600
1600
1600
1600
1600
1600
1600
ENDCHAR
STARTCHAR uni256D
ENCODING 9581
SWIDTH 602 0
DWIDTH 10 0
BBX 6 11 4 -4
BITMAP
3C
7C
C0
80
80
80
80
80
80
80
80
ENDCHAR
STARTCHAR uni256E
ENCODING 9582
SWIDTH 602 0
DWIDTH 10 0
BBX 5 11 0 -4
BITMAP
F0
F8
08
08
08
08
08
08
08
08
08
ENDCHAR
STARTCHAR uni256F
ENCODING 9583
SWIDTH 602 0
DWIDTH 10 0
BBX 5 11 0 4
BITMAP
08
08
08
08
08
08
08
08
08
F8
F0
ENDCHAR
STARTCHAR uni2570
ENCODING 9584
SWIDTH 602 0
DWIDTH 10 0
BBX 6 11 4 4
BITMAP
80
80
80
80
80
80
80
80
C0
7C
3C
ENDCHAR
STARTCHAR uni2571
ENCODING 9585
SWIDTH 602 0
DWIDTH 10 0
BBX 11 19 -1 -4
BITMAP
0020
0060
0040
00C0
0080
0180
0100
0300
0200
0600
0400
0C00
0800
1000
1000
2000
2000
4000
C000
ENDCHAR
STARTCHAR uni2572
ENCODING 9586
SWIDTH 602 0
DWIDTH 10 0
BBX 11 19 -1 -4
BITMAP
C000
4000
2000
2000
1000
1000
0800
0C00
0400
0600
0200
0300
0100
0180
0080
00C0
0040
0060
0020
ENDCHAR
STARTCHAR uni2573
ENCODING 9587
SWIDTH 602 0
DWIDTH 10 0
BBX 11 19 -1 -4
BITMAP
C020
4060
2040
20C0
1080
1180
0900
0B00
0600
0600
0600
0E00
0900
1900
1080
30C0
2040
4060
C020
ENDCHAR
STARTCHAR uni2574
ENCODING 9588
SWIDTH 602 0
DWIDTH 10 0
BBX 5 2 0 5
BITMAP
F8
F8
ENDCHAR
STARTCHAR uni2575
ENCODING 9589
SWIDTH 602 0
DWIDTH 10 0
BBX 1 10 4 5
BITMAP
80
80
80
80
80
80
80
80
80
80
ENDCHAR
STARTCHAR uni2576
ENCODING 9590
SWIDTH 602 0
DWIDTH 10 0
BBX 5 2 5 5
BITMAP
F8
F8
ENDCHAR
STARTCHAR uni2577
ENCODING 9591
SWIDTH 602 0
DWIDTH 10 0
BBX 1 10 4 -4
BITMAP
80
80
80
80
80
80
80
80
80
80
ENDCHAR
STARTCHAR uni2578
ENCODING 9592
SWIDTH 602 0
DWIDTH 10 0
BBX 5 3 0 4
BITMAP
F8
F8
F8
ENDCHAR
STARTCHAR uni2579
ENCODING 9593
SWIDTH 602 0
DWIDTH 10 0
BBX 2 10 4 5
BITMAP
C0
C0
C0
C0
C0
C0
C0
C0
C0
C0
ENDCHAR
STARTCHAR uni257A
ENCODING 9594
SWIDTH 602 0
DWIDTH 10 0
BBX 5 3 5 4
BITMAP
F8
F8
F8
ENDCHAR
STARTCHAR uni257B
ENCODING 9595
SWIDTH 602 0
DWIDTH 10 0
BBX 2 10 4 -4
BITMAP
C0
C0
C0
C0
C0
C0
C0
C0
C0
C0
ENDCHAR
STARTCHAR uni257C
ENCODING 9596
SWIDTH 602 0
DWIDTH 10 0
BBX 10 3 0 4
BITMAP
07C0
FFC0
FFC0
ENDCHAR
STARTCHAR uni257D
ENCODING 9597
SWIDTH 602 0
DWIDTH 10 0
BBX 2 19 4 -4
BITMAP
80
80
80
80
80
80
80
80
80
C0
C0
C0
C0
C0
C0
C0
C0
C0
C0
ENDCHAR
STARTCHAR uni257E
ENCODING 9598
SWIDTH 602 0
DWIDTH 10 0
BBX 10 3 0 4
BITMAP
F800
FFC0
FFC0
ENDCHAR
STARTCHAR uni257F
ENCODING 9599
SWIDTH 602 0
DWIDTH 10 0
BBX 2 19 4 -4
BITMAP
C0
C0
C0
C0
C0
C0
C0
C0
C0
C0
80
80
80
80
80
80
80
80
80
ENDCHAR
STARTCHAR uni2580
ENCODING 9600
SWIDTH 602 0
DWIDTH 10 0
BBX 10 10 0 5
BITMAP
FFC0
FFC0
FFC0
FFC0
FFC0
FFC0
FFC0
FFC0
FFC0
FFC0
ENDCHAR
STARTCHAR uni2581
ENCODING 9601
SWIDTH 602 0
DWIDTH 10 0
BBX 10 2 0 -4
BITMAP
FFC0
FFC0
ENDCHAR
STARTCHAR uni2582
ENCODING 9602
SWIDTH 602 0
DWIDTH 10 0
BBX 10 5 0 -4
BITMAP
FFC0
FFC0
FFC0
FFC0
FFC0
ENDCHAR
STARTCHAR uni2583
ENCODING 9603
SWIDTH 602 0
DWIDTH 10 0
BBX 10 7 0 -4
BITMAP
FFC0
FFC0
FFC0
FFC0
FFC0
FFC0
FFC0
ENDCHAR
STARTCHAR uni2584
ENCODING 9604
SWIDTH 602 0
DWIDTH 10 0
BBX 10 10 0 -4
BITMAP
FFC0
FFC0
FFC0
FFC0
FFC0
FFC0
FFC0
FFC0
FFC0
FFC0
ENDCHAR
STARTCHAR uni2585
ENCODING 9605
SWIDTH 602 0
DWIDTH 10 0
BBX 10 12 0 -4
BITMAP
FFC0
FFC0
FFC0
FFC0
FFC0
FFC0
FFC0
FFC0
FFC0
FFC0
FFC0
FFC0
ENDCHAR
STARTCHAR uni2586
ENCODING 9606
SWIDTH 602 0
DWIDTH 10 0
BBX 10 14 0 -4
BITMAP
FFC0
FFC0
FFC0
FFC0
FFC0
FFC0
FFC0
FFC0
FFC0
FFC0
FFC0
FFC0
FFC0
FFC0
ENDCHAR
STARTCHAR uni2587
ENCODING 9607
SWIDTH 602 0
DWIDTH 10 0
BBX 10 16 0 -4
BITMAP
FFC0
FFC0
FFC0
FFC0
FFC0
FFC0
FFC0
FFC0
FFC0
FFC0
FFC0
FFC0
FFC0
FFC0
FFC0
FFC0
ENDCHAR
STARTCHAR uni2588
ENCODING 9608
SWIDTH 602 0
DWIDTH 10 0
BBX 10 19 0 -4
BITMAP
FFC0
FFC0
FFC0
FFC0
FFC0
FFC0
FFC0
FFC0
FFC0
FFC0
FFC0
FFC0
FFC0
FFC0
FFC0
FFC0
FFC0
FFC0
FFC0
ENDCHAR
STARTCHAR uni2589
ENCODING 9609
SWIDTH 602 0
DWIDTH 10 0
BBX 9 19 0 -4
BITMAP
FF80
FF80
FF80
FF80
FF80
FF80
FF80
FF80
FF80
FF80
FF80
FF80
FF80
FF80
FF80
FF80
FF80
FF80
FF80
ENDCHAR
STARTCHAR uni258A
ENCODING 9610
SWIDTH 602 0
DWIDTH 10 0
BBX 7 19 0 -4
BITMAP
FE
FE
FE
FE
FE
FE
FE
FE
FE
FE
FE
FE
FE
FE
FE
FE
FE
FE
FE
ENDCHAR
STARTCHAR uni258B
ENCODING 9611
SWIDTH 602 0
DWIDTH 10 0
BBX 6 19 0 -4
BITMAP
FC
FC
FC
FC
FC
FC
FC
FC
FC
FC
FC
FC
FC
FC
FC
FC
FC
FC
FC
ENDCHAR
STARTCHAR uni258C
ENCODING 9612
SWIDTH 602 0
DWIDTH 10 0
BBX 5 19 0 -4
BITMAP
F8
F8
F8
F8
F8
F8
F8
F8
F8
F8
F8
F8
F8
F8
F8
F8
F8
F8
F8
ENDCHAR
STARTCHAR uni258D
ENCODING 9613
SWIDTH 602 0
DWIDTH 10 0
BBX 4 19 0 -4
BITMAP
F0
F0
F0
F0
F0
F0
F0
F0
F0
F0
F0
F0
F0
F0
F0
F0
F0
F0
F0
ENDCHAR
STARTCHAR uni258E
ENCODING 9614
SWIDTH 602 0
DWIDTH 10 0
BBX 2 19 0 -4
BITMAP
C0
C0
C0
C0
C0
C0
C0
C0
C0
C0
C0
C0
C0
C0
C0
C0
C0
C0
C0
ENDCHAR
STARTCHAR uni258F
ENCODING 9615
SWIDTH 602 0
DWIDTH 10 0
BBX 1 19 0 -4
BITMAP
80
80
80
80
80
80
80
80
80
80
80
80
80
80
80
80
80
80
80
ENDCHAR
STARTCHAR uni2590
ENCODING 9616
SWIDTH 602 0
DWIDTH 10 0
BBX 5 19 5 -4
BITMAP
F8
F8
F8
F8
F8
F8
F8
F8
F8
F8
F8
F8
F8
F8
F8
F8
F8
F8
F8
ENDCHAR
STARTCHAR uni2591
ENCODING 9617
SWIDTH 602 0
DWIDTH 10 0
BBX 8 19 0 -4
BITMAP
84
84
00
31
31
84
84
31
31
00
84
84
31
31
00
84
84
31
31
ENDCHAR
STARTCHAR uni2592
ENCODING 9618
SWIDTH 602 0
DWIDTH 10 0
BBX 10 19 0 -4
BITMAP
DB00
DB00
24C0
24C0
DB00
DB00
24C0
24C0
DB00
DB00
24C0
DB00
DB00
24C0
24C0
DB00
DB00
24C0
24C0
ENDCHAR
STARTCHAR uni2593
ENCODING 9619
SWIDTH 602 0
DWIDTH 10 0
BBX 10 19 0 -4
BITMAP
7BC0
7BC0
CEC0
CEC0
FFC0
7BC0
7BC0
CEC0
CEC0
FFC0
7BC0
7BC0
CEC0
CEC0
FFC0
7BC0
7BC0
CEC0
CEC0
ENDCHAR
STARTCHAR uni2594
ENCODING 9620
SWIDTH 602 0
DWIDTH 10 0
BBX 10 3 0 12
BITMAP
FFC0
FFC0
FFC0
ENDCHAR
STARTCHAR uni2595
ENCODING 9621
SWIDTH 602 0
DWIDTH 10 0
BBX 1 19 9 -4
BITMAP
80
80
80
80
80
80
80
80
80
80
80
80
80
80
80
80
80
80
80
ENDCHAR
STARTCHAR uni2596
ENCODING 9622
SWIDTH 602 0
DWIDTH 10 0
BBX 5 10 0 -4
BITMAP
F8
F8
F8
F8
F8
F8
F8
F8
F8
F8
ENDCHAR
STARTCHAR uni2597
ENCODING 9623
SWIDTH 602 0
DWIDTH 10 0
BBX 5 10 5 -4
BITMAP
F8
F8
F8
F8
F8
F8
F8
F8
F8
F8
ENDCHAR
STARTCHAR uni2598
ENCODING 9624
SWIDTH 602 0
DWIDTH 10 0
BBX 5 10 0 5
BITMAP
F8
F8
F8
F8
F8
F8
F8
F8
F8
F8
ENDCHAR
STARTCHAR uni2599
ENCODING 9625
SWIDTH 602 0
DWIDTH 10 0
BBX 10 19 0 -4
BITMAP
F800
F800
F800
F800
F800
F800
F800
F800
F800
FFC0
FFC0
FFC0
FFC0
FFC0
FFC0
FFC0
FFC0
FFC0
FFC0
ENDCHAR
STARTCHAR uni259A
ENCODING 9626
SWIDTH 602 0
DWIDTH 10 0
BBX 10 19 0 -4
BITMAP
F800
F800
F800
F800
F800
F800
F800
F800
F800
FFC0
07C0
07C0
07C0
07C0
07C0
07C0
07C0
07C0
07C0
ENDCHAR
STARTCHAR uni259B
ENCODING 9627
SWIDTH 602 0
DWIDTH 10 0
BBX 10 19 0 -4
BITMAP
FFC0
FFC0
FFC0
FFC0
FFC0
FFC0
FFC0
FFC0
FFC0
FFC0
F800
F800
F800
F800
F800
F800
F800
F800
F800
ENDCHAR
STARTCHAR uni259C
ENCODING 9628
SWIDTH 602 0
DWIDTH 10 0
BBX 10 19 0 -4
BITMAP
FFC0
FFC0
FFC0
FFC0
FFC0
FFC0
FFC0
FFC0
FFC0
FFC0
07C0
07C0
07C0
07C0
07C0
07C0
07C0
07C0
07C0
ENDCHAR
STARTCHAR uni259D
ENCODING 9629
SWIDTH 602 0
DWIDTH 10 0
BBX 5 10 5 5
BITMAP
F8
F8
F8
F8
F8
F8
F8
F8
F8
F8
ENDCHAR
STARTCHAR uni259E
ENCODING 9630
SWIDTH 602 0
DWIDTH 10 0
BBX 10 19 0 -4
BITMAP
07C0
07C0
07C0
07C0
07C0
07C0
07C0
07C0
07C0
FFC0
F800
F800
F800
F800
F800
F800
F800
F800
F800
ENDCHAR
STARTCHAR uni259F
ENCODING 9631
SWIDTH 602 0
DWIDTH 10 0
BBX 10 19 0 -4
BITMAP
07C0
07C0
07C0
07C0
07C0
07C0
07C0
07C0
07C0
FFC0
FFC0
FFC0
FFC0
FFC0
FFC0
FFC0
FFC0
FFC0
FFC0
ENDCHAR
STARTCHAR uni25A0
ENCODING 9632
SWIDTH 602 0
DWIDTH 10 0
BBX 10 10 0 -1
BITMAP
FFC0
FFC0
FFC0
FFC0
FFC0
FFC0
FFC0
FFC0
FFC0
FFC0
ENDCHAR
STARTCHAR uni25A1
ENCODING 9633
SWIDTH 602 0
DWIDTH 10 0
BBX 10 10 0 -1
BITMAP
FFC0
8040
8040
8040
8040
8040
8040
8040
8040
FFC0
ENDCHAR
STARTCHAR uni25A2
ENCODING 9634
SWIDTH 602 0
DWIDTH 10 0
BBX 10 10 0 -1
BITMAP
7F80
8080
8040
8040
8040
8040
8040
8040
8080
7F80
ENDCHAR
STARTCHAR uni25A3
ENCODING 9635
SWIDTH 602 0
DWIDTH 10 0
BBX 10 10 0 -1
BITMAP
FFC0
8040
BF40
BF40
BF40
BF40
BF40
BF40
8040
FFC0
ENDCHAR
STARTCHAR uni25A4
ENCODING 9636
SWIDTH 602 0
DWIDTH 10 0
BBX 10 10 0 -1
BITMAP
FFC0
8040
FFC0
FFC0
8040
FFC0
8040
FFC0
8040
FFC0
ENDCHAR
STARTCHAR uni25A5
ENCODING 9637
SWIDTH 602 0
DWIDTH 10 0
BBX 10 10 0 -1
BITMAP
FFC0
B540
B540
B540
B540
B540
B540
B540
B540
FFC0
ENDCHAR
STARTCHAR uni25A6
ENCODING 9638
SWIDTH 602 0
DWIDTH 10 0
BBX 10 10 0 -1
BITMAP
FFC0
B540
FFC0
FFC0
B540
FFC0
B540
FFC0
B540
FFC0
ENDCHAR
STARTCHAR uni25A7
ENCODING 9639
SWIDTH 602 0
DWIDTH 10 0
BBX 10 10 0 -1
BITMAP
FFC0
A540
D2C0
AB40
95C0
DAC0
AD40
D6C0
AB40
FFC0
ENDCHAR
STARTCHAR uni25A8
ENCODING 9640
SWIDTH 602 0
DWIDTH 10 0
BBX 10 10 0 -1
BITMAP
FFC0
EB40
D6C0
AD40
DAC0
B5C0
AB40
D6C0
AD40
FFC0
ENDCHAR
STARTCHAR uni25A9
ENCODING 9641
SWIDTH 602 0
DWIDTH 10 0
BBX 10 10 0 -1
BITMAP
FFC0
EF40
D6C0
AF40
DFC0
FFC0
AF40
D6C0
AF40
FFC0
ENDCHAR
STARTCHAR uni25AA
ENCODING 9642
SWIDTH 602 0
DWIDTH 10 0
BBX 6 6 2 1
BITMAP
FC
FC
FC
FC
FC
FC
ENDCHAR
STARTCHAR uni25AB
ENCODING 9643
SWIDTH 602 0
DWIDTH 10 0
BBX 6 6 2 1
BITMAP
FC
84
84
84
84
FC
ENDCHAR
STARTCHAR uni25AC
ENCODING 9644
SWIDTH 602 0
DWIDTH 10 0
BBX 10 5 0 2
BITMAP
FFC0
FFC0
FFC0
FFC0
FFC0
ENDCHAR
STARTCHAR uni25AD
ENCODING 9645
SWIDTH 602 0
DWIDTH 10 0
BBX 10 5 0 2
BITMAP
FFC0
8040
8040
8040
FFC0
ENDCHAR
STARTCHAR uni25AE
ENCODING 9646
SWIDTH 602 0
DWIDTH 10 0
BBX 4 10 3 -1
BITMAP
F0
F0
F0
F0
F0
F0
F0
F0
F0
F0
ENDCHAR
STARTCHAR uni25AF
ENCODING 9647
SWIDTH 602 0
DWIDTH 10 0
BBX 4 10 3 -1
BITMAP
F0
90
90
90
90
90
90
90
90
F0
ENDCHAR
STARTCHAR uni25B0
ENCODING 9648
SWIDTH 602 0
DWIDTH 10 0
BBX 10 5 0 2
BITMAP
3FC0
3F80
7F00
7F00
FE00
ENDCHAR
STARTCHAR uni25B1
ENCODING 9649
SWIDTH 602 0
DWIDTH 10 0
BBX 10 5 0 2
BITMAP
3FC0
2080
4100
4100
FE00
ENDCHAR
STARTCHAR uni25B2
ENCODING 9650
SWIDTH 602 0
DWIDTH 10 0
BBX 10 10 0 -1
BITMAP
0800
0800
0C00
1C00
1E00
3E00
3F00
7F00
7F80
FFC0
ENDCHAR
STARTCHAR uni25B3
ENCODING 9651
SWIDTH 602 0
DWIDTH 10 0
BBX 10 10 0 -1
BITMAP
0800
0800
0C00
1400
1200
2200
2100
4100
4080
FFC0
ENDCHAR
STARTCHAR uni25B4
ENCODING 9652
SWIDTH 602 0
DWIDTH 10 0
BBX 6 6 2 1
BITMAP
20
30
70
78
F8
FC
ENDCHAR
STARTCHAR uni25B5
ENCODING 9653
SWIDTH 602 0
DWIDTH 10 0
BBX 6 6 2 1
BITMAP
20
30
50
48
88
FC
ENDCHAR
STARTCHAR uni25B6
ENCODING 9654
SWIDTH 602 0
DWIDTH 10 0
BBX 10 10 0 -1
BITMAP
8000
E000
F800
FE00
FFC0
FF00
FC00
F000
C000
8000
ENDCHAR
STARTCHAR uni25B7
ENCODING 9655
SWIDTH 602 0
DWIDTH 10 0
BBX 10 10 0 -1
BITMAP
8000
E000
9800
8600
81C0
8300
8C00
B000
C000
8000
ENDCHAR
STARTCHAR uni25B8
ENCODING 9656
SWIDTH 602 0
DWIDTH 10 0
BBX 6 6 2 1
BITMAP
80
E0
FC
F8
E0
80
ENDCHAR
STARTCHAR uni25B9
ENCODING 9657
SWIDTH 602 0
DWIDTH 10 0
BBX 6 6 2 1
BITMAP
80
E0
9C
98
E0
80
ENDCHAR
STARTCHAR uni25BA
ENCODING 9658
SWIDTH 602 0
DWIDTH 10 0
BBX 10 6 0 1
BITMAP
C000
FC00
FFC0
FF00
F000
8000
ENDCHAR
STARTCHAR uni25BB
ENCODING 9659
SWIDTH 602 0
DWIDTH 10 0
BBX 10 6 0 1
BITMAP
C000
BC00
83C0
8700
F800
8000
ENDCHAR
STARTCHAR uni25BC
ENCODING 9660
SWIDTH 602 0
DWIDTH 10 0
BBX 10 10 0 -1
BITMAP
FFC0
7F80
7F00
3F00
3E00
1E00
1C00
0C00
0800
0800
ENDCHAR
STARTCHAR uni25BD
ENCODING 9661
SWIDTH 602 0
DWIDTH 10 0
BBX 10 10 0 -1
BITMAP
FFC0
4080
4100
2100
2200
1200
1400
0C00
0800
0800
ENDCHAR
STARTCHAR uni25BE
ENCODING 9662
SWIDTH 602 0
DWIDTH 10 0
BBX 6 6 2 1
BITMAP
FC
F8
78
70
30
20
ENDCHAR
STARTCHAR uni25BF
ENCODING 9663
SWIDTH 602 0
DWIDTH 10 0
BBX 6 6 2 1
BITMAP
FC
88
48
50
30
20
ENDCHAR
STARTCHAR uni25C0
ENCODING 9664
SWIDTH 602 0
DWIDTH 10 0
BBX 10 10 0 -1
BITMAP
0040
01C0
07C0
1FC0
FFC0
7FC0
1FC0
07C0
01C0
0040
ENDCHAR
STARTCHAR uni25C1
ENCODING 9665
SWIDTH 602 0
DWIDTH 10 0
BBX 10 10 0 -1
BITMAP
0040
01C0
0640
1840
E040
6040
1840
0640
01C0
0040
ENDCHAR
STARTCHAR uni25C2
ENCODING 9666
SWIDTH 602 0
DWIDTH 10 0
BBX 6 6 2 1
BITMAP
0C
3C
FC
7C
1C
04
ENDCHAR
STARTCHAR uni25C3
ENCODING 9667
SWIDTH 602 0
DWIDTH 10 0
BBX 6 6 2 1
BITMAP
0C
34
C4
64
1C
04
ENDCHAR
STARTCHAR uni25C4
ENCODING 9668
SWIDTH 602 0
DWIDTH 10 0
BBX 10 6 0 1
BITMAP
01C0
0FC0
FFC0
3FC0
07C0
00C0
ENDCHAR
STARTCHAR uni25C5
ENCODING 9669
SWIDTH 602 0
DWIDTH 10 0
BBX 10 6 0 1
BITMAP
01C0
0E40
F040
3840
0740
00C0
ENDCHAR
STARTCHAR uni25C6
ENCODING 9670
SWIDTH 602 0
DWIDTH 10 0
BBX 10 10 0 -1
BITMAP
0800
1C00
3E00
7F00
FFC0
7F80
3F00
1E00
0C00
0800
ENDCHAR
STARTCHAR uni25C7
ENCODING 9671
SWIDTH 602 0
DWIDTH 10 0
BBX 10 10 0 -1
BITMAP
0800
1C00
3200
6100
C0C0
4180
2300
1600
0C00
0800
ENDCHAR
STARTCHAR uni25C8
ENCODING 9672
SWIDTH 602 0
DWIDTH 10 0
BBX 10 10 0 -1
BITMAP
0800
1C00
3A00
7D00
FFC0
5E80
2D00
1A00
0C00
0800
ENDCHAR
STARTCHAR uni25C9
ENCODING 9673
SWIDTH 602 0
DWIDTH 10 0
BBX 10 10 0 -1
BITMAP
1E00
6100
5E80
BF80
BF40
BF40
BF80
5E80
6100
1E00
ENDCHAR
STARTCHAR uni25CA
ENCODING 9674
SWIDTH 602 0
DWIDTH 10 0
BBX 8 17 1 -4
BITMAP
10
10
18
28
24
44
42
82
81
82
42
44
24
28
18
10
10
ENDCHAR
STARTCHAR uni25CB
ENCODING 9675
SWIDTH 602 0
DWIDTH 10 0
BBX 10 11 0 -2
BITMAP
1E00
3F00
6180
C080
80C0
80C0
80C0
C080
6180
3F00
1C00
ENDCHAR
STARTCHAR uni25CC
ENCODING 9676
SWIDTH 602 0
DWIDTH 10 0
BBX 10 11 0 -2
BITMAP
0C00
2D00
6180
0000
8040
80C0
8040
4100
6180
2D00
0C00
ENDCHAR
STARTCHAR uni25CD
ENCODING 9677
SWIDTH 602 0
DWIDTH 10 0
BBX 10 10 0 -1
BITMAP
1E00
7500
7580
B580
B540
B540
B580
7580
7500
1E00
ENDCHAR
STARTCHAR uni25CE
ENCODING 9678
SWIDTH 602 0
DWIDTH 10 0
BBX 10 11 0 -2
BITMAP
1E00
3F00
6180
CC80
92C0
92C0
8CC0
C080
6180
3F00
1C00
ENDCHAR
STARTCHAR uni25CF
ENCODING 9679
SWIDTH 602 0
DWIDTH 10 0
BBX 10 10 0 -1
BITMAP
1E00
7F00
7F80
FF80
FFC0
FFC0
FF80
7F80
7F00
1E00
ENDCHAR
STARTCHAR uni25D0
ENCODING 9680
SWIDTH 602 0
DWIDTH 10 0
BBX 10 10 0 -1
BITMAP
1E00
7900
7880
F880
F840
F840
F880
7880
7900
1E00
ENDCHAR
STARTCHAR uni25D1
ENCODING 9681
SWIDTH 602 0
DWIDTH 10 0
BBX 10 10 0 -1
BITMAP
1E00
6700
4780
8780
87C0
87C0
8780
4780
6700
1E00
ENDCHAR
STARTCHAR uni25D2
ENCODING 9682
SWIDTH 602 0
DWIDTH 10 0
BBX 10 10 0 -1
BITMAP
1E00
6100
4080
8080
8040
FFC0
FF80
7F80
7F00
1E00
ENDCHAR
STARTCHAR uni25D3
ENCODING 9683
SWIDTH 602 0
DWIDTH 10 0
BBX 10 10 0 -1
BITMAP
1E00
7F00
7F80
FF80
FFC0
8040
8080
4080
6100
1E00
ENDCHAR
STARTCHAR uni25D4
ENCODING 9684
SWIDTH 602 0
DWIDTH 10 0
BBX 10 10 0 -1
BITMAP
1E00
6700
4780
8780
87C0
8040
8080
4080
6100
1E00
ENDCHAR
STARTCHAR uni25D5
ENCODING 9685
SWIDTH 602 0
DWIDTH 10 0
BBX 10 10 0 -1
BITMAP
1E00
6700
4780
8780
87C0
FFC0
FF80
7F80
7F00
1E00
ENDCHAR
STARTCHAR uni25D6
ENCODING 9686
SWIDTH 602 0
DWIDTH 10 0
BBX 5 10 2 -1
BITMAP
18
38
78
78
F8
F8
78
78
38
18
ENDCHAR
STARTCHAR uni25D7
ENCODING 9687
SWIDTH 602 0
DWIDTH 10 0
BBX 5 10 2 -1
BITMAP
C0
F0
F8
F8
F8
F8
F8
F8
F0
C0
ENDCHAR
STARTCHAR uni25D8
ENCODING 9688
SWIDTH 602 0
DWIDTH 10 0
BBX 10 12 0 0
BITMAP
FFC0
FFC0
FFC0
E3C0
C1C0
C0C0
C0C0
C1C0
E3C0
FFC0
FFC0
FFC0
ENDCHAR
STARTCHAR uni25D9
ENCODING 9689
SWIDTH 602 0
DWIDTH 10 0
BBX 10 16 0 -4
BITMAP
FFC0
FFC0
FFC0
E1C0
9EC0
BF40
FF40
FFC0
FFC0
FF40
BF40
9EC0
E1C0
FFC0
FFC0
FFC0
ENDCHAR
STARTCHAR uni25DA
ENCODING 9690
SWIDTH 602 0
DWIDTH 10 0
BBX 10 8 0 4
BITMAP
FFC0
FFC0
FFC0
E1C0
9EC0
BF40
FF40
FFC0
ENDCHAR
STARTCHAR uni25DB
ENCODING 9691
SWIDTH 602 0
DWIDTH 10 0
BBX 10 8 0 -4
BITMAP
FFC0
FF40
BF40
9EC0
E1C0
FFC0
FFC0
FFC0
ENDCHAR
STARTCHAR uni25DC
ENCODING 9692
SWIDTH 602 0
DWIDTH 10 0
BBX 5 5 2 4
BITMAP
18
20
40
40
80
ENDCHAR
STARTCHAR uni25DD
ENCODING 9693
SWIDTH 602 0
DWIDTH 10 0
BBX 5 5 2 4
BITMAP
C0
30
18
08
08
ENDCHAR
STARTCHAR uni25DE
ENCODING 9694
SWIDTH 602 0
DWIDTH 10 0
BBX 5 5 2 -1
BITMAP
08
08
18
30
C0
ENDCHAR
STARTCHAR uni25DF
ENCODING 9695
SWIDTH 602 0
DWIDTH 10 0
BBX 5 5 2 -1
BITMAP
80
40
40
20
18
ENDCHAR
STARTCHAR uni25E0
ENCODING 9696
SWIDTH 602 0
DWIDTH 10 0
BBX 10 5 0 4
BITMAP
1E00
7700
4180
C080
80C0
ENDCHAR
STARTCHAR uni25E1
ENCODING 9697
SWIDTH 602 0
DWIDTH 10 0
BBX 10 5 0 -1
BITMAP
80C0
C080
6180
7F00
1E00
ENDCHAR
STARTCHAR uni25E2
ENCODING 9698
SWIDTH 602 0
DWIDTH 10 0
BBX 10 10 0 -1
BITMAP
0040
0040
00C0
01C0
03C0
07C0
0FC0
1FC0
3FC0
FFC0
ENDCHAR
STARTCHAR uni25E3
ENCODING 9699
SWIDTH 602 0
DWIDTH 10 0
BBX 10 10 0 -1
BITMAP
8000
8000
C000
E000
F000
F800
FC00
FE00
FF00
FFC0
ENDCHAR
STARTCHAR uni25E4
ENCODING 9700
SWIDTH 602 0
DWIDTH 10 0
BBX 10 10 0 -1
BITMAP
FFC0
FF00
FE00
FC00
F800
F000
E000
C000
8000
8000
ENDCHAR
STARTCHAR uni25E5
ENCODING 9701
SWIDTH 602 0
DWIDTH 10 0
BBX 10 10 0 -1
BITMAP
FFC0
3FC0
1FC0
0FC0
07C0
03C0
01C0
00C0
0040
0040
ENDCHAR
STARTCHAR uni25E6
ENCODING 9702
SWIDTH 602 0
DWIDTH 10 0
BBX 6 6 2 3
BITMAP
70
88
84
84
88
70
ENDCHAR
STARTCHAR uni25E7
ENCODING 9703
SWIDTH 602 0
DWIDTH 10 0
BBX 10 10 0 -1
BITMAP
FFC0
F840
F840
F840
F840
F840
F840
F840
F840
FFC0
ENDCHAR
STARTCHAR uni25E8
ENCODING 9704
SWIDTH 602 0
DWIDTH 10 0
BBX 10 10 0 -1
BITMAP
FFC0
87C0
87C0
87C0
87C0
87C0
87C0
87C0
87C0
FFC0
ENDCHAR
STARTCHAR uni25E9
ENCODING 9705
SWIDTH 602 0
DWIDTH 10 0
BBX 10 10 0 -1
BITMAP
FFC0
FF40
FE40
FC40
F840
F040
E040
C040
8040
FFC0
ENDCHAR
STARTCHAR uni25EA
ENCODING 9706
SWIDTH 602 0
DWIDTH 10 0
BBX 10 9 0 0
BITMAP
FFC0
80C0
81C0
83C0
87C0
8FC0
9FC0
BFC0
FFC0
ENDCHAR
STARTCHAR uni25EB
ENCODING 9707
SWIDTH 602 0
DWIDTH 10 0
BBX 10 10 0 -1
BITMAP
FFC0
8840
8840
8840
8840
8840
8840
8840
8840
FFC0
ENDCHAR
STARTCHAR uni25EC
ENCODING 9708
SWIDTH 602 0
DWIDTH 10 0
BBX 10 10 0 -1
BITMAP
0800
0800
0C00
1400
1200
2200
2D00
4D00
4080
FFC0
ENDCHAR
STARTCHAR uni25ED
ENCODING 9709
SWIDTH 602 0
DWIDTH 10 0
BBX 10 10 0 -1
BITMAP
0800
0800
0C00
1C00
1A00
3A00
3900
7900
7880
FFC0
ENDCHAR
STARTCHAR uni25EE
ENCODING 9710
SWIDTH 602 0
DWIDTH 10 0
BBX 10 10 0 -1
BITMAP
0800
0800
0C00
1400
1600
2600
2700
4700
4780
FFC0
ENDCHAR
STARTCHAR uni25EF
ENCODING 9711
SWIDTH 602 0
DWIDTH 10 0
BBX 10 10 0 -1
BITMAP
1E00
6100
C080
8040
8040
8040
8040
C080
6100
1E00
ENDCHAR
STARTCHAR uni25F0
ENCODING 9712
SWIDTH 602 0
DWIDTH 10 0
BBX 10 10 0 -1
BITMAP
FFC0
8840
8840
8840
F840
8040
8040
8040
8040
FFC0
ENDCHAR
STARTCHAR uni25F1
ENCODING 9713
SWIDTH 602 0
DWIDTH 10 0
BBX 10 10 0 -1
BITMAP
FFC0
8040
8040
8040
F840
8840
8840
8840
8840
FFC0
ENDCHAR
STARTCHAR uni25F2
ENCODING 9714
SWIDTH 602 0
DWIDTH 10 0
BBX 10 10 0 -1
BITMAP
FFC0
8040
8040
8040
8FC0
8840
8840
8840
8840
FFC0
ENDCHAR
STARTCHAR uni25F3
ENCODING 9715
SWIDTH 602 0
DWIDTH 10 0
BBX 10 10 0 -1
BITMAP
FFC0
8840
8840
8840
8FC0
8040
8040
8040
8040
FFC0
ENDCHAR
STARTCHAR uni25F4
ENCODING 9716
SWIDTH 602 0
DWIDTH 10 0
BBX 10 10 0 -1
BITMAP
1E00
6900
4880
8880
F840
8040
8080
4080
6100
1E00
ENDCHAR
STARTCHAR uni25F5
ENCODING 9717
SWIDTH 602 0
DWIDTH 10 0
BBX 10 9 0 0
BITMAP
1E00
6100
4080
8080
F840
8840
8880
4980
3F00
ENDCHAR
STARTCHAR uni25F6
ENCODING 9718
SWIDTH 602 0
DWIDTH 10 0
BBX 10 9 0 0
BITMAP
1E00
6100
4080
8080
8FC0
8840
8880
4980
3F00
ENDCHAR
STARTCHAR uni25F7
ENCODING 9719
SWIDTH 602 0
DWIDTH 10 0
BBX 10 10 0 -1
BITMAP
1E00
6900
4880
8880
8FC0
8040
8080
4080
6100
1E00
ENDCHAR
STARTCHAR uni25F8
ENCODING 9720
SWIDTH 602 0
DWIDTH 10 0
BBX 10 10 0 -1
BITMAP
FFC0
8100
8200
8400
8800
9000
A000
C000
8000
8000
ENDCHAR
STARTCHAR uni25F9
ENCODING 9721
SWIDTH 602 0
DWIDTH 10 0
BBX 10 10 0 -1
BITMAP
FFC0
2040
1040
0840
0440
0240
0140
00C0
0040
0040
ENDCHAR
STARTCHAR uni25FA
ENCODING 9722
SWIDTH 602 0
DWIDTH 10 0
BBX 10 10 0 -1
BITMAP
8000
8000
C000
A000
9000
8800
8400
8200
8100
FFC0
ENDCHAR
STARTCHAR uni25FB
ENCODING 9723
SWIDTH 602 0
DWIDTH 10 0
BBX 8 8 1 0
BITMAP
FF
81
81
81
81
81
81
FF
ENDCHAR
STARTCHAR uni25FC
ENCODING 9724
SWIDTH 602 0
DWIDTH 10 0
BBX 8 8 1 0
BITMAP
FF
FF
FF
FF
FF
FF
FF
FF
ENDCHAR
STARTCHAR uni25FD
ENCODING 9725
SWIDTH 602 0
DWIDTH 10 0
BBX 7 7 1 1
BITMAP
FE
82
82
82
82
82
FE
ENDCHAR
STARTCHAR uni25FE
ENCODING 9726
SWIDTH 602 0
DWIDTH 10 0
BBX 7 7 1 1
BITMAP
FE
FE
FE
FE
FE
FE
FE
ENDCHAR
STARTCHAR uni25FF
ENCODING 9727
SWIDTH 602 0
DWIDTH 10 0
BBX 10 10 0 -1
BITMAP
0040
00C0
01C0
0340
0640
0C40
1840
3040
6040
FFC0
ENDCHAR
STARTCHAR uni266A
ENCODING 9834
SWIDTH 602 0
DWIDTH 10 0
BBX 9 14 0 -2
BITMAP
0600
0700
0780
0780
0780
0680
0680
0600
0600
0600
7E00
FC00
7C00
7800
ENDCHAR
STARTCHAR uni2756
ENCODING 10070
SWIDTH 602 0
DWIDTH 10 0
BBX 9 9 0 0
BITMAP
0800
1C00
1E00
6B00
F780
6B00
3D00
1E00
0800
ENDCHAR
STARTCHAR uni2768
ENCODING 10088
SWIDTH 602 0
DWIDTH 10 0
BBX 6 12 2 -1
BITMAP
1C
30
60
E0
C0
C0
C0
C0
E0
60
30
1C
ENDCHAR
STARTCHAR uni2769
ENCODING 10089
SWIDTH 602 0
DWIDTH 10 0
BBX 6 12 2 -1
BITMAP
C0
70
38
18
1C
1C
1C
1C
18
38
70
C0
ENDCHAR
STARTCHAR uni276A
ENCODING 10090
SWIDTH 602 0
DWIDTH 10 0
BBX 4 12 3 -1
BITMAP
70
60
E0
C0
C0
C0
C0
C0
C0
E0
60
70
ENDCHAR
STARTCHAR uni276B
ENCODING 10091
SWIDTH 602 0
DWIDTH 10 0
BBX 4 11 3 -1
BITMAP
C0
60
60
70
70
70
70
70
60
60
C0
ENDCHAR
STARTCHAR uni276C
ENCODING 10092
SWIDTH 602 0
DWIDTH 10 0
BBX 4 12 3 -1
BITMAP
30
20
60
40
C0
80
80
C0
40
60
20
30
ENDCHAR
STARTCHAR uni276D
ENCODING 10093
SWIDTH 602 0
DWIDTH 10 0
BBX 4 12 3 -1
BITMAP
80
C0
40
60
20
30
30
20
60
40
C0
80
ENDCHAR
STARTCHAR uni276E
ENCODING 10094
SWIDTH 602 0
DWIDTH 10 0
BBX 6 12 2 -1
BITMAP
1C
38
30
70
60
E0
C0
60
70
30
38
1C
ENDCHAR
STARTCHAR uni276F
ENCODING 10095
SWIDTH 602 0
DWIDTH 10 0
BBX 6 12 2 -1
BITMAP
E0
60
70
30
18
1C
1C
18
30
70
60
E0
ENDCHAR
STARTCHAR uni2770
ENCODING 10096
SWIDTH 602 0
DWIDTH 10 0
BBX 6 13 2 -1
BITMAP
1C
38
38
70
70
E0
E0
E0
70
70
38
38
1C
ENDCHAR
STARTCHAR uni2771
ENCODING 10097
SWIDTH 602 0
DWIDTH 10 0
BBX 6 13 2 -1
BITMAP
E0
F0
70
78
38
3C
1C
3C
38
78
70
F0
E0
ENDCHAR
STARTCHAR uni2772
ENCODING 10098
SWIDTH 602 0
DWIDTH 10 0
BBX 2 13 4 -2
BITMAP
40
80
80
80
80
80
80
80
80
80
80
80
40
ENDCHAR
STARTCHAR uni2773
ENCODING 10099
SWIDTH 602 0
DWIDTH 10 0
BBX 2 13 4 -2
BITMAP
80
C0
40
40
40
40
40
40
40
40
40
40
80
ENDCHAR
STARTCHAR uni2774
ENCODING 10100
SWIDTH 602 0
DWIDTH 10 0
BBX 5 13 2 -2
BITMAP
38
30
30
30
30
30
E0
30
30
30
30
30
38
ENDCHAR
STARTCHAR uni2775
ENCODING 10101
SWIDTH 602 0
DWIDTH 10 0
BBX 6 13 2 -2
BITMAP
E0
30
30
30
30
30
1C
30
30
30
30
30
E0
ENDCHAR
STARTCHAR uni2794
ENCODING 10132
SWIDTH 602 0
DWIDTH 10 0
BBX 8 5 1 3
BITMAP
1C
FE
FF
06
1C
ENDCHAR
STARTCHAR uni2798
ENCODING 10136
SWIDTH 602 0
DWIDTH 10 0
BBX 8 8 1 1
BITMAP
40
C0
60
31
0A
06
0F
1F
ENDCHAR
STARTCHAR uni2799
ENCODING 10137
SWIDTH 602 0
DWIDTH 10 0
BBX 8 5 1 3
BITMAP
04
06
FF
06
04
ENDCHAR
STARTCHAR uni279A
ENCODING 10138
SWIDTH 602 0
DWIDTH 10 0
BBX 8 7 1 2
BITMAP
1F
07
0E
1A
30
60
C0
ENDCHAR
STARTCHAR uni279B
ENCODING 10139
SWIDTH 602 0
DWIDTH 10 0
BBX 9 5 0 3
BITMAP
1000
0C00
FF80
0C00
1000
ENDCHAR
STARTCHAR uni279C
ENCODING 10140
SWIDTH 602 0
DWIDTH 10 0
BBX 8 6 1 3
BITMAP
0C
06
FF
07
06
0C
ENDCHAR
STARTCHAR uni279D
ENCODING 10141
SWIDTH 602 0
DWIDTH 10 0
BBX 8 5 1 3
BITMAP
04
02
FF
02
04
ENDCHAR
STARTCHAR uni279E
ENCODING 10142
SWIDTH 602 0
DWIDTH 10 0
BBX 9 6 0 3
BITMAP
0200
0100
FF80
FF80
0100
0200
ENDCHAR
STARTCHAR uni279F
ENCODING 10143
SWIDTH 602 0
DWIDTH 10 0
BBX 9 4 0 3
BITMAP
0100
FF80
FF80
0100
ENDCHAR
STARTCHAR uni27A0
ENCODING 10144
SWIDTH 602 0
DWIDTH 10 0
BBX 8 5 1 3
BITMAP
04
BE
BF
BE
04
ENDCHAR
STARTCHAR uni27A1
ENCODING 10145
SWIDTH 602 0
DWIDTH 10 0
BBX 8 4 1 3
BITMAP
04
FE
FF
04
ENDCHAR
STARTCHAR uni27A2
ENCODING 10146
SWIDTH 602 0
DWIDTH 10 0
BBX 8 6 1 3
BITMAP
80
70
2C
3F
60
80
ENDCHAR
STARTCHAR uni27A3
ENCODING 10147
SWIDTH 602 0
DWIDTH 10 0
BBX 8 6 1 3
BITMAP
80
60
3C
2F
70
80
ENDCHAR
STARTCHAR uni27A4
ENCODING 10148
SWIDTH 602 0
DWIDTH 10 0
BBX 8 8 1 2
BITMAP
80
40
70
3C
3F
78
60
80
ENDCHAR
STARTCHAR uni27A5
ENCODING 10149
SWIDTH 602 0
DWIDTH 10 0
BBX 9 5 0 3
BITMAP
8200
FF00
FF80
7F00
0200
ENDCHAR
STARTCHAR uni27A6
ENCODING 10150
SWIDTH 602 0
DWIDTH 10 0
BBX 9 5 0 4
BITMAP
0200
7F00
FF80
FF00
8200
ENDCHAR
STARTCHAR uni27A7
ENCODING 10151
SWIDTH 602 0
DWIDTH 10 0
BBX 4 8 3 2
BITMAP
40
20
E0
F0
F0
E0
20
40
ENDCHAR
STARTCHAR uni27A8
ENCODING 10152
SWIDTH 602 0
DWIDTH 10 0
BBX 9 5 0 3
BITMAP
0400
FE00
FF80
FE00
0400
ENDCHAR
STARTCHAR uni27A9
ENCODING 10153
SWIDTH 602 0
DWIDTH 10 0
BBX 8 5 1 3
BITMAP
0C
F6
83
F2
1C
ENDCHAR
STARTCHAR uni27AA
ENCODING 10154
SWIDTH 602 0
DWIDTH 10 0
BBX 8 5 1 2
BITMAP
0C
FA
81
FA
0C
ENDCHAR
STARTCHAR uni27AB
ENCODING 10155
SWIDTH 602 0
DWIDTH 10 0
BBX 9 6 0 2
BITMAP
0100
3E80
4080
7D80
FF00
0E00
ENDCHAR
STARTCHAR uni27AC
ENCODING 10156
SWIDTH 602 0
DWIDTH 10 0
BBX 8 5 1 2
BITMAP
18
F6
89
7D
02
ENDCHAR
STARTCHAR uni27AD
ENCODING 10157
SWIDTH 602 0
DWIDTH 10 0
BBX 8 7 1 2
BITMAP
08
F4
82
83
F6
FC
08
ENDCHAR
STARTCHAR uni27AE
ENCODING 10158
SWIDTH 602 0
DWIDTH 10 0
BBX 8 8 1 1
BITMAP
08
FC
F6
83
82
82
F4
08
ENDCHAR
STARTCHAR uni27AF
ENCODING 10159
SWIDTH 602 0
DWIDTH 10 0
BBX 9 6 0 3
BITMAP
0600
FD00
4080
4080
FF00
0600
ENDCHAR
STARTCHAR uni27B1
ENCODING 10161
SWIDTH 602 0
DWIDTH 10 0
BBX 9 7 0 2
BITMAP
0200
FF00
8180
4080
4100
FD00
0600
ENDCHAR
STARTCHAR uni27B2
ENCODING 10162
SWIDTH 602 0
DWIDTH 10 0
BBX 8 8 1 1
BITMAP
38
FE
06
03
02
06
FE
38
ENDCHAR
STARTCHAR uni27B3
ENCODING 10163
SWIDTH 602 0
DWIDTH 10 0
BBX 8 4 1 2
BITMAP
E2
A2
7F
E2
ENDCHAR
STARTCHAR uni27B4
ENCODING 10164
SWIDTH 602 0
DWIDTH 10 0
BBX 8 8 1 2
BITMAP
20
20
F0
78
38
18
05
07
ENDCHAR
STARTCHAR uni27B5
ENCODING 10165
SWIDTH 602 0
DWIDTH 10 0
BBX 8 3 1 4
BITMAP
F2
0F
F2
ENDCHAR
STARTCHAR uni27B6
ENCODING 10166
SWIDTH 602 0
DWIDTH 10 0
BBX 8 8 1 1
BITMAP
07
06
09
38
78
B0
20
20
ENDCHAR
STARTCHAR uni27B7
ENCODING 10167
SWIDTH 602 0
DWIDTH 10 0
BBX 8 8 1 2
BITMAP
60
B0
F8
70
38
05
03
07
ENDCHAR
STARTCHAR uni27B8
ENCODING 10168
SWIDTH 602 0
DWIDTH 10 0
BBX 9 3 0 3
BITMAP
F100
7F80
F100
ENDCHAR
STARTCHAR uni27B9
ENCODING 10169
SWIDTH 602 0
DWIDTH 10 0
BBX 8 8 1 1
BITMAP
07
02
05
38
78
F0
20
20
ENDCHAR
STARTCHAR uni27BA
ENCODING 10170
SWIDTH 602 0
DWIDTH 10 0
BBX 9 5 0 3
BITMAP
0600
0300
7E80
E100
0600
ENDCHAR
STARTCHAR uni27BB
ENCODING 10171
SWIDTH 602 0
DWIDTH 10 0
BBX 9 5 0 3
BITMAP
0100
7100
FF80
7100
0100
ENDCHAR
STARTCHAR uni27BC
ENCODING 10172
SWIDTH 602 0
DWIDTH 10 0
BBX 9 4 0 4
BITMAP
F900
7980
7F80
F900
ENDCHAR
STARTCHAR uni27BD
ENCODING 10173
SWIDTH 602 0
DWIDTH 10 0
BBX 9 5 0 3
BITMAP
FA00
7D00
7F80
7D00
FA00
ENDCHAR
STARTCHAR uni27BE
ENCODING 10174
SWIDTH 602 0
DWIDTH 10 0
BBX 9 5 0 2
BITMAP
0E00
FD00
0080
FD00
0E00
ENDCHAR
STARTCHAR uni27C2
ENCODING 10178
SWIDTH 602 0
DWIDTH 10 0
BBX 8 10 1 0
BITMAP
18
18
18
18
18
18
18
18
FF
FF
ENDCHAR
STARTCHAR uni27C5
ENCODING 10181
SWIDTH 602 0
DWIDTH 10 0
BBX 6 15 2 -3
BITMAP
30
F8
58
18
30
30
30
60
60
E0
C0
C0
E0
FC
3C
ENDCHAR
STARTCHAR uni27C6
ENCODING 10182
SWIDTH 602 0
DWIDTH 10 0
BBX 6 15 2 -3
BITMAP
78
7C
70
60
60
30
30
38
18
18
18
1C
1C
F8
F0
ENDCHAR
STARTCHAR uni27DC
ENCODING 10204
SWIDTH 602 0
DWIDTH 10 0
BBX 9 4 0 3
BITMAP
7000
DF80
DF80
7000
ENDCHAR
STARTCHAR uni27E0
ENCODING 10208
SWIDTH 602 0
DWIDTH 10 0
BBX 8 17 1 -4
BITMAP
10
10
18
28
24
44
42
82
FF
82
42
44
24
28
18
10
10
ENDCHAR
STARTCHAR uni27E6
ENCODING 10214
SWIDTH 602 0
DWIDTH 10 0
BBX 6 14 2 -2
BITMAP
FC
A0
A0
A0
A0
A0
A0
A0
A0
A0
A0
A0
A0
FC
ENDCHAR
STARTCHAR uni27E7
ENCODING 10215
SWIDTH 602 0
DWIDTH 10 0
BBX 5 14 2 -2
BITMAP
F8
28
28
28
28
28
28
28
28
28
28
28
28
F8
ENDCHAR
STARTCHAR uni27E8
ENCODING 10216
SWIDTH 602 0
DWIDTH 10 0
BBX 4 14 3 -2
BITMAP
30
70
60
60
E0
C0
C0
C0
C0
E0
60
60
70
30
ENDCHAR
STARTCHAR uni27E9
ENCODING 10217
SWIDTH 602 0
DWIDTH 10 0
BBX 4 14 3 -2
BITMAP
C0
C0
E0
60
60
60
30
30
70
60
60
E0
C0
C0
ENDCHAR
STARTCHAR uni27EA
ENCODING 10218
SWIDTH 602 0
DWIDTH 10 0
BBX 8 14 1 -2
BITMAP
33
76
66
66
EE
CC
CC
CC
CC
EC
66
66
76
33
ENDCHAR
STARTCHAR uni27EB
ENCODING 10219
SWIDTH 602 0
DWIDTH 10 0
BBX 8 14 1 -2
BITMAP
CC
CC
EE
66
66
76
33
33
76
66
66
EE
CC
CC
ENDCHAR
STARTCHAR uni27F5
ENCODING 10229
SWIDTH 602 0
DWIDTH 10 0
BBX 11 6 -1 2
BITMAP
2000
6000
FFE0
FFE0
6000
2000
ENDCHAR
STARTCHAR uni27F6
ENCODING 10230
SWIDTH 602 0
DWIDTH 10 0
BBX 11 6 -1 2
BITMAP
0040
00C0
FFE0
FFE0
0060
00C0
ENDCHAR
STARTCHAR uni27F7
ENCODING 10231
SWIDTH 602 0
DWIDTH 10 0
BBX 11 6 -1 2
BITMAP
2040
60C0
FFE0
FFE0
6060
20C0
ENDCHAR
STARTCHAR uni2987
ENCODING 10631
SWIDTH 602 0
DWIDTH 10 0
BBX 6 14 2 -2
BITMAP
0C
34
64
64
C4
C4
C4
C4
C4
C4
64
64
34
0C
ENDCHAR
STARTCHAR uni2988
ENCODING 10632
SWIDTH 602 0
DWIDTH 10 0
BBX 6 14 2 -2
BITMAP
C0
A0
B0
98
98
88
8C
8C
8C
98
98
B0
E0
C0
ENDCHAR
STARTCHAR uni2997
ENCODING 10647
SWIDTH 602 0
DWIDTH 10 0
BBX 5 16 3 -3
BITMAP
10
18
30
60
E0
E0
E0
E0
E0
E0
E0
E0
60
30
18
10
ENDCHAR
STARTCHAR uni2998
ENCODING 10648
SWIDTH 602 0
DWIDTH 10 0
BBX 5 16 2 -3
BITMAP
80
C0
60
30
38
38
38
38
38
38
38
38
30
60
C0
80
ENDCHAR
STARTCHAR uni29EB
ENCODING 10731
SWIDTH 602 0
DWIDTH 10 0
BBX 8 17 1 -4
BITMAP
10
10
18
38
3C
7C
7E
FE
FF
FE
7E
7C
3C
38
18
10
10
ENDCHAR
STARTCHAR uni29FA
ENCODING 10746
SWIDTH 602 0
DWIDTH 10 0
BBX 8 9 1 1
BITMAP
66
66
66
66
FF
FF
66
66
66
ENDCHAR
STARTCHAR uni29FB
ENCODING 10747
SWIDTH 602 0
DWIDTH 10 0
BBX 8 9 1 1
BITMAP
DA
DA
DA
DA
FF
FF
DA
DA
DA
ENDCHAR
STARTCHAR uni2A00
ENCODING 10752
SWIDTH 602 0
DWIDTH 10 0
BBX 8 16 1 -4
BITMAP
3C
7E
C6
C3
83
83
83
99
99
9B
83
83
C3
C6
7E
3C
ENDCHAR
STARTCHAR uni2A2F
ENCODING 10799
SWIDTH 602 0
DWIDTH 10 0
BBX 8 8 1 1
BITMAP
42
E7
7E
3C
3C
7E
E7
42
ENDCHAR
STARTCHAR uni2A6A
ENCODING 10858
SWIDTH 602 0
DWIDTH 10 0
BBX 8 6 1 4
BITMAP
18
18
18
71
FF
8E
ENDCHAR
STARTCHAR uni2A6B
ENCODING 10859
SWIDTH 602 0
DWIDTH 10 0
BBX 8 10 1 0
BITMAP
0E
0E
0E
71
FF
8E
00
60
60
60
ENDCHAR
STARTCHAR uni2B05
ENCODING 11013
SWIDTH 602 0
DWIDTH 10 0
BBX 8 4 1 3
BITMAP
40
FF
FF
40
ENDCHAR
STARTCHAR uni2B06
ENCODING 11014
SWIDTH 602 0
DWIDTH 10 0
BBX 5 8 2 1
BITMAP
30
F8
30
30
30
30
30
30
ENDCHAR
STARTCHAR uni2B07
ENCODING 11015
SWIDTH 602 0
DWIDTH 10 0
BBX 5 8 2 2
BITMAP
30
30
30
30
30
30
F8
30
ENDCHAR
STARTCHAR uni2B08
ENCODING 11016
SWIDTH 602 0
DWIDTH 10 0
BBX 7 7 1 2
BITMAP
1E
0E
1E
38
70
E0
40
ENDCHAR
STARTCHAR uni2B09
ENCODING 11017
SWIDTH 602 0
DWIDTH 10 0
BBX 7 7 2 2
BITMAP
E0
E0
F0
38
1C
0E
08
ENDCHAR
STARTCHAR uni2B0A
ENCODING 11018
SWIDTH 602 0
DWIDTH 10 0
BBX 7 7 2 2
BITMAP
40
E0
F0
78
3E
1E
1E
ENDCHAR
STARTCHAR uni2B0B
ENCODING 11019
SWIDTH 602 0
DWIDTH 10 0
BBX 7 7 1 2
BITMAP
04
0E
1C
38
F0
E0
F0
ENDCHAR
STARTCHAR uni2B0C
ENCODING 11020
SWIDTH 602 0
DWIDTH 10 0
BBX 8 4 1 3
BITMAP
44
FE
FF
44
ENDCHAR
STARTCHAR uni2B0D
ENCODING 11021
SWIDTH 602 0
DWIDTH 10 0
BBX 5 8 2 2
BITMAP
20
70
F8
30
30
30
F8
30
ENDCHAR
STARTCHAR uni2B16
ENCODING 11030
SWIDTH 602 0
DWIDTH 10 0
BBX 10 10 0 -1
BITMAP
0800
1C00
3A00
7900
F8C0
7880
3900
1A00
0C00
0800
ENDCHAR
STARTCHAR uni2B17
ENCODING 11031
SWIDTH 602 0
DWIDTH 10 0
BBX 10 10 0 -1
BITMAP
0800
1C00
3600
6700
C7C0
4780
2700
1600
0C00
0800
ENDCHAR
STARTCHAR uni2B18
ENCODING 11032
SWIDTH 602 0
DWIDTH 10 0
BBX 10 10 0 -1
BITMAP
0800
0C00
1E00
3F00
FFC0
4080
2100
1200
0C00
0800
ENDCHAR
STARTCHAR uni2B19
ENCODING 11033
SWIDTH 602 0
DWIDTH 10 0
BBX 10 10 0 -1
BITMAP
0800
0C00
1200
2100
C0C0
7F80
3F00
1E00
0C00
0800
ENDCHAR
STARTCHAR uni2B1A
ENCODING 11034
SWIDTH 602 0
DWIDTH 10 0
BBX 10 10 0 -1
BITMAP
D6C0
8040
8040
8040
0000
8040
8040
0000
8040
D6C0
ENDCHAR
ENDFONT
